# This file uses centimeters as units for non-parametric coordinates.

g default
v 0.000000 0.000000 0.000000
v 0.000000 9.834126 0.000000
v 0.553108 0.000000 0.000000
v 0.553108 9.834126 0.000000
v 0.553108 0.000000 10.668907
v 0.525455 0.000000 10.696560
v 0.525455 9.834126 10.696560
v 0.553108 9.834126 10.668907
v 0.027653 0.000000 10.696560
v 0.000000 0.000000 10.668907
v 0.000000 9.834126 10.668907
v 0.027653 9.834126 10.696560
vt 0.995135 0.082609
vt 0.995106 0.384636
vt 0.669315 0.082610
vt 0.650752 0.384629
vt 0.324940 0.384622
vt 0.324985 0.082612
vt 0.667657 0.384629
vt 0.652439 0.082610
vt 0.667627 0.082610
vt 0.669347 0.384629
vt 0.650751 0.082610
vt 0.652442 0.384629
vn 0.000000 0.000000 1.000000
vn 0.000000 0.000000 1.000000
vn 0.000000 0.000000 1.000000
vn 0.000000 0.000000 1.000000
vn -1.000000 0.000000 0.000000
vn -1.000000 0.000000 0.000000
vn -1.000000 0.000000 0.000000
vn -1.000000 0.000000 0.000000
vn 1.000000 0.000000 0.000000
vn 1.000000 0.000000 0.000000
vn 1.000000 0.000000 0.000000
vn 1.000000 0.000000 0.000000
vn 0.707104 0.000000 0.707110
vn 0.707104 0.000000 0.707110
vn 0.707104 0.000000 0.707110
vn 0.707104 0.000000 0.707110
vn -0.707104 0.000000 0.707110
vn -0.707104 0.000000 0.707110
vn -0.707104 0.000000 0.707110
vn -0.707104 0.000000 0.707110
s off
g Cabinet_Vertical_Shelf
f 6/9/1 7/7/2 12/12/3 9/8/4
f 10/11/5 11/4/6 2/5/7 1/6/8
f 3/1/9 4/2/10 8/10/11 5/3/12
f 6/9/13 5/3/14 8/10/15 7/7/16
f 10/11/17 9/8/18 12/12/19 11/4/20
