# This file uses centimeters as units for non-parametric coordinates.

g default
v 0.000000 0.000000 0.000000
v 0.000000 0.027653 0.027653
v -0.027653 0.027653 0.000000
v 14.775583 0.027653 0.000000
v 14.747931 0.027653 0.027653
v 14.747931 0.000000 0.000000
v -0.027653 0.525456 -0.000000
v 0.000000 0.525456 0.027652
v 0.000000 0.553108 -0.000000
v 14.747931 0.553108 -0.000000
v 14.747931 0.525456 0.027652
v 14.775583 0.525456 -0.000000
v -0.027653 0.525456 -10.668908
v 0.000000 0.553108 -10.668908
v 14.747931 0.553108 -10.668908
v 14.775583 0.525456 -10.668908
v 0.000000 0.000000 -10.668907
v -0.027653 0.027653 -10.668907
v 14.775583 0.027653 -10.668907
v 14.747931 0.000000 -10.668907
vt 0.599620 0.694439
vt 0.600534 0.407158
vt 0.600359 0.694441
vt 0.600343 0.695926
vt 0.599365 0.709301
vt 0.995063 0.694397
vt 0.994324 0.694397
vt 0.995215 0.408444
vt 0.995954 0.408446
vt 0.995066 0.695881
vt 0.599350 0.710786
vt 0.599325 0.997159
vt 0.598586 0.997157
vt 0.600104 0.709301
vt 0.994429 0.709252
vt 0.995172 0.710740
vt 0.994434 0.998250
vt 0.994327 0.695881
vt 0.600090 0.710786
vt 0.994433 0.710738
vt 0.993694 0.998248
vt 0.601272 0.407160
vt 0.326771 0.402941
vt 0.592909 0.408120
vt 0.593191 0.421293
vt 0.326868 0.416311
vt 0.324106 0.428174
vt 0.593455 0.431106
vt 0.593230 0.444480
vt 0.324001 0.441578
vt 0.599604 0.695926
vt 0.995169 0.709252
vn -0.707101 -0.707113 0.000000
vn -0.707101 -0.707113 0.000000
vn -0.707101 -0.707113 0.000000
vn -0.707101 -0.707113 0.000000
vn 0.000000 -0.707108 0.707106
vn 0.000000 -0.707108 0.707106
vn 0.000000 -0.707108 0.707106
vn 0.000000 -0.707108 0.707106
vn -0.707106 0.000001 0.707108
vn -0.707106 0.000001 0.707108
vn -0.707106 0.000001 0.707108
vn -0.707106 0.000001 0.707108
vn 0.707105 -0.707109 0.000000
vn 0.707105 -0.707109 0.000000
vn 0.707105 -0.707109 0.000000
vn 0.707105 -0.707109 0.000000
vn 0.707106 0.000001 0.707108
vn 0.707106 0.000001 0.707108
vn 0.707106 0.000001 0.707108
vn 0.707106 0.000001 0.707108
vn -0.707100 0.707113 0.000000
vn -0.707100 0.707113 0.000000
vn -0.707100 0.707113 0.000000
vn -0.707100 0.707113 0.000000
vn 0.000000 0.707108 0.707105
vn 0.000000 0.707108 0.707105
vn 0.000000 0.707108 0.707105
vn 0.000000 0.707108 0.707105
vn 0.707105 0.707109 0.000000
vn 0.707105 0.707109 0.000000
vn 0.707105 0.707109 0.000000
vn 0.707105 0.707109 0.000000
vn 0.000000 0.000001 1.000000
vn 0.000000 0.000001 1.000000
vn 0.000000 0.000001 1.000000
vn 0.000000 0.000001 1.000000
vn 0.000000 1.000000 0.000000
vn 0.000000 1.000000 0.000000
vn 0.000000 1.000000 0.000000
vn 0.000000 1.000000 0.000000
vn 0.000000 -1.000000 0.000000
vn 0.000000 -1.000000 0.000000
vn 0.000000 -1.000000 0.000000
vn 0.000000 -1.000000 0.000000
vn 1.000000 0.000000 0.000000
vn 1.000000 0.000000 0.000000
vn 1.000000 0.000000 0.000000
vn 1.000000 0.000000 0.000000
vn -1.000000 0.000000 0.000000
vn -1.000000 0.000000 0.000000
vn -1.000000 0.000000 0.000000
vn -1.000000 0.000000 0.000000
vn -0.577364 -0.577342 0.577345
vn -0.577364 -0.577342 0.577345
vn -0.577364 -0.577342 0.577345
vn 0.577349 -0.577349 0.577352
vn 0.577349 -0.577349 0.577352
vn 0.577349 -0.577349 0.577352
vn -0.577350 0.577350 0.577351
vn -0.577350 0.577350 0.577351
vn -0.577350 0.577350 0.577351
vn 0.577350 0.577350 0.577351
vn 0.577350 0.577350 0.577351
vn 0.577350 0.577350 0.577351
s off
g Cabinet_Horizontal_Shelf
f 1/3/1 3/1/2 18/2/3 17/22/4
f 2/4/5 1/3/6 6/7/7 5/18/8
f 3/31/9 2/4/10 8/14/11 7/5/12
f 4/6/13 6/7/14 20/8/15 19/9/16
f 5/18/17 4/10/18 12/32/19 11/15/20
f 7/11/21 9/19/22 14/12/23 13/13/24
f 9/19/25 8/14/26 11/15/27 10/20/28
f 10/20/29 12/16/30 16/17/31 15/21/32
f 2/4/33 5/18/34 11/15/35 8/14/36
f 9/19/37 10/20/38 15/21/39 14/12/40
f 1/3/41 17/22/42 20/8/43 6/7/44
f 4/23/45 19/24/46 16/25/47 12/26/48
f 18/27/49 3/28/50 7/29/51 13/30/52
f 1/3/53 2/4/54 3/31/55
f 4/10/56 5/18/57 6/7/58
f 7/5/59 8/14/60 9/19/61
f 10/20/62 11/15/63 12/32/64
