# This file uses centimeters as units for non-parametric coordinates.

g default
v 0.000000 0.000000 0.000000
v 7.232701 0.000000 0.000000
v 0.000000 10.574563 0.000000
v 7.232701 10.574563 0.000000
v 0.000000 10.574563 -0.266700
v 7.232701 10.574563 -0.266700
v 0.000000 0.000000 -0.266700
v 7.232701 0.000000 -0.266700
v 6.238643 0.000000 0.000000
v 6.238643 0.000000 -0.266700
v 6.238643 10.574563 -0.266700
v 6.238643 10.574563 0.000000
v 0.984497 0.000000 0.000000
v 0.984497 0.000000 -0.266700
v 0.984497 10.574563 -0.266700
v 0.984497 10.574563 0.000000
v 0.000000 9.666400 0.000000
v 1.092701 9.557515 0.189745
v 6.121985 9.557515 0.189745
v 7.232701 9.666400 0.000000
v 7.232701 9.666400 -0.266700
v 0.000000 9.666400 -0.266700
v 0.000000 0.902720 0.000000
v 1.092701 1.024782 0.189745
v 6.121985 1.024782 0.189745
v 7.232701 0.902720 0.000000
v 7.232701 0.902720 -0.266700
v 0.000000 0.902720 -0.266700
v 1.092701 9.124494 0.189745
v 0.000000 9.124492 0.000000
v 0.000000 9.124492 -0.266700
v 7.232701 9.124492 -0.266700
v 7.232701 9.124492 0.000000
v 6.121985 9.124494 0.189745
v 1.485764 0.000000 0.000000
v 1.485764 0.000000 -0.266700
v 1.485764 10.574563 -0.266700
v 1.485764 10.574563 0.000000
v 1.487153 9.557515 0.189745
v 1.503270 9.130876 0.189745
v 1.487153 1.024782 0.189745
v 5.746053 0.000000 -0.266700
v 5.746053 0.000000 0.000000
v 5.746052 1.024782 0.189745
v 5.739899 9.130876 0.189745
v 5.746052 9.557515 0.189745
v 5.746053 10.574563 0.000000
v 5.746053 10.574563 -0.266700
v 0.000000 1.428262 0.000000
v 1.092700 1.428260 0.189745
v 1.503270 1.430085 0.189745
v 5.739899 1.430085 0.189745
v 6.121985 1.428260 0.189745
v 7.232701 1.428262 0.000000
v 7.232701 1.428263 -0.266700
v 0.000000 1.428263 -0.266700
v 7.232701 9.666400 0.301243
v 7.124277 9.666400 0.409666
v 7.124277 10.466140 0.409666
v 7.232701 10.574563 0.301243
v 6.238643 10.466140 0.409666
v 6.238643 10.574563 0.301243
v 1.092701 9.557515 0.301243
v 0.984497 9.666404 0.409666
v 1.487153 9.673142 0.409666
v 1.487153 9.557515 0.301243
v 0.984497 10.466140 0.409666
v 0.984497 10.574563 0.301243
v 1.485764 10.574563 0.301243
v 1.485764 10.466140 0.409666
v 0.108423 10.466140 0.409666
v 0.000000 10.574563 0.301243
v 0.108423 9.666400 0.409666
v 0.000000 9.666400 0.301243
v 1.092701 9.124494 0.301243
v 0.989087 9.124494 0.409666
v 0.108423 0.902720 0.409666
v 0.000000 0.902720 0.301243
v 0.000000 1.428262 0.301243
v 0.108423 1.428262 0.409666
v 6.121985 9.557515 0.301243
v 6.225600 9.666404 0.409666
v 6.225600 9.124494 0.409666
v 6.121985 9.124494 0.301243
v 7.232701 0.902720 0.275290
v 7.125782 0.902720 0.385198
v 7.125782 1.428262 0.385198
v 7.232701 1.428262 0.275290
v 0.000000 0.000000 0.301243
v 0.108423 0.108423 0.409666
v 0.984497 0.108423 0.409666
v 0.984497 0.000000 0.301243
v 0.984497 0.902720 0.409666
v 1.092701 1.024782 0.301243
v 1.487153 1.024782 0.301243
v 1.487153 0.909155 0.409666
v 1.485764 0.108423 0.409666
v 1.485764 0.000000 0.301243
v 6.237148 0.000000 0.301243
v 6.238643 0.108423 0.409666
v 7.125782 0.106958 0.385198
v 7.232701 0.000000 0.274548
v 0.989085 1.428260 0.409666
v 1.092700 1.428260 0.301243
v 0.108423 9.124492 0.409666
v 0.000000 9.124492 0.301243
v 7.232701 9.124492 0.301242
v 7.124277 9.124492 0.409666
v 6.121985 1.428260 0.299716
v 6.227019 1.428260 0.406635
v 5.746053 10.466140 0.409666
v 5.746053 10.574563 0.301243
v 5.746052 9.557515 0.301243
v 5.746052 9.673142 0.409666
v 5.746052 0.909155 0.409666
v 5.746052 1.024782 0.301243
v 5.746053 0.000000 0.301243
v 5.746053 0.108423 0.409666
v 6.121985 1.025584 0.300480
v 6.227019 0.902720 0.406635
v 1.620409 1.545713 0.409667
v 1.503270 1.430085 0.301244
v 5.643185 1.545713 0.409667
v 5.739899 1.430085 0.301244
v 5.643185 9.015246 0.409667
v 5.739899 9.130876 0.301244
v 1.620409 9.015246 0.409667
v 1.503270 9.130876 0.301244
vt 0.258091 0.992751
vt 0.258091 0.992751
vt 0.297990 0.992751
vt 0.297990 0.992751
vt 0.258091 0.528694
vt 0.258091 0.528694
vt 0.297990 0.528694
vt 0.297990 0.528694
vt 0.297990 0.952897
vt 0.297990 0.952897
vt 0.007688 0.952897
vt 0.007688 0.952897
vt 0.007688 0.992751
vt 0.007688 0.992751
vt 0.067323 0.528694
vt 0.067323 0.528694
vt 0.238320 0.528694
vt 0.238320 0.528694
vt 0.067323 0.992751
vt 0.067323 0.992751
vt 0.238320 0.992751
vt 0.238320 0.992751
vt 0.007688 0.528694
vt 0.047203 0.528694
vt 0.047203 0.528694
vt 0.007688 0.528694
vt 0.047203 0.992751
vt 0.047203 0.992751
vt 0.297990 0.591372
vt 0.297990 0.591372
vt 0.297990 0.929115
vt 0.297990 0.929115
vt 0.007688 0.591372
vt 0.007688 0.591372
vt 0.007688 0.929115
vt 0.007688 0.929115
vt 0.297990 0.568309
vt 0.297990 0.568309
vt 0.007688 0.568309
vt 0.007688 0.568309
vt 0.238073 0.929396
vt 0.238320 0.948118
vt 0.067378 0.948118
vt 0.068025 0.929396
vt 0.051546 0.948118
vt 0.051546 0.929116
vt 0.051546 0.591372
vt 0.068025 0.591452
vt 0.253409 0.929116
vt 0.238073 0.591452
vt 0.253409 0.591372
vt 0.253409 0.948118
vt 0.067378 0.573666
vt 0.051546 0.573666
vt 0.238320 0.573666
vt 0.253409 0.573666
vt 0.068025 0.591452
vt 0.072727 0.596527
vt 0.072727 0.924321
vt 0.068025 0.929396
vt 0.297990 0.952897
vt 0.293639 0.952897
vt 0.293639 0.929115
vt 0.297990 0.929115
vt 0.297990 0.992751
vt 0.293639 0.987993
vt 0.258091 0.992751
vt 0.258091 0.987993
vt 0.238320 0.992751
vt 0.238320 0.987993
vt 0.051546 0.948118
vt 0.047203 0.952897
vt 0.047387 0.929116
vt 0.051546 0.929116
vt 0.067378 0.948118
vt 0.067378 0.953193
vt 0.238320 0.948118
vt 0.238320 0.953193
vt 0.047203 0.987993
vt 0.047203 0.992751
vt 0.007688 0.992751
vt 0.012040 0.987993
vt 0.067323 0.987993
vt 0.067323 0.992751
vt 0.007688 0.952897
vt 0.012040 0.952897
vt 0.007688 0.929115
vt 0.012040 0.929115
vt 0.047387 0.591372
vt 0.051546 0.591372
vt 0.012040 0.568309
vt 0.007688 0.568309
vt 0.007688 0.528694
vt 0.012040 0.533452
vt 0.012040 0.591372
vt 0.007688 0.591372
vt 0.253409 0.948118
vt 0.257568 0.952897
vt 0.253409 0.929116
vt 0.257568 0.929116
vt 0.253409 0.591372
vt 0.257625 0.591372
vt 0.297990 0.568309
vt 0.293699 0.568309
vt 0.293699 0.533388
vt 0.297990 0.528694
vt 0.297990 0.591372
vt 0.293699 0.591372
vt 0.047203 0.528694
vt 0.047203 0.533452
vt 0.067323 0.528694
vt 0.067323 0.533452
vt 0.047203 0.568309
vt 0.051546 0.573666
vt 0.067378 0.568591
vt 0.067378 0.573666
vt 0.238320 0.568591
vt 0.238320 0.573666
vt 0.238320 0.528694
vt 0.238320 0.533452
vt 0.258032 0.528694
vt 0.258091 0.533452
vt 0.253409 0.573701
vt 0.257625 0.568309
vt 0.238073 0.591452
vt 0.234191 0.596527
vt 0.238073 0.929396
vt 0.234191 0.924321
vn 0.000000 1.000000 0.000000
vn 0.000000 1.000000 0.000000
vn 0.000000 1.000000 0.000000
vn 0.000000 1.000000 0.000000
vn 0.000000 -1.000000 -0.000000
vn 0.000000 -1.000000 0.000000
vn 0.000000 -1.000000 0.000000
vn 0.000000 -1.000000 0.000001
vn 1.000000 0.000000 0.000000
vn 1.000000 0.000000 0.000000
vn 1.000000 0.000000 0.000000
vn 1.000000 0.000000 0.000000
vn -1.000000 0.000000 0.000000
vn -1.000000 0.000000 0.000000
vn -1.000000 0.000000 0.000000
vn -1.000000 0.000000 0.000000
vn 0.000000 -1.000000 0.000000
vn 0.000000 -1.000000 0.000000
vn 0.000000 -1.000000 0.000000
vn 0.000000 -1.000000 -0.000000
vn 0.000000 1.000000 0.000000
vn 0.000000 1.000000 0.000000
vn 0.000000 1.000000 0.000000
vn 0.000000 1.000000 0.000000
vn 0.000000 -1.000000 0.000000
vn 0.000000 -1.000000 0.000000
vn 0.000000 -1.000000 0.000000
vn 0.000000 -1.000000 0.000000
vn 0.000000 1.000000 0.000000
vn 0.000000 1.000000 0.000000
vn 0.000000 1.000000 0.000000
vn 0.000000 1.000000 0.000000
vn 1.000000 -0.000000 0.000000
vn 1.000000 0.000000 0.000000
vn 1.000000 0.000000 0.000000
vn 1.000000 0.000000 0.000000
vn -1.000000 0.000000 0.000000
vn -1.000000 0.000000 0.000000
vn -1.000000 0.000000 0.000000
vn -1.000000 0.000000 0.000000
vn 1.000000 0.000000 0.000000
vn 1.000000 0.000000 0.000000
vn 1.000000 0.000000 0.000000
vn 1.000000 0.000000 0.000000
vn -1.000000 0.000000 0.000000
vn -1.000000 0.000000 0.000000
vn -1.000000 0.000000 0.000000
vn -1.000000 0.000000 0.000000
vn 0.000000 0.000000 1.000000
vn 0.000000 0.000000 1.000000
vn -0.000000 0.000000 1.000000
vn -0.000000 0.000000 1.000000
vn -0.000000 0.000000 1.000000
vn -0.000000 0.000000 1.000000
vn 0.000000 0.000000 1.000000
vn 0.000000 0.000000 1.000000
vn 0.000000 0.000000 1.000000
vn 0.000000 0.000000 1.000000
vn 0.000000 0.000000 1.000000
vn 0.000000 0.000000 1.000000
vn 0.000000 0.000000 1.000000
vn 0.000000 0.000000 1.000000
vn 0.000000 0.000000 1.000000
vn 0.000000 0.000000 1.000000
vn -0.884100 -0.000000 0.467297
vn -0.884100 -0.000000 0.467297
vn -0.884100 -0.000000 0.467297
vn -0.884100 -0.000000 0.467297
vn -0.884100 -0.000000 0.467297
vn -0.884100 -0.000000 0.467297
vn 0.707106 -0.000000 0.707107
vn 0.707106 -0.000000 0.707107
vn 0.711645 -0.002084 0.702537
vn 0.711645 -0.002084 0.702536
vn 0.707107 0.000000 0.707107
vn 0.707107 0.000000 0.707107
vn 0.000000 0.707110 0.707103
vn 0.000000 0.707110 0.707103
vn 0.000000 0.707110 0.707103
vn 0.000000 0.707110 0.707103
vn 0.000000 0.707107 0.707106
vn 0.000000 0.707107 0.707106
vn 0.716191 0.003372 0.697896
vn 0.716191 0.003372 0.697896
vn 0.722550 0.000203 0.691319
vn 0.722552 0.000202 0.691317
vn 0.005208 -0.693404 0.720530
vn 0.005208 -0.693404 0.720530
vn 0.000490 -0.684910 0.728627
vn 0.000487 -0.684905 0.728632
vn -0.000492 -0.684873 0.728663
vn -0.000489 -0.684868 0.728667
vn 0.000000 0.707107 0.707106
vn 0.000000 0.707107 0.707106
vn 0.000000 0.707107 0.707106
vn 0.000000 0.707107 0.707106
vn 0.000000 0.707107 0.707107
vn 0.000000 0.707107 0.707107
vn -0.707109 0.000000 0.707105
vn -0.707109 0.000000 0.707105
vn -0.707108 0.000000 0.707106
vn -0.707108 0.000000 0.707106
vn -0.707107 0.000000 0.707107
vn -0.707107 0.000000 0.707107
vn 0.722577 -0.000204 0.691291
vn 0.722578 -0.000203 0.691289
vn -0.707108 0.000000 0.707106
vn -0.707108 0.000000 0.707106
vn -0.707109 0.000000 0.707105
vn -0.707109 0.000000 0.707105
vn -0.707107 0.000000 0.707107
vn -0.707107 0.000000 0.707107
vn -0.005462 -0.693405 0.720527
vn -0.005462 -0.693405 0.720527
vn -0.722957 0.000000 0.690893
vn -0.722957 0.000000 0.690893
vn -0.718465 -0.000256 0.695563
vn -0.718466 -0.000256 0.695563
vn -0.717828 -0.000224 0.696221
vn -0.717828 -0.000224 0.696221
vn 0.717468 -0.000188 0.696592
vn 0.717468 -0.000188 0.696592
vn 0.717888 -0.000304 0.696158
vn 0.717888 -0.000304 0.696158
vn 0.712273 -0.002088 0.701899
vn 0.712272 -0.002088 0.701900
vn 0.000000 -0.707107 0.707106
vn 0.000000 -0.707107 0.707106
vn 0.000000 -0.707107 0.707106
vn 0.000000 -0.707107 0.707106
vn 0.000000 -0.707107 0.707107
vn 0.000000 -0.707107 0.707107
vn 0.716340 -0.003537 0.697742
vn 0.716340 -0.003537 0.697742
vn -0.004843 0.675170 0.737647
vn -0.004843 0.675170 0.737647
vn -0.000469 0.683166 0.730263
vn -0.000467 0.683170 0.730259
vn 0.000713 0.682796 0.730609
vn 0.000712 0.682798 0.730607
vn 0.000000 -0.707107 0.707107
vn 0.000000 -0.707107 0.707107
vn 0.012209 -0.708027 0.706080
vn 0.012207 -0.708027 0.706080
vn 0.018621 -0.708469 0.705496
vn 0.018621 -0.708469 0.705496
vn -0.711946 0.000578 0.702234
vn -0.711946 0.000578 0.702234
vn 0.007692 0.670704 0.741685
vn 0.007692 0.670704 0.741685
vn 0.000000 -0.684012 0.729470
vn 0.000000 -0.684012 0.729471
vn 0.000000 -0.684012 0.729471
vn 0.000000 -0.684012 0.729471
vn 0.746249 0.000000 0.665667
vn 0.746249 0.000000 0.665667
vn 0.746249 0.000000 0.665667
vn 0.746249 0.000000 0.665667
vn 0.000000 0.684006 0.729476
vn 0.000000 0.684006 0.729476
vn 0.000000 0.684006 0.729476
vn 0.000000 0.684006 0.729476
vn 0.000000 0.000000 1.000000
vn 0.000000 0.000000 1.000000
vn 0.000000 0.000000 1.000000
vn 0.000000 0.000000 1.000000
vn -0.000000 0.000000 1.000000
vn -0.000000 0.000000 1.000000
vn 0.000000 0.000000 1.000000
vn 0.000000 0.000000 1.000000
vn -0.000000 0.000000 1.000000
vn -0.000000 0.000000 1.000000
vn -0.000000 0.000000 1.000000
vn 0.000000 0.000000 1.000000
vn -0.000000 0.000000 1.000000
vn -0.000000 0.000000 1.000000
vn -0.000000 0.000000 1.000000
vn -0.000000 0.000000 1.000000
vn 0.000000 0.000000 1.000000
vn 0.000000 0.000000 1.000000
vn 0.000000 0.000000 1.000000
vn 0.000000 0.000000 1.000000
vn 0.011141 -0.001667 0.999937
vn 0.011141 -0.001667 0.999937
vn 0.012687 -0.001670 0.999918
vn 0.012687 -0.001670 0.999918
vn 0.000000 0.000000 1.000000
vn 0.000000 0.000000 1.000000
vn -0.000000 0.000000 1.000000
vn -0.000000 0.000000 1.000000
vn 0.000319 0.000197 1.000000
vn 0.000317 0.000195 1.000000
vn 0.000000 0.000000 1.000000
vn 0.000000 0.000000 1.000000
vn 0.024957 0.001257 0.999688
vn 0.019465 0.001421 0.999810
vn 0.017822 0.002034 0.999839
vn 0.025697 0.002094 0.999668
vn 1.000000 0.000000 0.000000
vn 1.000000 0.000000 0.000000
vn 0.000000 1.000000 0.000000
vn 0.000000 1.000000 0.000000
vn 0.000000 -1.000000 0.000000
vn 0.000000 -1.000000 0.000000
vn 0.000000 -1.000000 0.000000
vn 0.000000 -1.000000 0.000000
vn 0.000000 1.000000 0.000000
vn 0.000000 1.000000 0.000000
vn 0.000000 1.000000 0.000000
vn 0.000000 1.000000 0.000000
vn -1.000000 0.000000 0.000000
vn -1.000000 0.000000 0.000000
vn 1.000000 -0.000000 0.000000
vn 1.000000 -0.000000 0.000000
vn 1.000000 -0.000000 0.000000
vn 1.000000 -0.000000 0.000000
vn -1.000000 0.000000 0.000000
vn -1.000000 0.000000 0.000000
vn -1.000000 -0.000000 0.000000
vn -1.000000 -0.000000 0.000000
vn -1.000000 -0.000000 0.000000
vn -1.000000 -0.000000 0.000000
vn 1.000000 -0.000000 0.000000
vn 1.000000 0.000000 0.000000
vn 0.000000 -1.000000 0.000000
vn 0.000000 -1.000000 0.000000
vn -1.000000 0.000000 0.000000
vn -1.000000 0.000000 0.000000
vn -0.000086 1.000000 -0.000291
vn -0.000087 1.000000 -0.000292
vn 0.000000 1.000000 0.000000
vn 0.000000 1.000000 0.000000
vn 0.000000 -1.000000 0.000000
vn 0.000000 -1.000000 -0.000000
vn 0.000000 -1.000000 0.000001
vn 0.000000 -1.000000 -0.000000
vn 1.000000 0.000000 0.000000
vn 1.000000 0.000000 0.000000
vn 1.000000 0.000000 0.000000
vn 1.000000 0.000000 0.000000
vn -1.000000 0.000000 0.000000
vn -1.000000 0.000000 0.000000
vn 0.000000 -1.000000 0.000000
vn 0.000000 -1.000000 0.000000
vn 0.000000 1.000000 0.000000
vn 0.000000 1.000000 0.000000
vn -0.001070 0.999993 -0.003607
vn -0.001070 0.999993 -0.003607
vn 0.000000 -1.000000 0.000000
vn 0.000000 -1.000000 0.000000
vn 1.000000 0.000003 0.000000
vn 1.000000 0.000003 0.000000
vn -1.000000 -0.000000 0.000000
vn -1.000000 -0.000000 0.000000
vn 0.000000 -1.000000 0.000000
vn 0.000000 -1.000000 0.000000
vn 0.000000 -1.000000 0.000000
vn 0.000000 -1.000000 0.000000
vn 1.000000 0.000000 0.000000
vn 1.000000 0.000000 0.000000
vn 1.000000 0.000000 0.000000
vn 1.000000 0.000000 0.000000
vn 0.000000 1.000000 0.000000
vn 0.000000 1.000000 0.000000
vn 0.000000 1.000000 0.000000
vn 0.000000 1.000000 0.000000
s 1
g KitchenCabinet_Door_LP
f 11/1/1 12/2/2 4/3/3 6/4/4
s 2
f 9/5/5 10/6/6 8/7/7 2/8/8
s 3
f 20/9/9 21/10/10 6/4/11 4/3/12
s 4
f 22/11/13 17/12/14 3/13/15 5/14/16
s 2
f 35/15/17 36/16/18 42/17/19 43/18/20
s 1
f 37/19/21 38/20/22 47/21/23 48/22/24
s 2
f 7/23/25 14/24/26 13/25/27 1/26/28
s 1
f 3/13/29 16/27/30 15/28/31 5/14/32
s 3
f 54/29/33 55/30/34 32/31/35 33/32/36
s 4
f 56/33/37 49/34/38 30/35/39 31/36/40
s 3
f 2/8/41 8/7/42 27/37/43 26/38/44
s 4
f 7/23/45 1/26/46 23/39/47 28/40/48
f 31/36/40 30/35/39 17/12/14 22/11/13
s 3
f 33/32/36 32/31/35 21/10/10 20/9/9
s 11
f 45/41/49 46/42/50 39/43/51 40/44/52
s 2
f 13/25/27 14/24/26 36/16/18 35/15/17
s 1
f 15/28/31 16/27/30 38/20/22 37/19/21
s 11
f 40/44/52 39/43/51 18/45/53 29/46/54
f 50/47/55 51/48/56 40/44/52 29/46/54
s 2
f 43/18/20 42/17/19 10/6/6 9/5/5
s 11
f 34/49/57 45/41/49 52/50/58 53/51/59
f 19/52/60 46/42/50 45/41/49 34/49/57
s 1
f 48/22/24 47/21/23 12/2/2 11/1/1
s 11
f 41/53/61 51/48/56 50/47/55 24/54/62
f 44/55/63 52/50/58 51/48/56 41/53/61
f 53/51/59 52/50/58 44/55/63 25/56/64
s 3
f 26/38/44 27/37/43 55/30/34 54/29/33
s 4
f 28/40/48 23/39/47 49/34/38 56/33/37
s off
f 40/44/65 51/48/66 122/57/67 121/58/68 127/59/69 128/60/70
s 12
f 57/61/71 58/62/72 108/63/73 107/64/74
f 58/62/72 57/61/71 60/65/75 59/66/76
s 13
f 59/66/77 60/65/78 62/67/79 61/68/80
f 61/68/80 62/67/79 112/69/81 111/70/82
s 14
f 63/71/83 64/72/84 76/73/85 75/74/86
s 15
f 64/72/87 63/71/88 66/75/89 65/76/90
f 65/76/90 66/75/89 113/77/91 114/78/92
s 13
f 67/79/93 68/80/94 72/81/95 71/82/96
f 68/80/94 67/79/93 70/83/97 69/84/98
f 69/84/98 70/83/97 111/70/82 112/69/81
s 17
f 71/82/99 72/81/100 74/85/101 73/86/102
f 73/86/102 74/85/101 106/87/103 105/88/104
s 14
f 75/74/86 76/73/85 103/89/105 104/90/106
s 17
f 77/91/107 78/92/108 89/93/109 90/94/110
f 78/92/108 77/91/107 80/95/111 79/96/112
f 79/96/112 80/95/111 105/88/104 106/87/103
s 15
f 81/97/113 82/98/114 114/78/92 113/77/91
s 19
f 82/98/115 81/97/116 84/99/117 83/100/118
f 83/100/118 84/99/117 109/101/119 110/102/120
s 12
f 85/103/121 86/104/122 101/105/123 102/106/124
f 86/104/122 85/103/121 88/107/125 87/108/126
f 87/108/126 88/107/125 107/64/74 108/63/73
s 21
f 90/94/127 89/93/128 92/109/129 91/110/130
f 91/110/130 92/109/129 98/111/131 97/112/132
s 14
f 93/113/133 94/114/134 104/90/106 103/89/105
s 22
f 94/114/135 93/113/136 96/115/137 95/116/138
f 95/116/138 96/115/137 115/117/139 116/118/140
s 21
f 97/112/132 98/111/131 117/119/141 118/120/142
f 99/121/143 100/122/144 118/120/142 117/119/141
f 100/122/144 99/121/143 102/106/145 101/105/146
s 19
f 110/102/120 109/101/119 119/123/147 120/124/148
s 22
f 116/118/140 115/117/139 120/124/149 119/123/150
s off
f 121/58/151 122/57/152 124/125/153 123/126/154
f 123/126/155 124/125/156 126/127/157 125/128/158
f 125/128/159 126/127/160 128/60/161 127/59/162
s 23
f 61/68/163 82/98/164 58/62/165 59/66/166
f 70/83/167 65/76/168 114/78/169 111/70/170
f 73/86/171 64/72/172 67/79/173 71/82/174
f 80/95/175 103/89/176 76/73/177 105/88/178
s off
f 121/58/179 123/126/180 125/128/181 127/59/182
s 23
f 108/63/183 83/100/184 110/102/185 87/108/186
f 90/94/187 91/110/188 93/113/189 77/91/190
f 118/120/191 115/117/192 96/115/193 97/112/194
f 86/104/195 120/124/196 100/122/197 101/105/198
s 3
f 20/9/9 4/3/12 60/65/199 57/61/200
s 1
f 4/3/3 12/2/2 62/67/201 60/65/202
s 29
f 66/75/203 39/43/204 46/42/205 113/77/206
s 1
f 112/69/207 47/21/23 38/20/22 69/84/208
f 16/27/30 3/13/29 72/81/209 68/80/210
s 4
f 3/13/15 17/12/14 74/85/211 72/81/212
s 30
f 104/90/213 50/47/214 29/46/215 75/74/216
s 4
f 106/87/217 30/35/39 49/34/38 79/96/218
s 31
f 84/99/219 34/49/220 53/51/221 109/101/222
s 3
f 88/107/223 54/29/33 33/32/36 107/64/224
s 2
f 1/26/28 13/25/27 92/109/225 89/93/226
s 4
f 23/39/47 1/26/46 89/93/227 78/92/228
s 32
f 116/118/229 44/55/230 41/53/231 95/116/232
s 2
f 98/111/233 35/15/17 43/18/20 117/119/234
f 9/5/5 2/8/8 102/106/235 99/121/236
s 3
f 2/8/41 26/38/44 85/103/237 102/106/238
s 30
f 75/74/216 29/46/215 18/45/239 63/71/240
s 23
f 105/88/178 76/73/177 64/72/172 73/86/171
s 4
f 17/12/14 30/35/39 106/87/217 74/85/211
s 3
f 107/64/224 33/32/36 20/9/9 57/61/200
s 23
f 58/62/165 82/98/164 83/100/184 108/63/183
s 31
f 19/52/241 34/49/220 84/99/219 81/97/242
s 1
f 69/84/208 38/20/22 16/27/30 68/80/210
s 23
f 67/79/173 64/72/172 65/76/168 70/83/167
s 29
f 18/45/243 39/43/204 66/75/203 63/71/244
s 32
f 95/116/232 41/53/231 24/54/245 94/114/246
s 23
f 97/112/194 96/115/193 93/113/189 91/110/188
s 2
f 13/25/27 35/15/17 98/111/233 92/109/225
f 117/119/234 43/18/20 9/5/5 99/121/236
s 23
f 120/124/196 115/117/192 118/120/191 100/122/197
s 32
f 25/56/247 44/55/230 116/118/229 119/123/248
s 29
f 113/77/206 46/42/205 19/52/249 81/97/250
s 23
f 111/70/170 114/78/169 82/98/164 61/68/163
s 1
f 12/2/2 47/21/23 112/69/207 62/67/201
s 4
f 79/96/218 49/34/38 23/39/47 78/92/228
s 23
f 77/91/190 93/113/189 103/89/176 80/95/175
s 30
f 24/54/251 50/47/214 104/90/213 94/114/252
s 31
f 109/101/222 53/51/221 25/56/253 119/123/254
s 23
f 87/108/186 110/102/185 120/124/196 86/104/195
s 3
f 26/38/44 54/29/33 88/107/223 85/103/237
s off
f 51/48/255 52/50/256 124/125/257 122/57/258
f 52/50/259 45/41/260 126/127/261 124/125/262
f 45/41/263 40/44/264 128/60/265 126/127/266
