# This file uses centimeters as units for non-parametric coordinates.

g default
v -0.500000 -0.500000 0.500000
v 0.500000 -0.500000 0.500000
v -0.500000 0.500000 0.500000
v 0.500000 0.500000 0.500000
v -0.500000 0.500000 -0.500000
v 0.500000 0.500000 -0.500000
v -0.500000 -0.500000 -0.500000
v 0.500000 -0.500000 -0.500000
v -0.500000 0.375000 -0.500000
v 0.500000 0.375000 -0.500000
v 0.500000 0.375000 0.500000
v -0.500000 0.375000 0.500000
v -0.500000 -0.375000 0.500000
v 0.500000 -0.375000 0.500000
v 0.500000 -0.375000 -0.500000
v -0.500000 -0.375000 -0.500000
v -0.500000 0.500000 0.375000
v 0.500000 0.500000 0.375000
v 0.500000 0.375000 0.375000
v 0.500000 -0.375000 0.375000
v 0.500000 -0.500000 0.375000
v -0.500000 -0.500000 0.375000
v -0.500000 -0.375000 0.375000
v -0.500000 0.375000 0.375000
v -0.500000 -0.500000 -0.375000
v 0.500000 -0.500000 -0.375000
v 0.500000 -0.375000 -0.375000
v 0.500000 0.375000 -0.375000
v 0.500000 0.500000 -0.375000
v -0.500000 0.500000 -0.375000
v -0.500000 0.375000 -0.375000
v -0.500000 -0.375000 -0.375000
v 0.375000 -0.375000 -0.500000
v 0.375000 -0.500000 -0.500000
v 0.375000 -0.500000 -0.375000
v 0.375000 -0.500000 0.375000
v 0.375000 -0.500000 0.500000
v 0.375000 -0.375000 0.500000
v 0.375000 0.375000 0.500000
v 0.375000 0.500000 0.500000
v 0.375000 0.500000 0.375000
v 0.375000 0.500000 -0.375000
v 0.375000 0.500000 -0.500000
v 0.375000 0.375000 -0.500000
v -0.375000 -0.500000 0.500000
v -0.375000 -0.500000 0.375000
v -0.375000 -0.500000 -0.375000
v -0.375000 -0.500000 -0.500000
v -0.375000 -0.375000 -0.500000
v -0.375000 0.375000 -0.500000
v -0.375000 0.500000 -0.500000
v -0.375000 0.500000 -0.375000
v -0.375000 0.500000 0.375000
v -0.375000 0.500000 0.500000
v -0.375000 0.375000 0.500000
v -0.375000 -0.375000 0.500000
v -0.350473 0.350473 0.467298
v -0.350473 -0.350473 0.467298
v 0.350473 -0.350473 0.467298
v 0.350473 0.350473 0.467298
v -0.350473 0.467298 -0.350473
v -0.350473 0.467298 0.350473
v 0.350473 0.467298 0.350473
v 0.350473 0.467298 -0.350473
v 0.350473 -0.467298 -0.350473
v 0.350473 -0.467298 0.350473
v -0.350473 -0.467298 0.350473
v -0.350473 -0.467298 -0.350473
v -0.467298 0.350473 -0.350473
v -0.467298 -0.350473 -0.350473
v -0.467298 -0.350473 0.350473
v -0.467298 0.350473 0.350473
v 0.467298 0.350473 0.350473
v 0.467298 -0.350473 0.350473
v 0.467298 -0.350473 -0.350473
v 0.467298 0.350473 -0.350473
v 0.350473 0.350473 -0.467298
v 0.350473 -0.350473 -0.467298
v -0.350473 -0.350473 -0.467298
v -0.350473 0.350473 -0.467298
vt 0.004890 0.786046
vt 0.004890 0.588675
vt 0.202262 0.588675
vt 0.202262 0.786046
vt 0.423689 0.786619
vt 0.423689 0.589461
vt 0.620846 0.589461
vt 0.620846 0.786619
vt 0.004891 0.995049
vt 0.004891 0.797893
vt 0.215254 0.786046
vt 0.215254 0.588675
vt 0.412625 0.588675
vt 0.412625 0.786046
vt 0.040088 0.287767
vt 0.632124 0.786616
vt 0.632124 0.589459
vt 0.040088 0.252569
vt 0.251271 0.252569
vt 0.251271 0.287767
vt 0.546552 0.252569
vt 0.546552 0.287767
vt 0.829282 0.589459
vt 0.335368 0.287767
vt 0.335368 0.252569
vt 0.829282 0.786616
vt 0.040088 0.041386
vt 0.202049 0.797893
vt 0.202049 0.995049
vt 0.040088 0.006189
vt 0.251271 0.006189
vt 0.251271 0.041386
vt 0.544323 0.298009
vt 0.546552 0.006189
vt 0.546552 0.041386
vt 0.544323 0.333163
vt 0.335368 0.041386
vt 0.335368 0.006189
vt 0.004890 0.252569
vt 0.333395 0.333163
vt 0.333395 0.298009
vt 0.004890 0.287767
vt 0.004890 0.041386
vt 0.004890 0.006189
vt 0.040045 0.333164
vt 0.581749 0.006189
vt 0.581749 0.041386
vt 0.040045 0.298009
vt 0.581749 0.252569
vt 0.581749 0.287767
vt 0.286469 0.006189
vt 0.250972 0.298009
vt 0.286469 0.041386
vt 0.286469 0.252569
vt 0.628677 0.287828
vt 0.250972 0.333164
vt 0.286469 0.287767
vt 0.300171 0.252569
vt 0.040045 0.579247
vt 0.300171 0.287767
vt 0.300171 0.041386
vt 0.040045 0.544092
vt 0.300171 0.006189
vt 0.628677 0.252673
vt 0.250972 0.544092
vt 0.884947 0.243052
vt 0.884947 0.006941
vt 0.250972 0.579247
vt 0.895242 0.014663
vt 0.895242 0.235331
vt 0.544323 0.544091
vt 0.982933 0.245961
vt 0.982933 0.457145
vt 0.544323 0.579246
vt 0.973725 0.450238
vt 0.973725 0.252867
vt 0.657868 0.807348
vt 0.421758 0.807348
vt 0.429479 0.797053
vt 0.650147 0.797053
vt 0.870326 0.909208
vt 0.659142 0.909208
vt 0.666048 0.900000
vt 0.863420 0.900000
vt 0.419828 0.919050
vt 0.631012 0.919050
vt 0.624106 0.928258
vt 0.426734 0.928258
vt 0.668792 0.797464
vt 0.904902 0.797464
vt 0.897181 0.807759
vt 0.676513 0.807759
vt 0.973725 0.679087
vt 0.973725 0.467904
vt 0.982933 0.474810
vt 0.982933 0.672181
vt 0.916471 0.005012
vt 0.916471 0.241122
vt 0.906176 0.233401
vt 0.906176 0.012733
vt 0.839607 0.252673
vt 0.839607 0.287828
vt 0.835744 0.544090
vt 0.835744 0.579244
vt 0.624818 0.579244
vt 0.624818 0.544090
vt 0.835744 0.298008
vt 0.835744 0.333163
vt 0.624818 0.333163
vt 0.624818 0.298008
vt 0.628677 0.041744
vt 0.628677 0.006589
vt 0.839607 0.006589
vt 0.839607 0.041744
vt 0.215254 0.995049
vt 0.215254 0.797893
vt 0.412410 0.797893
vt 0.412410 0.995049
vt 0.593524 0.041744
vt 0.593524 0.006589
vt 0.870899 0.298008
vt 0.870899 0.333163
vt 0.870899 0.544090
vt 0.870899 0.579244
vt 0.593524 0.287828
vt 0.593524 0.252673
vt 0.874761 0.041744
vt 0.874761 0.006589
vt 0.874761 0.252673
vt 0.874761 0.287828
vt 0.589664 0.544090
vt 0.589664 0.579244
vt 0.589664 0.333163
vt 0.589664 0.298008
vt 0.650802 0.888122
vt 0.419828 0.888122
vt 0.427381 0.878051
vt 0.643248 0.878051
vt 0.881481 0.847226
vt 0.649492 0.847226
vt 0.657079 0.837111
vt 0.873895 0.837111
vt 0.661073 0.878836
vt 0.892055 0.878836
vt 0.884501 0.888907
vt 0.668626 0.888907
vt 0.664932 0.817400
vt 0.896912 0.817400
vt 0.889326 0.827515
vt 0.672518 0.827515
vt 0.927406 0.238872
vt 0.927406 0.006891
vt 0.937520 0.014477
vt 0.937520 0.231286
vt 0.939408 0.243792
vt 0.939408 0.474782
vt 0.929336 0.467228
vt 0.929336 0.251346
vt 0.881087 0.706323
vt 0.881087 0.475356
vt 0.891157 0.482910
vt 0.891157 0.698769
vt 0.979981 0.004950
vt 0.979981 0.236924
vt 0.969865 0.229338
vt 0.969865 0.012536
vt 0.333395 0.579246
vt 0.333395 0.544091
vt 0.004890 0.579247
vt 0.004890 0.544092
vt 0.004890 0.333164
vt 0.004890 0.298009
vt 0.579477 0.298009
vt 0.579477 0.333163
vt 0.579477 0.544091
vt 0.579477 0.579246
vt 0.286127 0.333164
vt 0.286127 0.298009
vt 0.286127 0.544092
vt 0.286127 0.579247
vt 0.298240 0.544091
vt 0.298240 0.579246
vt 0.298240 0.333163
vt 0.298240 0.298009
vt 0.419828 0.819322
vt 0.651801 0.819322
vt 0.644215 0.829437
vt 0.427414 0.829437
vt 0.663004 0.857606
vt 0.893988 0.857606
vt 0.886435 0.867678
vt 0.670557 0.867678
vt 0.948635 0.238872
vt 0.948635 0.006891
vt 0.958751 0.014477
vt 0.958751 0.231286
vt 0.898879 0.243797
vt 0.898879 0.474793
vt 0.888807 0.467239
vt 0.888807 0.251352
vt 0.964542 0.240402
vt 0.964542 0.472371
vt 0.954426 0.464786
vt 0.954426 0.247988
vt 0.910037 0.482491
vt 0.910037 0.251505
vt 0.920109 0.259059
vt 0.920109 0.474937
vt 0.651816 0.866525
vt 0.419828 0.866525
vt 0.427414 0.856411
vt 0.644230 0.856411
vt 0.650806 0.909352
vt 0.419828 0.909352
vt 0.427386 0.899280
vt 0.643253 0.899280
vn 0.000000 0.000000 1.000000
vn 0.000000 0.000000 1.000000
vn 0.000000 0.000000 1.000000
vn 0.000000 0.000000 1.000000
vn 0.000000 1.000000 0.000000
vn 0.000000 1.000000 0.000000
vn 0.000000 1.000000 0.000000
vn 0.000000 1.000000 0.000000
vn 0.000000 -1.000000 0.000000
vn 0.000000 -1.000000 0.000000
vn 0.000000 -1.000000 0.000000
vn 0.000000 -1.000000 0.000000
vn -1.000000 0.000000 0.000000
vn -1.000000 0.000000 0.000000
vn -1.000000 0.000000 0.000000
vn -1.000000 0.000000 0.000000
vn 1.000000 0.000000 0.000000
vn 1.000000 0.000000 0.000000
vn 1.000000 0.000000 0.000000
vn 1.000000 0.000000 0.000000
vn 0.000000 0.000000 -1.000000
vn 0.000000 0.000000 -1.000000
vn 0.000000 0.000000 -1.000000
vn 0.000000 0.000000 -1.000000
vn 1.000000 0.000000 0.000000
vn 1.000000 0.000000 0.000000
vn 1.000000 0.000000 0.000000
vn 1.000000 0.000000 0.000000
vn 0.000000 0.000000 1.000000
vn 0.000000 0.000000 1.000000
vn 0.000000 0.000000 1.000000
vn 0.000000 0.000000 1.000000
vn -1.000000 0.000000 0.000000
vn -1.000000 0.000000 0.000000
vn -1.000000 0.000000 0.000000
vn -1.000000 0.000000 0.000000
vn 0.000000 0.000000 1.000000
vn 0.000000 0.000000 1.000000
vn 0.000000 0.000000 1.000000
vn 0.000000 0.000000 1.000000
vn 1.000000 0.000000 0.000000
vn 1.000000 0.000000 0.000000
vn 1.000000 0.000000 0.000000
vn 1.000000 0.000000 0.000000
vn 0.000000 0.000000 -1.000000
vn 0.000000 0.000000 -1.000000
vn 0.000000 0.000000 -1.000000
vn 0.000000 0.000000 -1.000000
vn -1.000000 0.000000 0.000000
vn -1.000000 0.000000 0.000000
vn -1.000000 0.000000 0.000000
vn -1.000000 0.000000 0.000000
vn 0.000000 1.000000 0.000000
vn 0.000000 1.000000 0.000000
vn 0.000000 1.000000 0.000000
vn 0.000000 1.000000 0.000000
vn 1.000000 0.000000 0.000000
vn 1.000000 0.000000 0.000000
vn 1.000000 0.000000 0.000000
vn 1.000000 0.000000 0.000000
vn 0.000000 -1.000000 0.000000
vn 0.000000 -1.000000 0.000000
vn 0.000000 -1.000000 0.000000
vn 0.000000 -1.000000 0.000000
vn -1.000000 0.000000 0.000000
vn -1.000000 0.000000 0.000000
vn -1.000000 0.000000 0.000000
vn -1.000000 0.000000 0.000000
vn 0.000000 -1.000000 0.000000
vn 0.000000 -1.000000 0.000000
vn 0.000000 -1.000000 0.000000
vn 0.000000 -1.000000 0.000000
vn 1.000000 0.000000 0.000000
vn 1.000000 0.000000 0.000000
vn 1.000000 0.000000 0.000000
vn 1.000000 0.000000 0.000000
vn 0.000000 1.000000 0.000000
vn 0.000000 1.000000 0.000000
vn 0.000000 1.000000 0.000000
vn 0.000000 1.000000 0.000000
vn -1.000000 0.000000 0.000000
vn -1.000000 0.000000 0.000000
vn -1.000000 0.000000 0.000000
vn -1.000000 0.000000 0.000000
vn 0.000000 0.000000 -1.000000
vn 0.000000 0.000000 -1.000000
vn 0.000000 0.000000 -1.000000
vn 0.000000 0.000000 -1.000000
vn 0.000000 0.000000 -1.000000
vn 0.000000 0.000000 -1.000000
vn 0.000000 -1.000000 0.000000
vn 0.000000 -1.000000 0.000000
vn 0.000000 -1.000000 0.000000
vn 0.000000 -1.000000 0.000000
vn 0.000000 0.000000 1.000000
vn 0.000000 0.000000 1.000000
vn 0.000000 0.000000 1.000000
vn 0.000000 0.000000 1.000000
vn 0.000000 1.000000 0.000000
vn 0.000000 1.000000 0.000000
vn 0.000000 1.000000 0.000000
vn 0.000000 1.000000 0.000000
vn 0.000000 0.000000 -1.000000
vn 0.000000 0.000000 -1.000000
vn 0.000000 -1.000000 0.000000
vn 0.000000 -1.000000 0.000000
vn 0.000000 -1.000000 0.000000
vn 0.000000 -1.000000 0.000000
vn 0.000000 0.000000 -1.000000
vn 0.000000 0.000000 -1.000000
vn 0.000000 0.000000 -1.000000
vn 0.000000 0.000000 -1.000000
vn 0.000000 1.000000 0.000000
vn 0.000000 1.000000 0.000000
vn 0.000000 1.000000 0.000000
vn 0.000000 1.000000 0.000000
vn 0.000000 0.000000 1.000000
vn 0.000000 0.000000 1.000000
vn 0.000000 0.000000 1.000000
vn 0.000000 0.000000 1.000000
vn 0.800000 0.000000 0.600000
vn 0.800000 0.000000 0.600000
vn 0.800000 0.000000 0.600000
vn 0.800000 0.000000 0.600000
vn 0.000000 0.800000 0.600000
vn 0.000000 0.800000 0.600000
vn 0.000000 0.800000 0.600000
vn 0.000000 0.800000 0.600000
vn -0.800000 0.000000 0.600000
vn -0.800000 0.000000 0.600000
vn -0.800000 0.000000 0.600000
vn -0.800000 0.000000 0.600000
vn 0.000000 -0.800000 0.600000
vn 0.000000 -0.800000 0.600000
vn 0.000000 -0.800000 0.600000
vn 0.000000 -0.800000 0.600000
vn 0.800000 0.600000 0.000000
vn 0.800000 0.600000 0.000000
vn 0.800000 0.600000 0.000000
vn 0.800000 0.600000 0.000000
vn 0.000000 0.600000 -0.800000
vn 0.000000 0.600000 -0.800000
vn 0.000000 0.600000 -0.800000
vn 0.000000 0.600000 -0.800000
vn -0.800000 0.600000 0.000000
vn -0.800000 0.600000 0.000000
vn -0.800000 0.600000 0.000000
vn -0.800000 0.600000 0.000000
vn 0.000000 0.600000 0.800000
vn 0.000000 0.600000 0.800000
vn 0.000000 0.600000 0.800000
vn 0.000000 0.600000 0.800000
vn -0.800000 -0.600000 0.000000
vn -0.800000 -0.600000 0.000000
vn -0.800000 -0.600000 0.000000
vn -0.800000 -0.600000 0.000000
vn 0.000000 -0.600000 -0.800000
vn 0.000000 -0.600000 -0.800000
vn 0.000000 -0.600000 -0.800000
vn 0.000000 -0.600000 -0.800000
vn 0.800000 -0.600000 0.000000
vn 0.800000 -0.600000 0.000000
vn 0.800000 -0.600000 0.000000
vn 0.800000 -0.600000 0.000000
vn 0.000000 -0.600000 0.800000
vn 0.000000 -0.600000 0.800000
vn 0.000000 -0.600000 0.800000
vn 0.000000 -0.600000 0.800000
vn -0.600000 0.000000 0.800000
vn -0.600000 0.000000 0.800000
vn -0.600000 0.000000 0.800000
vn -0.600000 0.000000 0.800000
vn -0.600000 0.800000 0.000000
vn -0.600000 0.800000 0.000000
vn -0.600000 0.800000 0.000000
vn -0.600000 0.800000 0.000000
vn -0.600000 0.000000 -0.800000
vn -0.600000 0.000000 -0.800000
vn -0.600000 0.000000 -0.800000
vn -0.600000 0.000000 -0.800000
vn -0.600000 -0.800000 0.000000
vn -0.600000 -0.800000 0.000000
vn -0.600000 -0.800000 0.000000
vn -0.600000 -0.800000 0.000000
vn 0.600000 0.000000 -0.800000
vn 0.600000 0.000000 -0.800000
vn 0.600000 0.000000 -0.800000
vn 0.600000 0.000000 -0.800000
vn 0.600000 0.800000 0.000000
vn 0.600000 0.800000 0.000000
vn 0.600000 0.800000 0.000000
vn 0.600000 0.800000 0.000000
vn 0.600000 0.000000 0.800000
vn 0.600000 0.000000 0.800000
vn 0.600000 0.000000 0.800000
vn 0.600000 0.000000 0.800000
vn 0.600000 -0.800000 0.000000
vn 0.600000 -0.800000 0.000000
vn 0.600000 -0.800000 0.000000
vn 0.600000 -0.800000 0.000000
vn -0.800000 0.000000 -0.600000
vn -0.800000 0.000000 -0.600000
vn -0.800000 0.000000 -0.600000
vn -0.800000 0.000000 -0.600000
vn 0.000000 0.800000 -0.600000
vn 0.000000 0.800000 -0.600000
vn 0.000000 0.800000 -0.600000
vn 0.000000 0.800000 -0.600000
vn 0.800000 0.000000 -0.600000
vn 0.800000 0.000000 -0.600000
vn 0.800000 0.000000 -0.600000
vn 0.800000 0.000000 -0.600000
vn 0.000000 -0.800000 -0.600000
vn 0.000000 -0.800000 -0.600000
vn 0.000000 -0.800000 -0.600000
vn 0.000000 -0.800000 -0.600000
s off
g pCube1
f 57/16/1 58/17/2 59/23/3 60/26/4
f 61/5/5 62/6/6 63/7/7 64/8/8
f 65/9/9 66/10/10 67/28/11 68/29/12
f 69/1/13 70/2/14 71/3/15 72/4/16
f 73/11/17 74/12/18 75/13/19 76/14/20
s 1
f 43/55/21 44/64/22 50/101/23 51/102/24
s 2
f 18/15/25 19/18/26 28/19/27 29/20/28
s 3
f 39/103/29 40/104/30 54/105/31 55/106/32
s 4
f 24/21/33 17/22/34 30/24/35 31/25/36
s 3
f 37/107/37 38/108/38 56/109/39 45/110/40
s 2
f 20/27/41 21/30/42 26/31/43 27/32/44
s 1
f 33/111/45 34/112/46 48/113/47 49/114/48
s 4
f 22/34/49 23/35/50 32/37/51 25/38/52
s 9
f 40/33/53 41/36/54 53/40/55 54/41/56
s 2
f 11/39/57 19/18/26 18/15/25 4/42/58
f 11/39/57 14/43/59 20/27/41 19/18/26
f 2/44/60 21/30/42 20/27/41 14/43/59
s 10
f 36/45/61 37/48/62 45/52/63 46/56/64
s 4
f 23/35/50 22/34/49 1/46/65 13/47/66
f 13/47/66 12/49/67 24/21/33 23/35/50
f 17/22/34 24/21/33 12/49/67 3/50/68
s 10
f 34/59/69 35/62/70 47/65/71 48/68/72
s 2
f 27/32/44 26/31/43 8/51/73 15/53/74
f 15/53/74 10/54/75 28/19/27 27/32/44
f 29/20/28 28/19/27 10/54/75 6/57/76
s 9
f 42/71/77 43/74/78 51/167/79 52/168/80
s 4
f 9/58/81 31/25/36 30/24/35 5/60/82
f 9/58/81 16/61/83 32/37/51 31/25/36
f 7/63/84 25/38/52 32/37/51 16/61/83
s off
f 77/115/85 78/116/86 79/117/87 80/118/88
s 1
f 34/112/46 33/111/45 15/119/89 8/120/90
s 10
f 35/62/70 34/59/69 8/169/91 26/170/92
f 26/170/92 21/171/93 36/45/61 35/62/70
f 37/48/62 36/45/61 21/171/93 2/172/94
s 3
f 38/108/38 37/107/37 2/121/95 14/122/96
f 14/122/96 11/123/97 39/103/29 38/108/38
f 40/104/30 39/103/29 11/123/97 4/124/98
s 9
f 41/36/54 40/33/53 4/173/99 18/174/100
f 18/174/100 29/175/101 42/71/77 41/36/54
f 43/74/78 42/71/77 29/175/101 6/176/102
s 1
f 44/64/22 43/55/21 6/125/103 10/126/104
f 10/126/104 15/119/89 33/111/45 44/64/22
s 10
f 22/177/105 46/56/64 45/52/63 1/178/106
f 22/177/105 25/179/107 47/65/71 46/56/64
f 7/180/108 48/68/72 47/65/71 25/179/107
s 1
f 16/127/109 49/114/48 48/113/47 7/128/110
f 16/127/109 9/129/111 50/101/23 49/114/48
f 5/130/112 51/102/24 50/101/23 9/129/111
s 9
f 30/181/113 52/168/80 51/167/79 5/182/114
f 30/181/113 17/183/115 53/40/55 52/168/80
f 3/184/116 54/41/56 53/40/55 17/183/115
s 3
f 12/131/117 55/106/32 54/105/31 3/132/118
f 12/131/117 13/133/119 56/109/39 55/106/32
f 1/134/120 45/110/40 56/109/39 13/133/119
s off
f 55/66/121 56/67/122 58/69/123 57/70/124
f 56/185/125 38/186/126 59/187/127 58/188/128
f 38/72/129 39/73/130 60/75/131 59/76/132
f 39/189/133 55/190/134 57/191/135 60/192/136
f 52/77/137 53/78/138 62/79/139 61/80/140
f 53/135/141 41/136/142 63/137/143 62/138/144
f 41/81/145 42/82/146 64/83/147 63/84/148
f 42/139/149 52/140/150 61/141/151 64/142/152
f 35/85/153 36/86/154 66/87/155 65/88/156
f 36/143/157 46/144/158 67/145/159 66/146/160
f 46/89/161 47/90/162 68/91/163 67/92/164
f 47/147/165 35/148/166 65/149/167 68/150/168
f 31/151/169 32/152/170 70/153/171 69/154/172
f 32/193/173 23/194/174 71/195/175 70/196/176
f 23/155/177 24/156/178 72/157/179 71/158/180
f 24/197/181 31/198/182 69/199/183 72/200/184
f 19/159/185 20/160/186 74/161/187 73/162/188
f 20/201/189 27/202/190 75/203/191 74/204/192
f 27/163/193 28/164/194 76/165/195 75/166/196
f 28/205/197 19/206/198 73/207/199 76/208/200
f 44/93/201 33/94/202 78/95/203 77/96/204
f 33/209/205 49/210/206 79/211/207 78/212/208
f 49/97/209 50/98/210 80/99/211 79/100/212
f 50/213/213 44/214/214 77/215/215 80/216/216
