# This file uses centimeters as units for non-parametric coordinates.

mtllib Book LP2.mtl
g default
v -0.253272 -1.818532 1.174317
v -0.253272 -1.818532 -1.212199
v -0.253272 1.818532 -1.212199
v -0.253272 1.818532 1.174317
v -0.072522 -1.818532 1.174317
v -0.072522 -1.818532 -1.212199
v -0.072522 1.818532 -1.212199
v -0.072522 1.818532 1.174317
v -0.253808 1.829320 1.219389
v -0.253808 -1.829320 1.219389
v -0.071986 -1.829320 1.219389
v -0.071986 1.829320 1.219389
v -0.035589 1.829320 -1.219389
v -0.035589 -1.829320 -1.219389
v -0.035589 1.829320 1.181283
v -0.035589 -1.829320 1.181283
v -0.290204 1.829320 -1.219389
v -0.290204 -1.829320 -1.219389
v -0.290204 -1.829320 1.181283
v -0.290204 1.829320 1.181283
v -0.057951 -1.829320 1.219389
v -0.057951 1.829320 1.219389
v -0.071986 1.829320 -1.219389
v -0.071986 1.829320 1.181283
v -0.071986 -1.829320 -1.219389
v -0.071986 -1.829320 1.181283
v -0.253808 1.829320 1.181283
v -0.253808 -1.829320 1.181283
v -0.267842 -1.829320 1.219389
v -0.267842 1.829320 1.219389
v -0.253808 -1.829320 -1.219389
v -0.253808 1.829320 -1.219389
vt 0.987231 0.966024
vt 0.412684 0.967767
vt 0.421015 0.754802
vt 0.986585 0.753086
vt 0.412512 0.911131
vt 0.987059 0.909388
vt 0.987042 0.903672
vt 0.412495 0.905415
vt 0.986611 0.761660
vt 0.421041 0.763376
vt 0.989077 0.037520
vt 0.989077 0.612070
vt 0.612077 0.612070
vt 0.612077 0.037520
vt 0.391160 0.986692
vt 0.421273 0.839668
vt 0.986842 0.837952
vt 0.391160 0.412142
vt 0.986816 0.829378
vt 0.014160 0.412142
vt 0.014160 0.986692
vt 0.421247 0.831094
vt 0.412597 0.939214
vt 0.412194 0.806238
vt 0.583132 0.181113
vt 0.987111 0.926472
vt 0.987094 0.920756
vt 0.583162 0.224628
vt 0.412064 0.763403
vt 0.987144 0.937471
vt 0.421171 0.806211
vt 0.008613 0.225024
vt 0.412547 0.922500
vt 0.412564 0.928216
vt 0.008583 0.181509
vt 0.412054 0.760097
vt 0.606093 0.037520
vt 0.606093 0.612070
vt 0.008176 0.412142
vt 0.008176 0.986692
vt 0.412591 0.937010
vt 0.987138 0.935267
vt 0.412691 0.969971
vt 0.987237 0.968228
vt 0.412296 0.839696
vt 0.412285 0.836389
vt 0.412426 0.882531
vt 0.421403 0.882503
vt 0.421429 0.891078
vt 0.412436 0.885837
vt 0.986998 0.889362
vt 0.986972 0.880788
vt 0.986741 0.804495
vt 0.986767 0.813070
vt 0.421197 0.814786
vt 0.412204 0.809545
vt 0.008574 0.169077
vt 0.583123 0.168680
vt 0.583093 0.125165
vt 0.008544 0.125561
vt 0.008511 0.077095
vt 0.008531 0.105648
vt 0.583080 0.105251
vt 0.583060 0.076698
vt 0.986611 0.761660
vt 0.421041 0.763376
vt 0.412512 0.911131
vt 0.987059 0.909388
vt 0.421273 0.839668
vt 0.986842 0.837952
vt 0.421171 0.806211
vt 0.421403 0.882503
vt 0.986972 0.880788
vt 0.987094 0.920756
vt 0.412547 0.922500
vt 0.986741 0.804495
vn 0.000000 0.000000 1.000000
vn 0.000000 0.000000 1.000000
vn 0.000000 0.000000 1.000000
vn 0.000000 0.000000 1.000000
vn 0.000000 1.000000 0.000000
vn 0.000000 1.000000 0.000000
vn 0.000000 1.000000 0.000000
vn 0.000000 1.000000 0.000000
vn 0.000000 0.000000 -1.000000
vn 0.000000 0.000000 -1.000000
vn 0.000000 0.000000 -1.000000
vn 0.000000 0.000000 -1.000000
vn 0.000000 -1.000000 0.000000
vn 0.000000 -1.000000 0.000000
vn 0.000000 -1.000000 0.000000
vn 0.000000 -1.000000 0.000000
vn 1.000000 0.000000 0.000000
vn 1.000000 0.000000 0.000000
vn 0.999958 0.000000 0.009169
vn 0.999958 0.000000 0.009169
vn -1.000000 0.000000 0.000000
vn -1.000000 0.000000 0.000000
vn -0.999958 0.000000 0.009169
vn -0.999958 0.000000 0.009169
vn 0.000000 0.000000 1.000000
vn 0.000000 0.000000 1.000000
vn 0.000000 1.000000 -0.000000
vn 0.000000 1.000000 0.000000
vn 0.000000 1.000000 0.000000
vn 0.000000 1.000000 -0.000000
vn 0.000000 0.000000 -1.000000
vn 0.000000 0.000000 -1.000000
vn 0.000000 0.000000 -1.000000
vn 0.000000 0.000000 -1.000000
vn 0.000000 -1.000000 -0.000000
vn 0.000000 -1.000000 0.000000
vn 0.000000 -1.000000 0.000000
vn 0.000000 -1.000000 -0.000000
vn 0.000000 1.000000 0.000000
vn 0.000000 1.000000 -0.000000
vn 0.000000 1.000000 0.000000
vn 0.000000 1.000000 -0.000004
vn 0.862461 0.000000 0.506123
vn 0.862461 0.000000 0.506123
vn 0.000000 -1.000000 -0.000001
vn 0.000000 -1.000000 -0.000006
vn 0.000000 -1.000000 0.000000
vn 0.000000 -1.000000 0.000000
vn -0.862461 0.000000 0.506123
vn -0.862461 0.000000 0.506123
vn 0.000000 -1.000000 0.000000
vn 0.000000 -1.000000 0.000000
vn 0.000000 -1.000000 0.000000
vn 0.000000 -1.000000 0.000000
vn 0.000000 0.000000 -1.000000
vn 0.000000 0.000000 -1.000000
vn 0.000000 0.000000 -1.000000
vn 0.000000 0.000000 -1.000000
vn 0.000000 1.000000 0.000000
vn 0.000000 1.000000 0.000000
vn 0.000000 1.000000 0.000000
vn 0.000000 1.000000 0.000000
vn 0.000000 0.000000 1.000000
vn 0.000000 0.000000 1.000000
vn -0.998767 0.049635 0.000000
vn -0.998767 0.049635 0.000000
vn -0.998767 0.049635 0.000000
vn -0.998767 0.049635 0.000000
vn -0.997232 0.000000 -0.074348
vn -0.997232 0.000000 -0.074348
vn -0.997232 0.000000 -0.074348
vn -0.997232 0.000000 -0.074348
vn -0.998767 -0.049636 0.000000
vn -0.998767 -0.049636 0.000000
vn -0.998767 -0.049636 0.000000
vn -0.998767 -0.049636 0.000000
vn 0.000000 0.542469 -0.840076
vn 0.000000 0.542469 -0.840076
vn 0.000000 0.542469 -0.840076
vn 0.000000 0.542469 -0.840076
vn 0.000000 -0.542472 -0.840074
vn 0.000000 -0.542472 -0.840074
vn 0.000000 -0.542473 -0.840074
vn 0.000000 -0.542473 -0.840074
vn 0.998767 -0.049634 0.000000
vn 0.998767 -0.049634 0.000000
vn 0.998767 -0.049634 0.000000
vn 0.998767 -0.049634 0.000000
vn 0.997232 0.000000 -0.074349
vn 0.997232 0.000000 -0.074349
vn 0.997232 0.000000 -0.074349
vn 0.997232 0.000000 -0.074349
vn 0.998767 0.049635 0.000000
vn 0.998767 0.049635 0.000000
vn 0.998767 0.049635 0.000000
vn 0.998767 0.049635 0.000000
s 1
g pCube1
usemtl lambert2SG
f 9/1/1 10/2/2 11/23/3 12/30/4
s off
usemtl lambert3SG
f 7/25/5 3/28/6 4/32/7 8/35/8
f 6/61/9 2/62/10 3/63/11 7/64/12
f 1/57/13 2/58/14 6/59/15 5/60/16
s 2
usemtl lambert2SG
f 14/11/17 13/12/18 15/13/19 16/14/20
s 3
f 17/15/21 18/18/22 19/20/23 20/21/24
s 1
f 12/30/4 11/23/3 21/41/25 22/42/26
s 4
f 15/3/27 13/4/28 23/65/29 24/66/30
s off
f 25/67/31 23/68/32 13/7/33 14/8/34
s 5
f 26/69/35 25/70/36 14/19/37 16/22/38
s 4
f 9/24/39 12/29/40 24/66/30 27/71/41
f 15/3/27 24/66/30 12/29/40 22/36/42
s 2
f 21/37/43 16/14/20 15/13/19 22/38/44
s 5
f 11/45/45 26/69/35 16/22/38 21/46/46
f 11/45/45 10/47/47 28/72/48 26/69/35
s 3
f 20/21/24 19/20/23 29/39/49 30/40/50
s 5
f 19/49/51 28/72/48 10/47/47 29/50/52
f 19/49/51 18/51/53 31/73/54 28/72/48
s off
f 17/26/55 32/74/56 31/75/57 18/34/58
s 4
f 32/76/59 17/54/60 20/55/61 27/71/41
f 30/56/62 9/24/39 27/71/41 20/55/61
s 1
f 29/43/63 10/2/2 9/1/1 30/44/64
s off
f 7/9/65 8/10/66 24/66/67 23/65/68
f 6/5/69 7/6/70 23/68/71 25/67/72
f 5/16/73 6/17/74 25/70/75 26/69/76
f 8/10/77 4/31/78 27/71/79 24/66/80
f 1/48/81 5/16/82 26/69/83 28/72/84
f 2/52/85 1/48/86 28/72/87 31/73/88
f 3/27/89 2/33/90 31/75/91 32/74/92
f 4/31/93 3/53/94 32/76/95 27/71/96
