# This file uses centimeters as units for non-parametric coordinates.

mtllib Book LP.mtl
g default
v 0.110358 0.500000 0.500000
v 0.110358 0.500000 0.437500
v 0.082769 0.500000 -0.500000
v 0.082769 0.500000 0.437500
v 0.082769 0.500000 0.500000
v 0.082769 0.500000 0.468750
v 0.110358 0.500000 0.468750
v 0.082769 0.529863 0.437500
v 0.110358 0.529863 0.437500
v 0.082769 0.529863 0.468750
v 0.110358 0.529863 0.468750
v 0.082769 0.529863 -0.500000
v 0.110358 0.529863 -0.500000
v 0.082769 0.529863 0.500000
v 0.110358 0.529863 0.500000
v 0.082769 0.500000 -0.532824
v 0.110358 0.500000 -0.532824
v 0.082769 0.529863 -0.532824
v 0.110358 0.529863 -0.532824
v 0.122810 0.500000 -0.500000
v 0.122810 0.500000 0.437500
v 0.122810 0.529863 0.437500
v 0.122810 0.529863 -0.500000
v 0.122810 0.500000 -0.532824
v 0.122810 0.529863 -0.532824
v 0.122810 0.500000 0.468750
v 0.122810 0.500000 0.500000
v 0.122810 0.529863 0.468750
v 0.122810 0.529863 0.500000
v -0.110358 0.500000 0.500000
v -0.110358 0.500000 0.437500
v -0.082769 0.500000 -0.500000
v -0.082769 0.500000 0.437500
v -0.082769 0.500000 0.500000
v -0.082769 0.500000 0.468750
v -0.110358 0.500000 0.468750
v -0.082769 0.529863 0.437500
v -0.110358 0.529863 0.437500
v -0.082769 0.529863 0.468750
v -0.110358 0.529863 0.468750
v -0.082769 0.529863 -0.500000
v -0.110358 0.529863 -0.500000
v -0.082769 0.529863 0.500000
v -0.110358 0.529863 0.500000
v -0.082769 0.500000 -0.532824
v -0.110358 0.500000 -0.532824
v -0.082769 0.529863 -0.532824
v -0.110358 0.529863 -0.532824
v -0.122810 0.500000 -0.500000
v -0.122810 0.500000 0.437500
v -0.122810 0.529863 0.437500
v -0.122810 0.529863 -0.500000
v -0.122810 0.500000 -0.532824
v -0.122810 0.529863 -0.532824
v -0.122810 0.500000 0.468750
v -0.122810 0.500000 0.500000
v -0.122810 0.529863 0.468750
v -0.122810 0.529863 0.500000
v 0.110358 -0.500000 0.500000
v 0.110358 -0.500000 0.437500
v 0.082769 -0.500000 -0.500000
v 0.082769 -0.500000 0.437500
v 0.082769 -0.500000 0.500000
v 0.082769 -0.500000 0.468750
v 0.110358 -0.500000 0.468750
v 0.082769 -0.529863 0.437500
v 0.110358 -0.529863 0.437500
v 0.082769 -0.529863 0.468750
v 0.110358 -0.529863 0.468750
v 0.082769 -0.529863 -0.500000
v 0.110358 -0.529863 -0.500000
v 0.082769 -0.529863 0.500000
v 0.110358 -0.529863 0.500000
v 0.082769 -0.500000 -0.532824
v 0.110358 -0.500000 -0.532824
v 0.082769 -0.529863 -0.532824
v 0.110358 -0.529863 -0.532824
v 0.122810 -0.500000 -0.500000
v 0.122810 -0.500000 0.437500
v 0.122810 -0.529863 0.437500
v 0.122810 -0.529863 -0.500000
v 0.122810 -0.500000 -0.532824
v 0.122810 -0.529863 -0.532824
v 0.122810 -0.500000 0.468750
v 0.122810 -0.500000 0.500000
v 0.122810 -0.529863 0.468750
v 0.122810 -0.529863 0.500000
v -0.110358 -0.500000 0.500000
v -0.110358 -0.500000 0.437500
v -0.082769 -0.500000 -0.500000
v -0.082769 -0.500000 0.437500
v -0.082769 -0.500000 0.500000
v -0.082769 -0.500000 0.468750
v -0.110358 -0.500000 0.468750
v -0.082769 -0.529863 0.437500
v -0.110358 -0.529863 0.437500
v -0.082769 -0.529863 0.468750
v -0.110358 -0.529863 0.468750
v -0.082769 -0.529863 -0.500000
v -0.110358 -0.529863 -0.500000
v -0.082769 -0.529863 0.500000
v -0.110358 -0.529863 0.500000
v -0.082769 -0.500000 -0.532824
v -0.110358 -0.500000 -0.532824
v -0.082769 -0.529863 -0.532824
v -0.110358 -0.529863 -0.532824
v -0.122810 -0.500000 -0.500000
v -0.122810 -0.500000 0.437500
v -0.122810 -0.529863 0.437500
v -0.122810 -0.529863 -0.500000
v -0.122810 -0.500000 -0.532824
v -0.122810 -0.529863 -0.532824
v -0.122810 -0.500000 0.468750
v -0.122810 -0.500000 0.500000
v -0.122810 -0.529863 0.468750
v -0.122810 -0.529863 0.500000
vt 0.600868 0.964911
vt 0.612671 0.964911
vt 0.877078 0.121068
vt 0.835855 0.291297
vt 0.612671 0.976190
vt 0.318228 0.012663
vt 0.053430 0.970235
vt 0.053430 0.970235
vt 0.053430 0.981513
vt 0.823803 0.291182
vt 0.761099 0.500169
vt 0.761099 0.511448
vt 0.053430 0.981513
vt 0.600868 0.976190
vt 0.966753 0.976190
vt 0.612671 0.976190
vt 0.053430 0.981513
vt 0.612671 0.964911
vt 0.053430 0.970235
vt 0.966753 0.964911
vt 0.043010 0.981513
vt 0.589066 0.964911
vt 0.043010 0.970235
vt 0.053430 0.970235
vt 0.053430 0.981513
vt 0.115951 0.981513
vt 0.600868 0.964911
vt 0.600868 0.976190
vt 0.589066 0.976190
vt 0.750679 0.511448
vt 0.750679 0.500169
vt 0.550986 0.965240
vt 0.979150 0.964911
vt 0.966753 0.587224
vt 0.877078 0.507773
vt 0.877078 0.521312
vt 0.865698 0.507773
vt 0.865698 0.521312
vt 0.194129 0.408888
vt 0.865698 0.121068
vt 0.882215 0.121068
vt 0.196904 0.965240
vt 0.196904 0.587553
vt 0.251274 0.012663
vt 0.115951 0.970235
vt 0.038307 0.981513
vt 0.038307 0.970235
vt 0.115951 0.970235
vt 0.550986 0.587553
vt 0.562788 0.965240
vt 0.550986 0.965240
vt 0.811649 0.301709
vt 0.765802 0.122482
vt 0.823701 0.301823
vt 0.115951 0.981513
vt 0.550986 0.587553
vt 0.115951 0.970235
vt 0.562788 0.587553
vt 0.115951 0.981513
vt 0.765802 0.500169
vt 0.115951 0.970235
vt 0.115951 0.592548
vt 0.115951 0.592548
vt 0.115951 0.981513
vt 0.194129 0.021555
vt 0.194129 0.008644
vt 0.979150 0.587224
vt 0.882215 0.507773
vt 0.882215 0.521312
vt 0.917368 0.121068
vt 0.562788 0.976519
vt 0.550986 0.976519
vt 0.196904 0.976519
vt 0.550986 0.976519
vt 0.761099 0.122482
vt 0.765802 0.511448
vt 0.574591 0.965240
vt 0.574591 0.976519
vt 0.318228 0.403735
vt 0.126372 0.970235
vt 0.126372 0.592548
vt 0.979150 0.976190
vt 0.612671 0.587224
vt 0.811750 0.291068
vt 0.126372 0.981513
vt 0.835754 0.301938
vt 0.131075 0.592548
vt 0.612671 0.587224
vt 0.600868 0.587224
vt 0.589066 0.587224
vt 0.131075 0.970235
vt 0.600868 0.587224
vt 0.131075 0.981513
vt 0.600868 0.575945
vt 0.053430 0.592548
vt 0.053430 0.581269
vt 0.053430 0.581269
vt 0.053430 0.592548
vt 0.053430 0.592548
vt 0.125736 0.408888
vt 0.562788 0.976519
vt 0.811796 0.286265
vt 0.823848 0.286380
vt 0.917368 0.507773
vt 0.917368 0.521312
vt 0.928749 0.507773
vt 0.928749 0.521312
vt 0.562788 0.965240
vt 0.835045 0.376424
vt 0.184507 0.976519
vt 0.251274 0.403735
vt 0.053430 0.581269
vt 0.053430 0.592548
vt 0.612671 0.575945
vt 0.966753 0.575945
vt 0.612671 0.575945
vt 0.589066 0.575945
vt 0.184507 0.965240
vt 0.053430 0.581269
vt 0.562788 0.587553
vt 0.600868 0.575945
vt 0.979150 0.575945
vt 0.822993 0.376310
vt 0.043010 0.592548
vt 0.574591 0.587553
vt 0.550986 0.576275
vt 0.562788 0.576275
vt 0.550986 0.576275
vt 0.196904 0.576275
vt 0.043010 0.581269
vt 0.562788 0.576275
vt 0.038307 0.592548
vt 0.574591 0.576275
vt 0.038307 0.581269
vt 0.115951 0.592548
vt 0.115951 0.592548
vt 0.115951 0.581269
vt 0.115951 0.581269
vt 0.125736 0.021555
vt 0.125736 0.008644
vt 0.105672 0.009468
vt 0.105672 0.396803
vt 0.105672 0.409731
vt 0.037279 0.009468
vt 0.037279 0.396803
vt 0.037279 0.409731
vt 0.928749 0.121068
vt 0.912232 0.121068
vt 0.912232 0.507773
vt 0.912232 0.521312
vt 0.900216 0.521466
vt 0.900216 0.134751
vt 0.900216 0.121213
vt 0.888836 0.134751
vt 0.888836 0.121213
vt 0.888836 0.521466
vt 0.905353 0.521466
vt 0.905353 0.134752
vt 0.905353 0.121213
vt 0.937355 0.521458
vt 0.937355 0.134745
vt 0.937355 0.121203
vt 0.948735 0.134748
vt 0.948735 0.121206
vt 0.948735 0.521457
vt 0.932218 0.521457
vt 0.932218 0.134745
vt 0.932218 0.121199
vt 0.688157 0.511448
vt 0.688157 0.500169
vt 0.184507 0.587553
vt 0.184507 0.576275
vt 0.673034 0.111203
vt 0.673034 0.122482
vt 0.677737 0.500169
vt 0.677737 0.511448
vt 0.677737 0.111203
vt 0.765802 0.111203
vt 0.811041 0.365554
vt 0.823094 0.365669
vt 0.810940 0.376195
vt 0.835146 0.365784
vt 0.822947 0.381112
vt 0.810894 0.380998
vt 0.783178 0.290797
vt 0.795236 0.290911
vt 0.807190 0.301667
vt 0.795136 0.301552
vt 0.807277 0.291026
vt 0.783074 0.301437
vt 0.795278 0.286109
vt 0.807320 0.286223
vt 0.782368 0.375924
vt 0.794425 0.376039
vt 0.806583 0.365513
vt 0.794528 0.365398
vt 0.806467 0.376153
vt 0.782466 0.365283
vt 0.806418 0.380956
vt 0.794377 0.380841
vt 0.688157 0.122482
vt 0.677737 0.122482
vt 0.673034 0.511448
vt 0.673034 0.500169
vt 0.750679 0.122482
vt 0.688157 0.111203
vt 0.750679 0.111203
vt 0.761099 0.111203
vt 0.115951 0.581269
vt 0.126372 0.581269
vt 0.115951 0.581269
vt 0.131075 0.581269
vn 0.000000 1.000000 0.000000
vn 0.000000 1.000000 0.000000
vn 0.000000 1.000000 0.000000
vn 0.000000 1.000000 0.000000
vn 0.000000 1.000000 0.000000
vn 0.000000 1.000000 0.000000
vn 0.000000 1.000000 0.000000
vn 0.000000 1.000000 0.000000
vn -1.000000 0.000000 0.000000
vn -1.000000 0.000000 0.000000
vn -1.000000 0.000000 0.000000
vn -1.000000 0.000000 0.000000
vn 1.000000 0.000000 0.000000
vn 1.000000 0.000000 0.000000
vn 1.000000 0.000000 0.000000
vn 1.000000 0.000000 0.000000
vn 1.000000 0.000000 0.000000
vn 1.000000 0.000000 0.000000
vn 1.000000 0.000000 0.000000
vn 1.000000 0.000000 0.000000
vn -1.000000 0.000000 0.000000
vn -1.000000 0.000000 0.000000
vn 0.000000 0.000000 -1.000000
vn 0.000000 0.000000 -1.000000
vn 0.000000 0.000000 -1.000000
vn 0.000000 0.000000 -1.000000
vn 0.000000 0.000000 -1.000000
vn 0.000000 0.000000 -1.000000
vn 0.000000 0.000000 -1.000000
vn 0.000000 0.000000 -1.000000
vn 0.000000 0.000000 1.000000
vn 0.000000 0.000000 1.000000
vn 0.000000 0.000000 1.000000
vn 0.000000 0.000000 1.000000
vn 1.000000 0.000000 0.000000
vn 1.000000 0.000000 0.000000
vn 1.000000 0.000000 0.000000
vn 1.000000 0.000000 0.000000
vn 1.000000 0.000000 0.000000
vn 1.000000 0.000000 0.000000
vn 1.000000 0.000000 0.000000
vn -1.000000 0.000000 0.000000
vn -1.000000 0.000000 0.000000
vn 0.000000 1.000000 0.000000
vn 0.000000 1.000000 0.000000
vn 1.000000 0.000000 0.000000
vn 0.000000 0.000000 1.000000
vn 0.000000 0.000000 1.000000
vn 0.000000 0.000000 1.000000
vn 0.000000 0.000000 1.000000
vn 0.000000 0.000000 1.000000
vn 0.000000 0.000000 1.000000
vn 0.000000 1.000000 0.000000
vn 0.000000 1.000000 0.000000
vn 0.000000 0.000000 -1.000000
vn 0.000000 0.000000 -1.000000
vn 0.000000 1.000000 0.000000
vn 0.000000 0.000000 1.000000
vn 0.000000 0.000000 1.000000
vn 0.000000 0.000000 1.000000
vn 0.000000 0.000000 -1.000000
vn 0.000000 0.000000 -1.000000
vn 0.000000 0.000000 -1.000000
vn 0.000000 0.000000 -1.000000
vn 0.000000 1.000000 0.000000
vn 0.000000 1.000000 0.000000
vn 0.000000 0.000000 1.000000
vn 0.000000 1.000000 0.000000
vn 0.000000 1.000000 0.000000
vn 0.000000 1.000000 0.000000
vn 0.000000 1.000000 0.000000
vn 0.000000 1.000000 0.000000
vn 0.000000 1.000000 0.000000
vn 0.000000 1.000000 0.000000
vn 0.000000 1.000000 0.000000
vn 0.000000 0.000000 -1.000000
vn 0.000000 0.000000 -1.000000
vn 0.000000 0.000000 -1.000000
vn 0.000000 0.000000 -1.000000
vn -1.000000 0.000000 0.000000
vn -1.000000 0.000000 0.000000
vn -1.000000 0.000000 0.000000
vn -1.000000 0.000000 0.000000
vn -1.000000 0.000000 0.000000
vn -1.000000 0.000000 0.000000
vn -1.000000 0.000000 0.000000
vn -1.000000 0.000000 0.000000
vn 1.000000 0.000000 0.000000
vn 1.000000 0.000000 0.000000
vn 1.000000 0.000000 0.000000
vn 1.000000 0.000000 0.000000
vn -1.000000 0.000000 0.000000
vn -1.000000 0.000000 0.000000
vn 1.000000 0.000000 0.000000
vn 1.000000 0.000000 0.000000
vn -1.000000 0.000000 0.000000
vn -1.000000 0.000000 0.000000
vn 0.000000 0.000000 1.000000
vn 0.000000 0.000000 1.000000
vn -1.000000 0.000000 0.000000
vn -1.000000 0.000000 0.000000
vn -1.000000 0.000000 0.000000
vn -1.000000 0.000000 0.000000
vn 1.000000 0.000000 0.000000
vn 1.000000 0.000000 0.000000
vn 1.000000 0.000000 0.000000
vn 1.000000 0.000000 0.000000
vn -1.000000 0.000000 0.000000
vn -1.000000 0.000000 0.000000
vn 0.000000 0.000000 -1.000000
vn 0.000000 0.000000 -1.000000
vn 0.000000 0.000000 -1.000000
vn 0.000000 0.000000 -1.000000
vn 0.000000 0.000000 -1.000000
vn 0.000000 0.000000 -1.000000
vn 0.000000 1.000000 0.000000
vn 0.000000 1.000000 0.000000
vn 0.000000 1.000000 0.000000
vn 0.000000 1.000000 0.000000
vn 0.000000 1.000000 0.000000
vn 0.000000 1.000000 0.000000
vn 0.000000 1.000000 0.000000
vn 0.000000 1.000000 0.000000
vn 0.000000 0.000000 1.000000
vn 0.000000 0.000000 1.000000
vn 0.000000 0.000000 1.000000
vn 0.000000 0.000000 1.000000
vn 0.000000 1.000000 0.000000
vn 0.000000 1.000000 0.000000
vn 0.000000 0.000000 1.000000
vn 0.000000 0.000000 1.000000
vn 0.000000 0.000000 1.000000
vn 0.000000 0.000000 1.000000
vn 0.000000 0.000000 -1.000000
vn 0.000000 0.000000 -1.000000
vn 0.000000 0.000000 -1.000000
vn 0.000000 1.000000 0.000000
vn 0.000000 0.000000 -1.000000
vn 0.000000 0.000000 -1.000000
vn 0.000000 0.000000 -1.000000
vn 0.000000 0.000000 -1.000000
vn 0.000000 0.000000 -1.000000
vn 0.000000 0.000000 -1.000000
vn 0.000000 1.000000 0.000000
vn 0.000000 1.000000 0.000000
vn 0.000000 0.000000 1.000000
vn 0.000000 0.000000 1.000000
vn 0.000000 -1.000000 0.000000
vn 0.000000 -1.000000 0.000000
vn 0.000000 -1.000000 0.000000
vn 0.000000 -1.000000 0.000000
vn 0.000000 0.000000 1.000000
vn 1.000000 0.000000 0.000000
vn 1.000000 0.000000 0.000000
vn 1.000000 0.000000 0.000000
vn 1.000000 0.000000 0.000000
vn 1.000000 0.000000 0.000000
vn -1.000000 0.000000 0.000000
vn -1.000000 0.000000 0.000000
vn -1.000000 0.000000 0.000000
vn -1.000000 0.000000 0.000000
vn 1.000000 0.000000 0.000000
vn 1.000000 0.000000 0.000000
vn -1.000000 0.000000 0.000000
vn -1.000000 0.000000 0.000000
vn 1.000000 0.000000 0.000000
vn 1.000000 0.000000 0.000000
vn 0.000000 0.000000 1.000000
vn 0.000000 0.000000 1.000000
vn 1.000000 0.000000 0.000000
vn 1.000000 0.000000 0.000000
vn -1.000000 0.000000 0.000000
vn -1.000000 0.000000 0.000000
vn 1.000000 0.000000 0.000000
vn 0.000000 0.000000 -1.000000
vn 0.000000 0.000000 -1.000000
vn 0.000000 0.000000 -1.000000
vn 0.000000 0.000000 -1.000000
vn 0.000000 -1.000000 0.000000
vn 0.000000 -1.000000 0.000000
vn 0.000000 -1.000000 0.000000
vn 0.000000 -1.000000 0.000000
vn 0.000000 -1.000000 0.000000
vn 0.000000 -1.000000 0.000000
vn 0.000000 -1.000000 0.000000
vn 0.000000 -1.000000 0.000000
vn 0.000000 -1.000000 0.000000
vn 0.000000 -1.000000 0.000000
vn 0.000000 0.000000 1.000000
vn 0.000000 -1.000000 0.000000
vn 0.000000 -1.000000 0.000000
vn 0.000000 0.000000 1.000000
vn 0.000000 0.000000 1.000000
vn 0.000000 0.000000 -1.000000
vn 0.000000 0.000000 -1.000000
vn 0.000000 -1.000000 0.000000
vn 0.000000 0.000000 -1.000000
vn 0.000000 0.000000 -1.000000
vn 0.000000 0.000000 -1.000000
vn 0.000000 0.000000 -1.000000
vn 0.000000 -1.000000 0.000000
vn 0.000000 -1.000000 0.000000
vn 0.000000 0.000000 1.000000
vn 0.000000 -1.000000 0.000000
vn 0.000000 -1.000000 0.000000
vn 0.000000 -1.000000 0.000000
vn 0.000000 -1.000000 0.000000
vn 0.000000 -1.000000 0.000000
vn 0.000000 -1.000000 0.000000
vn 0.000000 -1.000000 0.000000
vn 0.000000 -1.000000 0.000000
vn 0.000000 -1.000000 0.000000
vn 0.000000 -1.000000 0.000000
vn -1.000000 0.000000 0.000000
vn -1.000000 0.000000 0.000000
vn 1.000000 0.000000 0.000000
vn 1.000000 0.000000 0.000000
vn 1.000000 0.000000 0.000000
vn 1.000000 0.000000 0.000000
vn -1.000000 0.000000 0.000000
vn -1.000000 0.000000 0.000000
vn -1.000000 0.000000 0.000000
vn -1.000000 0.000000 0.000000
vn 1.000000 0.000000 0.000000
vn 0.000000 0.000000 -1.000000
vn 0.000000 0.000000 -1.000000
vn 0.000000 0.000000 -1.000000
vn 0.000000 0.000000 -1.000000
vn 0.000000 0.000000 -1.000000
vn 0.000000 0.000000 -1.000000
vn 0.000000 0.000000 1.000000
vn -1.000000 0.000000 0.000000
vn -1.000000 0.000000 0.000000
vn -1.000000 0.000000 0.000000
vn 1.000000 0.000000 0.000000
vn 0.000000 -1.000000 0.000000
vn 0.000000 -1.000000 0.000000
vn -1.000000 0.000000 0.000000
vn 0.000000 0.000000 1.000000
vn 0.000000 0.000000 1.000000
vn 0.000000 0.000000 1.000000
vn 0.000000 0.000000 1.000000
vn 0.000000 -1.000000 0.000000
vn 0.000000 -1.000000 0.000000
vn 0.000000 0.000000 -1.000000
vn 0.000000 -1.000000 0.000000
vn 0.000000 0.000000 1.000000
vn 0.000000 0.000000 -1.000000
vn 0.000000 0.000000 -1.000000
vn 0.000000 -1.000000 0.000000
vn 0.000000 -1.000000 0.000000
vn 0.000000 0.000000 1.000000
s 1
g pCube1
usemtl lambert2SG
f 11/10/1 9/4/2 8/86/3 10/54/4
f 12/37/5 8/40/3 9/3/2 13/35/6
f 15/84/7 11/10/1 10/54/4 14/52/8
s 2
f 4/7/9 6/8/10 10/9/11 8/13/12
s 3
f 7/1/13 2/2/14 9/5/15 11/14/16
s 4
f 23/15/17 22/16/18 21/18/19 20/20/20
s 2
f 12/17/21 3/19/22 4/7/9 8/13/12
s 5
f 19/21/23 17/23/24 16/24/25 18/25/26
s off
f 39/26/27 10/9/28 6/8/29 35/45/30
s 6
f 1/11/31 15/12/32 14/30/33 5/31/34
s 7
f 27/22/35 26/27/36 28/28/37 29/29/38
s 4
f 24/33/39 20/20/20 78/34/40 82/67/41
s 2
f 3/19/22 12/17/21 18/25/42 16/24/43
s 1
f 13/35/6 19/36/44 18/38/45 12/37/5
s 4
f 23/15/17 20/20/20 24/33/39 25/82/46
s 8
f 79/83/47 21/18/48 2/2/49 60/88/50
f 9/5/51 2/2/49 21/18/48 22/16/52
s 1
f 23/68/53 13/35/6 9/3/2 22/41/54
s 5
f 17/23/24 19/21/23 25/46/55 24/47/56
s 1
f 19/36/44 13/35/6 23/68/53 25/69/57
s 6
f 85/53/58 27/60/59 1/11/31 59/75/60
s 9
f 7/1/61 11/14/62 28/28/63 26/27/64
s 1
f 11/10/1 15/84/7 29/102/65 28/103/66
s 6
f 15/12/32 1/11/31 27/60/59 29/76/67
s 10
usemtl lambert3SG
f 33/139/68 4/65/69 3/39/70 32/100/71
f 4/65/69 33/139/68 35/140/72 6/66/73
s 1
usemtl lambert2SG
f 39/180/74 43/179/75 14/52/8 10/54/4
s off
usemtl lambert3SG
f 32/44/76 3/6/77 61/79/78 90/111/79
s 11
usemtl lambert2SG
f 50/32/80 49/42/81 107/43/82 108/49/83
s 12
f 36/50/84 31/51/85 89/56/86 94/58/87
s 13
f 33/48/88 37/55/89 39/26/90 35/45/91
s 12
f 36/50/84 40/71/92 38/72/93 31/51/85
s 13
f 37/55/89 33/48/88 32/57/94 41/59/95
s 11
f 52/73/96 49/42/81 50/32/80 51/74/97
s 6
f 14/30/33 43/169/98 34/170/99 5/31/34
s 14
f 56/77/100 58/78/101 57/101/102 55/108/103
s 13
f 45/61/104 32/57/94 90/62/105 103/63/106
f 32/57/94 45/61/104 47/64/107 41/59/95
s 11
f 52/73/96 54/110/108 53/118/109 49/42/81
s 15
f 46/80/110 45/61/111 103/63/112 104/81/113
f 48/85/114 47/64/115 45/61/111 46/80/110
s 1
f 42/104/116 41/106/117 47/107/118 48/105/119
f 38/70/120 37/147/121 41/106/117 42/104/116
f 40/123/122 39/180/74 37/182/121 38/109/120
f 44/181/123 43/179/75 39/180/74 40/123/122
s 6
f 30/175/124 34/170/99 43/169/98 44/176/125
f 92/201/126 34/170/99 30/175/124 88/202/127
s 1
f 52/149/128 51/148/129 38/70/120 42/104/116
s 17
f 38/72/130 51/74/131 50/32/132 31/51/133
s 15
f 111/87/134 53/91/135 46/80/110 104/81/113
f 46/80/110 53/91/135 54/93/136 48/85/114
s 1
f 48/105/119 54/150/137 52/149/128 42/104/116
s 18
f 113/120/138 55/108/139 36/50/140 94/58/141
f 36/50/140 55/108/139 57/101/142 40/71/143
s 1
f 40/123/122 57/183/144 58/184/145 44/181/123
s 6
f 44/176/125 58/203/146 56/204/147 30/175/124
s 19
usemtl lambert3SG
f 90/144/148 61/141/149 62/142/150 91/145/151
s 6
usemtl lambert2SG
f 63/205/152 5/31/34 34/170/99 92/201/126
s 4
f 79/83/153 78/34/40 20/20/20 21/18/19
s 3
f 65/89/154 60/88/155 2/2/14 7/1/13
s 7
f 85/90/156 84/92/157 26/27/36 27/22/35
s 2
f 62/95/158 66/96/159 68/97/160 64/98/161
s 3
f 65/89/154 69/94/162 67/114/163 60/88/155
s 2
f 66/96/159 62/95/158 61/99/164 70/112/165
s 4
f 81/115/166 78/34/40 79/83/153 80/116/167
s 6
f 101/206/168 72/207/169 63/205/152 92/201/126
s 7
f 85/90/156 87/117/170 86/121/171 84/92/157
s 2
f 74/113/172 61/99/164 3/19/22 16/24/43
f 61/99/164 74/113/172 76/119/173 70/112/165
s 4
f 81/115/166 83/122/174 82/67/41 78/34/40
s 5
f 75/124/175 74/113/176 16/24/25 17/23/24
f 77/130/177 76/119/178 74/113/176 75/124/175
s 21
f 71/152/179 70/154/180 76/155/181 77/153/182
f 67/151/183 66/156/184 70/154/180 71/152/179
f 69/186/185 68/188/186 66/190/184 67/185/183
f 73/189/187 72/187/188 68/188/186 69/186/185
s 6
f 59/75/60 63/205/152 72/207/169 73/208/189
f 63/205/152 59/75/60 1/11/31 5/31/34
s 21
f 81/158/190 80/157/191 67/151/183 71/152/179
s 8
f 67/114/192 80/116/193 79/83/47 60/88/50
s 5
f 24/47/56 82/132/194 75/124/175 17/23/24
f 75/124/175 82/132/194 83/134/195 77/130/177
s 21
f 77/153/182 83/159/196 81/158/190 71/152/179
s 9
f 26/27/64 84/92/197 65/89/198 7/1/61
f 65/89/198 84/92/197 86/121/199 69/94/200
s 21
f 69/186/185 86/191/201 87/192/202 73/189/187
s 6
f 73/208/189 87/178/203 85/53/58 59/75/60
s 19
usemtl lambert3SG
f 62/142/150 64/143/204 93/146/205 91/145/151
s 21
usemtl lambert2SG
f 98/194/206 96/193/207 95/198/208 97/196/209
f 100/161/210 99/163/211 95/165/208 96/160/207
f 68/188/186 72/187/188 101/195/212 97/196/209
f 102/197/213 98/194/206 97/196/209 101/195/212
s 14
f 56/77/100 55/108/103 113/120/214 114/125/215
s 13
f 91/135/216 93/136/217 97/137/218 95/138/219
s 12
f 94/58/87 89/56/86 96/126/220 98/127/221
s 11
f 109/128/222 108/49/83 107/43/82 110/129/223
s 13
f 99/209/224 90/62/105 91/135/216 95/138/219
s 15
f 106/210/225 104/81/113 103/63/112 105/211/226
s off
f 68/97/227 97/137/228 93/136/229 64/98/230
s 6
f 88/202/127 102/177/231 101/206/168 92/201/126
s 14
f 114/125/215 113/120/214 115/131/232 116/133/233
s 11
f 111/171/234 107/43/82 49/42/81 53/118/109
s 13
f 90/62/105 99/209/224 105/211/235 103/63/106
s 21
f 100/161/210 106/162/236 105/164/237 99/163/211
s 11
f 110/129/223 107/43/82 111/171/234 112/172/238
s 17
f 50/32/132 108/49/239 89/56/240 31/51/133
f 96/126/241 89/56/240 108/49/239 109/128/242
s 21
f 109/166/243 110/167/244 100/161/210 96/160/207
s 15
f 104/81/113 106/210/225 112/212/245 111/87/134
s 21
f 106/162/236 100/161/210 110/167/244 112/168/246
s 6
f 56/204/147 114/174/247 88/202/127 30/175/124
s 18
f 94/58/141 98/127/248 115/131/249 113/120/138
s 21
f 98/194/206 102/197/213 116/199/250 115/200/251
s 6
f 102/177/231 88/202/127 114/174/247 116/173/252
