# This file uses centimeters as units for non-parametric coordinates.

mtllib Book LP3.mtl
g default
v -0.094455 -2.286554 1.443195
v 0.094455 -2.286554 1.443195
v -0.094455 2.286554 1.443195
v 0.094455 2.286554 1.443195
v -0.094455 2.286554 -1.448607
v 0.094455 2.286554 -1.448607
v -0.094455 -2.286554 -1.448607
v 0.094455 -2.286554 -1.448607
v 0.000000 -2.286554 1.676967
v 0.000000 -2.286554 -1.402984
v 0.000000 2.286554 -1.402984
v 0.000000 2.286554 1.676967
v 0.047227 -2.286554 1.597096
v 0.047227 2.286554 1.597096
v 0.047227 2.286554 -1.419290
v 0.047227 -2.286554 -1.419290
v -0.047227 -2.286554 1.597096
v -0.047227 -2.286554 -1.419290
v -0.047227 2.286554 -1.419290
v -0.047227 2.286554 1.597096
v -0.094455 2.286554 1.403338
v -0.047227 2.286554 1.403338
v 0.000000 2.286554 1.403338
v 0.047227 2.286554 1.403338
v 0.094455 2.286554 1.403338
v 0.094455 -2.286554 1.403338
v 0.047227 -2.286554 1.403338
v 0.000000 -2.286554 1.403338
v -0.047227 -2.286554 1.403338
v -0.094455 -2.286554 1.403338
vt 0.504155 0.987854
vt 0.009216 0.984375
vt 0.744206 0.033332
vt 0.740532 0.043967
vt 0.750795 0.152037
vt 0.046941 0.152200
vt 0.046939 0.144931
vt 0.750793 0.144768
vt 0.108571 0.043821
vt 0.108573 0.033185
vt 0.009216 0.280521
vt 0.021509 0.280521
vt 0.504155 0.284000
vt 0.943102 0.284000
vt 0.943102 0.987854
vt 0.072012 0.104656
vt 0.750797 0.159306
vt 0.046943 0.159469
vt 0.068337 0.094022
vt 0.021509 0.984375
vt 0.703970 0.093874
vt 0.703973 0.104510
vt 0.046938 0.137662
vt 0.750792 0.137499
vt 0.972924 0.987854
vt 0.068342 0.115292
vt 0.046944 0.166737
vt 0.750798 0.166574
vt 0.703975 0.115145
vt 0.972924 0.284000
vt 0.744201 0.054603
vt 0.108568 0.054456
vt 0.750811 0.022699
vt 0.108575 0.022550
vt 0.061733 0.083388
vt 0.490278 0.280521
vt 0.703968 0.083239
vt 0.490278 0.984375
vt 0.061743 0.125929
vt 0.703978 0.125780
vt 0.750801 0.065239
vt 0.985217 0.284000
vt 0.108565 0.065091
vt 0.051331 0.984375
vt 0.051331 0.280521
vt 0.045196 0.280521
vt 0.045196 0.984375
vt 0.985217 0.987854
vt 0.949237 0.284000
vt 0.949237 0.987854
vt 0.099590 0.065089
vt 0.064935 0.054445
vt 0.046952 0.043806
vt 0.064940 0.033175
vt 0.099600 0.022548
vt 0.747603 0.093864
vt 0.712943 0.083237
vt 0.765592 0.104496
vt 0.747608 0.115135
vt 0.712953 0.125778
vn 0.000000 0.000000 1.000000
vn 0.000000 0.000000 1.000000
vn 0.927177 0.000000 0.374623
vn 0.927177 0.000000 0.374623
vn 0.000000 1.000000 0.000000
vn 0.000000 1.000000 0.000000
vn 0.000000 1.000000 0.000000
vn 0.000000 1.000000 0.000000
vn 0.000000 0.000000 -1.000000
vn 0.000000 0.000000 -1.000000
vn -0.434934 0.000000 -0.900462
vn -0.434934 0.000000 -0.900462
vn 0.000000 -1.000000 0.000000
vn 0.000000 -1.000000 0.000000
vn 0.000000 -1.000000 0.000000
vn 0.000000 -1.000000 0.000000
vn 1.000000 0.000000 0.000000
vn 1.000000 0.000000 0.000000
vn 1.000000 0.000000 0.000000
vn 1.000000 0.000000 0.000000
vn -1.000000 0.000000 0.000000
vn -1.000000 0.000000 0.000000
vn -1.000000 0.000000 0.000000
vn -1.000000 0.000000 0.000000
vn 0.000000 -1.000000 0.000000
vn 0.000000 -1.000000 0.000000
vn 0.434934 0.000000 -0.900462
vn 0.434934 0.000000 -0.900462
vn 0.000000 1.000000 0.000000
vn 0.000000 1.000000 0.000000
vn -0.927177 0.000000 0.374623
vn -0.927177 0.000000 0.374623
vn 0.956000 0.000000 0.293368
vn 0.956000 0.000000 0.293368
vn 0.000000 1.000000 0.000000
vn 0.000000 1.000000 0.000000
vn -0.527411 0.000000 -0.849610
vn -0.527411 0.000000 -0.849610
vn 0.000000 -1.000000 0.000000
vn 0.000000 -1.000000 0.000000
vn 0.000000 -1.000000 0.000000
vn 0.000000 -1.000000 0.000000
vn 0.527411 0.000000 -0.849610
vn 0.527411 0.000000 -0.849610
vn 0.000000 1.000000 0.000000
vn 0.000000 1.000000 0.000000
vn -0.956000 0.000000 0.293368
vn -0.956000 0.000000 0.293368
vn 0.000000 1.000000 0.000000
vn 0.000000 1.000000 0.000000
vn 0.000000 1.000000 0.000000
vn 0.000000 1.000000 0.000000
vn 0.000000 1.000000 0.000000
vn 1.000000 0.000000 0.000000
vn 1.000000 0.000000 0.000000
vn 0.000000 -1.000000 0.000000
vn 0.000000 -1.000000 0.000000
vn 0.000000 -1.000000 0.000000
vn 0.000000 -1.000000 0.000000
vn 0.000000 -1.000000 0.000000
vn -1.000000 0.000000 0.000000
vn -1.000000 0.000000 0.000000
s 1
g pCube1
usemtl initialShadingGroup
f 12/2/1 9/11/2 13/12/3 14/20/4
s 2
f 15/3/5 11/4/6 23/9/7 24/10/8
s 3
f 10/5/9 11/6/10 15/7/11 16/8/12
s 4
f 10/16/13 16/19/14 27/21/15 28/22/16
s 5
f 8/36/17 6/38/18 25/44/19 26/45/20
s 6
f 5/1/21 7/13/22 30/14/23 21/15/24
s 4
f 18/26/25 10/16/13 28/22/16 29/29/26
s 3
f 18/17/27 19/18/28 11/6/10 10/5/9
s 2
f 11/4/6 19/31/29 22/32/30 23/9/7
s 1
f 20/25/31 17/30/32 9/42/2 12/48/1
f 14/20/4 13/12/3 2/46/33 4/47/34
s 2
f 6/33/35 15/3/5 24/10/8 25/34/36
s 3
f 16/8/12 15/7/11 6/23/37 8/24/38
s 4
f 16/19/14 8/35/39 26/37/40 27/21/15
f 7/39/41 18/26/25 29/29/26 30/40/42
s 3
f 5/27/43 19/18/28 18/17/27 7/28/44
s 2
f 19/31/29 5/41/45 21/43/46 22/32/30
s 1
f 1/49/47 17/30/32 20/25/31 3/50/48
s 2
f 3/51/49 20/52/50 22/32/30 21/43/46
f 23/9/7 22/32/30 20/52/50 12/53/51
f 24/10/8 23/9/7 12/53/51 14/54/52
f 25/34/36 24/10/8 14/54/52 4/55/53
s 5
f 2/46/54 26/45/20 25/44/19 4/47/55
s 4
f 13/56/56 27/21/15 26/37/40 2/57/57
f 9/58/58 28/22/16 27/21/15 13/56/56
f 17/59/59 29/29/26 28/22/16 9/58/58
f 30/40/42 29/29/26 17/59/59 1/60/60
s 6
f 21/15/24 30/14/23 1/49/61 3/50/62
