# This file uses centimeters as units for non-parametric coordinates.

g default
v -1.263760 -0.754434 0.896114
v 1.263760 -0.754434 0.896114
v -1.263760 0.754434 0.896114
v 1.263760 0.754434 0.896114
v -1.263760 0.754434 -0.896114
v 1.263760 0.754434 -0.896114
v -1.263760 -0.754434 -0.896114
v 1.263760 -0.754434 -0.896114
v -1.263760 0.282526 0.896114
v -1.263760 0.298583 0.896114
v 1.263760 0.298583 0.896114
v 1.263760 0.282526 0.896114
v 1.263760 0.298583 -0.896114
v 1.263760 0.282526 -0.896114
v -1.263760 0.298583 -0.896114
v -1.263760 0.282526 -0.896114
v -1.253429 0.282592 0.888789
v -1.253429 0.298517 0.888789
v -1.253429 0.298517 -0.888789
v -1.253429 0.282592 -0.888789
v 1.253429 0.282592 0.888789
v 1.253429 0.298517 0.888789
v 1.253429 0.282592 -0.888789
v 1.253429 0.298517 -0.888789
vt 0.461132 0.004765
vt 0.431926 0.943305
vt 0.431926 0.945497
vt 0.903282 0.004765
vt 0.903282 0.446915
vt 0.225881 0.945497
vt 0.225881 0.943305
vt 0.461132 0.446915
vt 0.985955 0.458901
vt 0.649334 0.944825
vt 0.649334 0.941219
vt 0.988165 0.941219
vt 0.988165 0.944825
vt 0.653426 0.828237
vt 0.995050 0.828237
vt 0.995050 0.931447
vt 0.653426 0.931447
vt 0.004951 0.882091
vt 0.985955 0.666644
vt 0.212693 0.882091
vt 0.212693 0.944853
vt 0.004951 0.944853
vt 0.424310 0.458901
vt 0.765934 0.458901
vt 0.765934 0.693680
vt 0.424310 0.693680
vt 0.424310 0.704380
vt 0.632052 0.704380
vt 0.632052 0.847150
vt 0.424310 0.847150
vt 0.985106 0.665795
vt 0.985106 0.459750
vt 0.004950 0.446921
vt 0.004950 0.004765
vt 0.238155 0.932257
vt 0.238155 0.927975
vt 0.640532 0.927975
vt 0.640532 0.932257
vt 0.442721 0.957771
vt 0.442721 0.955579
vt 0.648765 0.955579
vt 0.648765 0.957771
vt 0.004950 0.748166
vt 0.410645 0.748166
vt 0.410645 0.870732
vt 0.004950 0.870732
vt 0.632052 0.920305
vt 0.424310 0.920305
vt 0.424310 0.857543
vt 0.632052 0.857543
vt 0.004950 0.458901
vt 0.410645 0.458901
vt 0.410645 0.737712
vt 0.004950 0.737712
vt 0.981863 0.820556
vt 0.774121 0.820556
vt 0.774121 0.677786
vt 0.981863 0.677786
vt 0.006758 0.006572
vt 0.006758 0.445114
vt 0.447107 0.004765
vt 0.445300 0.006572
vt 0.778212 0.458901
vt 0.779061 0.459750
vt 0.447107 0.446921
vt 0.445300 0.445114
vt 0.778212 0.666644
vt 0.779061 0.665795
vn 0.000000 1.000000 0.000000
vn 0.000000 1.000000 0.000000
vn 0.000000 1.000000 0.000000
vn 0.000000 1.000000 0.000000
vn -1.000000 0.000000 0.000000
vn -1.000000 0.000000 0.000000
vn -1.000000 0.000000 0.000000
vn -1.000000 0.000000 0.000000
vn 0.000000 0.000000 1.000000
vn 0.000000 0.000000 1.000000
vn 0.000000 0.000000 1.000000
vn 0.000000 0.000000 1.000000
vn 1.000000 0.000000 0.000000
vn 1.000000 0.000000 0.000000
vn 1.000000 0.000000 0.000000
vn 1.000000 0.000000 0.000000
vn 0.000000 0.000000 -1.000000
vn 0.000000 0.000000 -1.000000
vn 0.000000 0.000000 -1.000000
vn 0.000000 0.000000 -1.000000
vn 0.000000 0.000000 1.000000
vn 0.000000 0.000000 1.000000
vn 0.000000 0.000000 1.000000
vn 0.000000 0.000000 1.000000
vn 0.000000 0.000000 -1.000000
vn 0.000000 0.000000 -1.000000
vn 0.000000 0.000000 -1.000000
vn 0.000000 0.000000 -1.000000
vn 1.000000 0.000000 0.000000
vn 1.000000 0.000000 0.000000
vn 1.000000 0.000000 0.000000
vn 1.000000 0.000000 0.000000
vn -1.000000 0.000000 0.000000
vn -1.000000 0.000000 0.000000
vn -1.000000 0.000000 0.000000
vn -1.000000 0.000000 0.000000
vn 0.000000 0.000000 1.000000
vn 0.000000 0.000000 1.000000
vn 0.000000 0.000000 1.000000
vn 0.000000 0.000000 1.000000
vn 1.000000 0.000000 0.000000
vn 1.000000 0.000000 0.000000
vn 1.000000 0.000000 0.000000
vn 1.000000 0.000000 0.000000
vn 0.000000 0.000000 -1.000000
vn 0.000000 0.000000 -1.000000
vn 0.000000 0.000000 -1.000000
vn 0.000000 0.000000 -1.000000
vn -1.000000 0.000000 0.000000
vn -1.000000 0.000000 0.000000
vn -1.000000 0.000000 0.000000
vn -1.000000 0.000000 0.000000
vn -0.006353 -0.999980 -0.000000
vn -0.006353 -0.999980 -0.000000
vn -0.006353 -0.999980 -0.000000
vn -0.006353 -0.999980 -0.000000
vn -0.006353 0.999980 0.000000
vn -0.006353 0.999980 0.000000
vn -0.006353 0.999980 0.000000
vn -0.006353 0.999980 0.000000
vn 0.000000 0.999960 0.008958
vn 0.000000 0.999960 0.008958
vn 0.000000 0.999960 0.008958
vn 0.000000 0.999960 0.008958
vn 0.000000 -0.999960 0.008958
vn 0.000000 -0.999960 0.008958
vn 0.000000 -0.999960 0.008958
vn 0.000000 -0.999960 0.008958
vn 0.006353 0.999980 0.000000
vn 0.006353 0.999980 0.000000
vn 0.006353 0.999980 0.000000
vn 0.006353 0.999980 0.000000
vn 0.006353 -0.999980 -0.000000
vn 0.006353 -0.999980 -0.000000
vn 0.006353 -0.999980 -0.000000
vn 0.006353 -0.999980 -0.000000
vn 0.000000 0.999960 -0.008958
vn 0.000000 0.999960 -0.008958
vn 0.000000 0.999960 -0.008958
vn 0.000000 0.999960 -0.008958
vn 0.000000 -0.999960 -0.008958
vn 0.000000 -0.999960 -0.008958
vn 0.000000 -0.999960 -0.008958
vn 0.000000 -0.999960 -0.008958
s off
g pCube1
f 3/1/1 4/4/2 6/5/3 5/8/4
f 17/2/5 18/3/6 19/6/7 20/7/8
f 18/35/9 17/36/10 21/37/11 22/38/12
f 22/10/13 21/11/14 23/12/15 24/13/16
f 24/39/17 23/40/18 20/41/19 19/42/20
f 10/43/21 11/44/22 4/45/23 3/46/24
f 5/47/25 6/48/26 13/49/27 15/50/28
f 11/14/29 13/15/30 6/16/31 4/17/32
f 15/18/33 10/20/34 3/21/35 5/22/36
f 1/51/37 2/52/38 12/53/39 9/54/40
f 2/23/41 8/24/42 14/25/43 12/26/44
f 16/55/45 14/56/46 8/57/47 7/58/48
f 7/27/49 1/28/50 9/29/51 16/30/52
f 10/9/53 15/19/54 19/31/55 18/32/56
f 16/33/57 9/34/58 17/59/59 20/60/60
f 9/34/61 12/61/62 21/62/63 17/59/64
f 11/63/65 10/9/66 18/32/67 22/64/68
f 12/61/69 14/65/70 23/66/71 21/62/72
f 13/67/73 11/63/74 22/64/75 24/68/76
f 14/65/77 16/33/78 20/60/79 23/66/80
f 15/19/81 13/67/82 24/68/83 19/31/84
