# This file uses centimeters as units for non-parametric coordinates.

g default
v 7.555678 -2.218748 4.830625
v 8.895448 -2.218748 4.830625
v 7.555678 4.399338 4.830625
v 8.895448 4.399338 4.830625
v 7.555678 4.399338 3.580173
v 8.895448 4.399338 3.580173
v 7.555678 -2.218748 3.580173
v 8.895448 -2.218748 3.580173
v 1.166943 -0.990162 -3.882741
v 1.166943 -0.990162 3.907416
v 1.166943 -0.672087 -3.882741
v 1.166943 -0.672087 3.907416
v 2.276986 -0.672087 -3.882741
v 2.276986 -0.672087 3.907416
v 2.276986 -0.990162 -3.882741
v 2.276986 -0.990162 3.907416
v -0.468855 -0.990162 -3.882741
v -0.468855 -0.990162 3.907416
v -0.468855 -0.672087 -3.882741
v -0.468855 -0.672087 3.907416
v 0.641188 -0.672087 -3.882741
v 0.641188 -0.672087 3.907416
v 0.641188 -0.990162 -3.882741
v 0.641188 -0.990162 3.907416
v -2.089073 -0.990162 -3.882741
v -2.089073 -0.990162 3.907416
v -2.089073 -0.672087 -3.882741
v -2.089073 -0.672087 3.907416
v -0.979030 -0.672087 -3.882741
v -0.979030 -0.672087 3.907416
v -0.979030 -0.990162 -3.882741
v -0.979030 -0.990162 3.907416
v -3.787187 -0.990162 -3.882741
v -3.787187 -0.990162 3.907416
v -3.787187 -0.672087 -3.882741
v -3.787187 -0.672087 3.907416
v -2.677144 -0.672087 -3.882741
v -2.677144 -0.672087 3.907416
v -2.677144 -0.990162 -3.882741
v -2.677144 -0.990162 3.907416
v -11.824469 -2.218748 4.830625
v -10.484699 -2.218748 4.830625
v -11.824469 4.399338 4.830625
v -10.484699 4.399338 4.830625
v -11.824469 4.399338 3.580173
v -10.484699 4.399338 3.580173
v -11.824469 -2.218748 3.580173
v -10.484699 -2.218748 3.580173
v -11.956388 4.369778 4.982892
v 9.065338 4.369778 4.982892
v -11.956388 4.369778 -4.982892
v 9.065338 4.369778 -4.982892
v -11.956388 4.885753 4.982892
v -11.859249 4.982892 4.885753
v 8.968199 4.982892 4.885753
v 9.065338 4.885753 4.982892
v -11.859249 4.982892 -4.885753
v -11.956388 4.885753 -4.982892
v 8.968199 4.982892 -4.885753
v 9.065338 4.885753 -4.982892
v -5.485301 -0.990162 -3.882741
v -5.485301 -0.990162 3.907416
v -5.485301 -0.672087 -3.882741
v -5.485301 -0.672087 3.907416
v -4.375257 -0.672087 -3.882741
v -4.375257 -0.672087 3.907416
v -4.375257 -0.990162 -3.882741
v -4.375257 -0.990162 3.907416
v -7.074361 -0.990162 -3.882741
v -7.074361 -0.990162 3.907416
v -7.074361 -0.672087 -3.882741
v -7.074361 -0.672087 3.907416
v -5.964317 -0.672087 -3.882741
v -5.964317 -0.672087 3.907416
v -5.964317 -0.990162 -3.882741
v -5.964317 -0.990162 3.907416
v -8.679000 -0.990162 -3.882741
v -8.679000 -0.990162 3.907416
v -8.679000 -0.672087 -3.882741
v -8.679000 -0.672087 3.907416
v -7.568957 -0.672087 -3.882741
v -7.568957 -0.672087 3.907416
v -7.568957 -0.990162 -3.882741
v -7.568957 -0.990162 3.907416
v 8.839728 3.422201 3.714741
v 8.839728 3.422201 -3.810087
v 8.839728 4.398796 3.714741
v 8.839728 4.398796 -3.810087
v -10.797745 4.398796 -4.784121
v 7.806562 4.398796 -4.784121
v -10.797745 3.422201 -4.784121
v 7.806562 3.422201 -4.784121
v -10.797745 3.422201 4.809415
v 7.806562 3.422201 4.809415
v -10.797745 4.398796 4.809415
v 7.806562 4.398796 4.809415
v -11.740244 3.422201 3.714741
v -11.740244 3.422201 -3.810087
v -11.740244 4.398796 3.714741
v -11.740244 4.398796 -3.810087
v 6.214546 -0.990162 -3.882741
v 6.214546 -0.990162 3.907416
v 6.214546 -0.672087 -3.882741
v 6.214546 -0.672087 3.907416
v 7.324590 -0.672087 -3.882741
v 7.324590 -0.672087 3.907416
v 7.324590 -0.990162 -3.882741
v 7.324590 -0.990162 3.907416
v 4.547591 -0.990162 -3.882741
v 4.547591 -0.990162 3.907416
v 4.547591 -0.672087 -3.882741
v 4.547591 -0.672087 3.907416
v 5.657634 -0.672087 -3.882741
v 5.657634 -0.672087 3.907416
v 5.657634 -0.990162 -3.882741
v 5.657634 -0.990162 3.907416
v 2.865056 -0.990162 -3.882741
v 2.865056 -0.990162 3.907416
v 2.865056 -0.672087 -3.882741
v 2.865056 -0.672087 3.907416
v 3.975100 -0.672087 -3.882741
v 3.975100 -0.672087 3.907416
v 3.975100 -0.990162 -3.882741
v 3.975100 -0.990162 3.907416
v -11.726809 -1.092738 -3.882741
v -11.726809 -1.092738 3.907416
v -11.726809 -0.474161 -3.882741
v -11.726809 -0.474161 3.907416
v -10.603409 -0.474161 -3.882741
v -10.603409 -0.474161 3.907416
v -10.603409 -1.092738 -3.882741
v -10.603409 -1.092738 3.907416
v -10.330377 -0.990162 -3.882741
v -10.330377 -0.990162 3.907416
v -10.330377 -0.672087 -3.882741
v -10.330377 -0.672087 3.907416
v -9.220334 -0.672087 -3.882741
v -9.220334 -0.672087 3.907416
v -9.220334 -0.990162 -3.882741
v -9.220334 -0.990162 3.907416
v -11.824469 -2.218748 -3.594030
v -10.484699 -2.218748 -3.594030
v -11.824469 4.399338 -3.594030
v -10.484699 4.399338 -3.594030
v -11.824469 4.399338 -4.844482
v -10.484699 4.399338 -4.844482
v -11.824469 -2.218748 -4.844482
v -10.484699 -2.218748 -4.844482
v 7.555678 -2.218748 -3.594030
v 8.895448 -2.218748 -3.594030
v 7.555678 4.399338 -3.594030
v 8.895448 4.399338 -3.594030
v 7.555678 4.399338 -4.844482
v 8.895448 4.399338 -4.844482
v 7.555678 -2.218748 -4.844482
v 8.895448 -2.218748 -4.844482
v 7.655178 -1.092738 -3.882741
v 7.655178 -1.092738 3.907416
v 7.655178 -0.474161 -3.882741
v 7.655178 -0.474161 3.907416
v 8.778577 -0.474161 -3.882741
v 8.778577 -0.474161 3.907416
v 8.778577 -1.092738 -3.882741
v 8.778577 -1.092738 3.907416
v -10.707857 -1.092912 -3.748607
v 7.803840 -1.092912 -3.748607
v -10.707857 -0.473697 -3.748607
v 7.803840 -0.473697 -3.748607
v -10.707857 -0.473697 -4.793867
v 7.803840 -0.473697 -4.793867
v -10.707857 -1.092912 -4.793867
v 7.803840 -1.092912 -4.793867
v -10.707857 -1.092912 4.731046
v 7.803840 -1.092912 4.731046
v -10.707857 -0.473697 4.731046
v 7.803840 -0.473697 4.731046
v -10.707857 -0.473697 3.685785
v 7.803840 -0.473697 3.685785
v -10.707857 -1.092912 3.685785
v 7.803840 -1.092912 3.685785
vt 0.754336 0.691569
vt 0.754307 0.973154
vt 0.926414 0.973124
vt 0.926468 0.691555
vt 0.812727 0.691571
vt 0.868709 0.691565
vt 0.868779 0.973148
vt 0.812558 0.973163
vt 0.981693 0.691533
vt 0.981714 0.973066
vt 0.888075 0.649484
vt 0.888082 0.292451
vt 0.905733 0.292449
vt 0.905738 0.649484
vt 0.953965 0.292440
vt 0.953969 0.649486
vt 0.971575 0.292440
vt 0.971573 0.649487
vt 0.888075 0.649484
vt 0.888082 0.292451
vt 0.905733 0.292449
vt 0.905738 0.649484
vt 0.953965 0.292440
vt 0.953969 0.649486
vt 0.971575 0.292440
vt 0.971573 0.649487
vt 0.888075 0.649484
vt 0.888082 0.292451
vt 0.905733 0.292449
vt 0.905738 0.649484
vt 0.953965 0.292440
vt 0.953969 0.649486
vt 0.971575 0.292440
vt 0.971573 0.649487
vt 0.888075 0.649484
vt 0.888082 0.292451
vt 0.905733 0.292449
vt 0.905738 0.649484
vt 0.953965 0.292440
vt 0.953969 0.649486
vt 0.971575 0.292440
vt 0.971573 0.649487
vt 0.754336 0.691569
vt 0.812727 0.691571
vt 0.812558 0.973163
vt 0.754307 0.973154
vt 0.926414 0.973124
vt 0.868779 0.973148
vt 0.868709 0.691565
vt 0.926468 0.691555
vt 0.981693 0.691533
vt 0.981714 0.973066
vt 0.042881 0.046634
vt 0.455795 0.046633
vt 0.452306 0.052888
vt 0.046374 0.052889
vt 0.036185 0.957929
vt 0.462489 0.957926
vt 0.466583 0.963959
vt 0.032096 0.963959
vt 0.466592 0.986403
vt 0.032086 0.986405
vt 0.042614 0.024662
vt 0.456062 0.024661
vt 0.040438 0.048674
vt 0.030146 0.961999
vt 0.007698 0.961761
vt 0.018070 0.048397
vt 0.458238 0.048676
vt 0.468533 0.962001
vt 0.490979 0.961761
vt 0.480608 0.048398
vt 0.888075 0.649484
vt 0.888082 0.292451
vt 0.905733 0.292449
vt 0.905738 0.649484
vt 0.953965 0.292440
vt 0.953969 0.649486
vt 0.971575 0.292440
vt 0.971573 0.649487
vt 0.888075 0.649484
vt 0.888082 0.292451
vt 0.905733 0.292449
vt 0.905738 0.649484
vt 0.953965 0.292440
vt 0.953969 0.649486
vt 0.971575 0.292440
vt 0.971573 0.649487
vt 0.888075 0.649484
vt 0.888082 0.292451
vt 0.905733 0.292449
vt 0.905738 0.649484
vt 0.953965 0.292440
vt 0.953969 0.649486
vt 0.971575 0.292440
vt 0.971573 0.649487
vt 0.671298 0.974406
vt 0.671298 0.460870
vt 0.733217 0.460870
vt 0.733217 0.974406
vt 0.660633 0.981466
vt 0.660633 0.185319
vt 0.618798 0.185319
vt 0.618798 0.981466
vt 0.618798 0.981466
vt 0.618798 0.185319
vt 0.660633 0.185319
vt 0.660633 0.981466
vt 0.671298 0.974406
vt 0.671298 0.460870
vt 0.733217 0.460870
vt 0.733217 0.974406
vt 0.888075 0.649484
vt 0.888082 0.292451
vt 0.905733 0.292449
vt 0.905738 0.649484
vt 0.953965 0.292440
vt 0.953969 0.649486
vt 0.971575 0.292440
vt 0.971573 0.649487
vt 0.888075 0.649484
vt 0.888082 0.292451
vt 0.905733 0.292449
vt 0.905738 0.649484
vt 0.953965 0.292440
vt 0.953969 0.649486
vt 0.971575 0.292440
vt 0.971573 0.649487
vt 0.888075 0.649484
vt 0.888082 0.292451
vt 0.905733 0.292449
vt 0.905738 0.649484
vt 0.953965 0.292440
vt 0.953969 0.649486
vt 0.971575 0.292440
vt 0.971573 0.649487
vt 0.749350 0.654317
vt 0.749360 0.297271
vt 0.780776 0.297261
vt 0.780769 0.654320
vt 0.829176 0.297252
vt 0.829186 0.654322
vt 0.860892 0.297252
vt 0.860895 0.654322
vt 0.888075 0.649484
vt 0.888082 0.292451
vt 0.905733 0.292449
vt 0.905738 0.649484
vt 0.953965 0.292440
vt 0.953969 0.649486
vt 0.971575 0.292440
vt 0.971573 0.649487
vt 0.754336 0.691569
vt 0.812727 0.691571
vt 0.812558 0.973163
vt 0.754307 0.973154
vt 0.926414 0.973124
vt 0.868779 0.973148
vt 0.868709 0.691565
vt 0.926468 0.691555
vt 0.981693 0.691533
vt 0.981714 0.973066
vt 0.752798 0.691569
vt 0.811189 0.691571
vt 0.811020 0.973163
vt 0.752769 0.973154
vt 0.924876 0.973123
vt 0.867241 0.973148
vt 0.867171 0.691565
vt 0.924930 0.691555
vt 0.980155 0.691533
vt 0.980176 0.973066
vt 0.749350 0.654317
vt 0.749360 0.297271
vt 0.780776 0.297261
vt 0.780769 0.654320
vt 0.829176 0.297252
vt 0.829186 0.654322
vt 0.860892 0.297252
vt 0.860895 0.654322
vt 0.506604 0.981877
vt 0.506605 0.192562
vt 0.534930 0.192559
vt 0.534929 0.981877
vt 0.576607 0.192560
vt 0.576608 0.981877
vt 0.605258 0.192556
vt 0.605259 0.981878
vt 0.506604 0.981877
vt 0.506605 0.192562
vt 0.534929 0.192559
vt 0.534929 0.981877
vt 0.576607 0.192560
vt 0.576608 0.981877
vt 0.605258 0.192556
vt 0.605259 0.981878
vn 0.000000 0.000000 1.000000
vn 0.000000 0.000000 1.000000
vn 0.000000 0.000000 1.000000
vn 0.000000 0.000000 1.000000
vn 0.000000 0.000000 -1.000000
vn 0.000000 0.000000 -1.000000
vn 0.000000 0.000000 -1.000000
vn 0.000000 0.000000 -1.000000
vn 1.000000 0.000000 0.000000
vn 1.000000 0.000000 0.000000
vn 1.000000 0.000000 0.000000
vn 1.000000 0.000000 0.000000
vn -1.000000 0.000000 0.000000
vn -1.000000 0.000000 0.000000
vn -1.000000 0.000000 0.000000
vn -1.000000 0.000000 0.000000
vn -1.000000 0.000000 0.000000
vn -1.000000 0.000000 0.000000
vn -1.000000 0.000000 0.000000
vn -1.000000 0.000000 0.000000
vn 0.000000 1.000000 0.000000
vn 0.000000 1.000000 0.000000
vn 0.000000 1.000000 0.000000
vn 0.000000 1.000000 0.000000
vn 1.000000 0.000000 0.000000
vn 1.000000 0.000000 0.000000
vn 1.000000 0.000000 0.000000
vn 1.000000 0.000000 0.000000
vn -1.000000 0.000000 0.000000
vn -1.000000 0.000000 0.000000
vn -1.000000 0.000000 0.000000
vn -1.000000 0.000000 0.000000
vn 0.000000 1.000000 0.000000
vn 0.000000 1.000000 0.000000
vn 0.000000 1.000000 0.000000
vn 0.000000 1.000000 0.000000
vn 1.000000 0.000000 0.000000
vn 1.000000 0.000000 0.000000
vn 1.000000 0.000000 0.000000
vn 1.000000 0.000000 0.000000
vn -1.000000 0.000000 0.000000
vn -1.000000 0.000000 0.000000
vn -1.000000 0.000000 0.000000
vn -1.000000 0.000000 0.000000
vn 0.000000 1.000000 0.000000
vn 0.000000 1.000000 0.000000
vn 0.000000 1.000000 0.000000
vn 0.000000 1.000000 0.000000
vn 1.000000 0.000000 0.000000
vn 1.000000 0.000000 0.000000
vn 1.000000 0.000000 0.000000
vn 1.000000 0.000000 0.000000
vn -1.000000 0.000000 0.000000
vn -1.000000 0.000000 0.000000
vn -1.000000 0.000000 0.000000
vn -1.000000 0.000000 0.000000
vn 0.000000 1.000000 0.000000
vn 0.000000 1.000000 0.000000
vn 0.000000 1.000000 0.000000
vn 0.000000 1.000000 0.000000
vn 1.000000 0.000000 0.000000
vn 1.000000 0.000000 0.000000
vn 1.000000 0.000000 0.000000
vn 1.000000 0.000000 0.000000
vn 0.000000 0.000000 1.000000
vn 0.000000 0.000000 1.000000
vn 0.000000 0.000000 1.000000
vn 0.000000 0.000000 1.000000
vn 0.000000 0.000000 -1.000000
vn 0.000000 0.000000 -1.000000
vn 0.000000 0.000000 -1.000000
vn 0.000000 0.000000 -1.000000
vn 1.000000 0.000000 0.000000
vn 1.000000 0.000000 0.000000
vn 1.000000 0.000000 0.000000
vn 1.000000 0.000000 0.000000
vn -1.000000 0.000000 0.000000
vn -1.000000 0.000000 0.000000
vn -1.000000 0.000000 0.000000
vn -1.000000 0.000000 0.000000
vn -0.707107 0.707107 0.000000
vn -0.707107 0.707107 0.000000
vn -0.707107 0.707107 0.000000
vn -0.707107 0.707107 0.000000
vn 0.707106 0.707108 0.000000
vn 0.707106 0.707108 0.000000
vn 0.707106 0.707108 0.000000
vn 0.707106 0.707108 0.000000
vn 1.000000 0.000000 0.000000
vn 1.000000 0.000000 0.000000
vn 1.000000 0.000000 0.000000
vn 1.000000 0.000000 0.000000
vn -1.000000 0.000000 0.000000
vn -1.000000 0.000000 0.000000
vn -1.000000 0.000000 0.000000
vn -1.000000 0.000000 0.000000
vn 0.000000 0.000000 -1.000000
vn 0.000000 0.000000 -1.000000
vn 0.000000 0.000000 -1.000000
vn 0.000000 0.000000 -1.000000
vn 0.000000 0.707108 -0.707106
vn 0.000000 0.707108 -0.707106
vn 0.000000 0.707108 -0.707106
vn 0.000000 0.707108 -0.707106
vn 0.000000 1.000000 0.000000
vn 0.000000 1.000000 0.000000
vn 0.000000 1.000000 0.000000
vn 0.000000 1.000000 0.000000
vn 0.000000 0.707108 0.707106
vn 0.000000 0.707108 0.707106
vn 0.000000 0.707108 0.707106
vn 0.000000 0.707108 0.707106
vn 0.000000 0.000000 1.000000
vn 0.000000 0.000000 1.000000
vn 0.000000 0.000000 1.000000
vn 0.000000 0.000000 1.000000
vn -1.000000 0.000000 0.000000
vn -1.000000 0.000000 0.000000
vn -1.000000 0.000000 0.000000
vn -1.000000 0.000000 0.000000
vn 0.000000 1.000000 0.000000
vn 0.000000 1.000000 0.000000
vn 0.000000 1.000000 0.000000
vn 0.000000 1.000000 0.000000
vn 1.000000 0.000000 0.000000
vn 1.000000 0.000000 0.000000
vn 1.000000 0.000000 0.000000
vn 1.000000 0.000000 0.000000
vn -1.000000 0.000000 0.000000
vn -1.000000 0.000000 0.000000
vn -1.000000 0.000000 0.000000
vn -1.000000 0.000000 0.000000
vn 0.000000 1.000000 0.000000
vn 0.000000 1.000000 0.000000
vn 0.000000 1.000000 0.000000
vn 0.000000 1.000000 0.000000
vn 1.000000 0.000000 0.000000
vn 1.000000 0.000000 0.000000
vn 1.000000 0.000000 0.000000
vn 1.000000 0.000000 0.000000
vn -1.000000 0.000000 0.000000
vn -1.000000 0.000000 0.000000
vn -1.000000 0.000000 0.000000
vn -1.000000 0.000000 0.000000
vn 0.000000 1.000000 0.000000
vn 0.000000 1.000000 0.000000
vn 0.000000 1.000000 0.000000
vn 0.000000 1.000000 0.000000
vn 1.000000 0.000000 0.000000
vn 1.000000 0.000000 0.000000
vn 1.000000 0.000000 0.000000
vn 1.000000 0.000000 0.000000
vn 1.000000 0.000000 0.000000
vn 1.000000 0.000000 0.000000
vn 1.000000 0.000000 0.000000
vn 1.000000 0.000000 0.000000
vn 0.000000 0.000000 -1.000000
vn 0.000000 0.000000 -1.000000
vn 0.000000 0.000000 -1.000000
vn 0.000000 0.000000 -1.000000
vn 0.000000 0.000000 1.000000
vn 0.000000 0.000000 1.000000
vn 0.000000 0.000000 1.000000
vn 0.000000 0.000000 1.000000
vn -1.000000 0.000000 0.000000
vn -1.000000 0.000000 0.000000
vn -1.000000 0.000000 0.000000
vn -1.000000 0.000000 0.000000
vn -1.000000 0.000000 0.000000
vn -1.000000 0.000000 0.000000
vn -1.000000 0.000000 0.000000
vn -1.000000 0.000000 0.000000
vn 0.000000 1.000000 0.000000
vn 0.000000 1.000000 0.000000
vn 0.000000 1.000000 0.000000
vn 0.000000 1.000000 0.000000
vn 1.000000 0.000000 0.000000
vn 1.000000 0.000000 0.000000
vn 1.000000 0.000000 0.000000
vn 1.000000 0.000000 0.000000
vn -1.000000 0.000000 0.000000
vn -1.000000 0.000000 0.000000
vn -1.000000 0.000000 0.000000
vn -1.000000 0.000000 0.000000
vn 0.000000 1.000000 0.000000
vn 0.000000 1.000000 0.000000
vn 0.000000 1.000000 0.000000
vn 0.000000 1.000000 0.000000
vn 1.000000 0.000000 0.000000
vn 1.000000 0.000000 0.000000
vn 1.000000 0.000000 0.000000
vn 1.000000 0.000000 0.000000
vn -1.000000 0.000000 0.000000
vn -1.000000 0.000000 0.000000
vn -1.000000 0.000000 0.000000
vn -1.000000 0.000000 0.000000
vn 0.000000 1.000000 0.000000
vn 0.000000 1.000000 0.000000
vn 0.000000 1.000000 0.000000
vn 0.000000 1.000000 0.000000
vn 1.000000 0.000000 0.000000
vn 1.000000 0.000000 0.000000
vn 1.000000 0.000000 0.000000
vn 1.000000 0.000000 0.000000
vn -1.000000 0.000000 0.000000
vn -1.000000 0.000000 0.000000
vn -1.000000 0.000000 0.000000
vn -1.000000 0.000000 0.000000
vn 0.000000 1.000000 0.000000
vn 0.000000 1.000000 0.000000
vn 0.000000 1.000000 0.000000
vn 0.000000 1.000000 0.000000
vn 1.000000 0.000000 0.000000
vn 1.000000 0.000000 0.000000
vn 1.000000 0.000000 0.000000
vn 1.000000 0.000000 0.000000
vn -1.000000 0.000000 0.000000
vn -1.000000 0.000000 0.000000
vn -1.000000 0.000000 0.000000
vn -1.000000 0.000000 0.000000
vn 0.000000 1.000000 0.000000
vn 0.000000 1.000000 0.000000
vn 0.000000 1.000000 0.000000
vn 0.000000 1.000000 0.000000
vn 1.000000 0.000000 0.000000
vn 1.000000 0.000000 0.000000
vn 1.000000 0.000000 0.000000
vn 1.000000 0.000000 0.000000
vn 0.000000 0.000000 1.000000
vn 0.000000 0.000000 1.000000
vn 0.000000 0.000000 1.000000
vn 0.000000 0.000000 1.000000
vn 0.000000 0.000000 -1.000000
vn 0.000000 0.000000 -1.000000
vn 0.000000 0.000000 -1.000000
vn 0.000000 0.000000 -1.000000
vn 1.000000 0.000000 0.000000
vn 1.000000 0.000000 0.000000
vn 1.000000 0.000000 0.000000
vn 1.000000 0.000000 0.000000
vn -1.000000 0.000000 0.000000
vn -1.000000 0.000000 0.000000
vn -1.000000 0.000000 0.000000
vn -1.000000 0.000000 0.000000
vn 0.000000 0.000000 1.000000
vn 0.000000 0.000000 1.000000
vn 0.000000 0.000000 1.000000
vn 0.000000 0.000000 1.000000
vn 0.000000 0.000000 -1.000000
vn 0.000000 0.000000 -1.000000
vn 0.000000 0.000000 -1.000000
vn 0.000000 0.000000 -1.000000
vn 1.000000 0.000000 0.000000
vn 1.000000 0.000000 0.000000
vn 1.000000 0.000000 0.000000
vn 1.000000 0.000000 0.000000
vn -1.000000 0.000000 0.000000
vn -1.000000 0.000000 0.000000
vn -1.000000 0.000000 0.000000
vn -1.000000 0.000000 0.000000
vn -1.000000 0.000000 0.000000
vn -1.000000 0.000000 0.000000
vn -1.000000 0.000000 0.000000
vn -1.000000 0.000000 0.000000
vn 0.000000 1.000000 0.000000
vn 0.000000 1.000000 0.000000
vn 0.000000 1.000000 0.000000
vn 0.000000 1.000000 0.000000
vn 1.000000 0.000000 0.000000
vn 1.000000 0.000000 0.000000
vn 1.000000 0.000000 0.000000
vn 1.000000 0.000000 0.000000
vn 0.000000 0.000000 1.000000
vn 0.000000 0.000000 1.000000
vn 0.000000 0.000000 1.000000
vn 0.000000 0.000000 1.000000
vn 0.000000 1.000000 0.000000
vn 0.000000 1.000000 0.000000
vn 0.000000 1.000000 0.000000
vn 0.000000 1.000000 0.000000
vn 0.000000 0.000000 -1.000000
vn 0.000000 0.000000 -1.000000
vn 0.000000 0.000000 -1.000000
vn 0.000000 0.000000 -1.000000
vn 0.000000 0.000000 1.000000
vn 0.000000 0.000000 1.000000
vn 0.000000 0.000000 1.000000
vn 0.000000 0.000000 1.000000
vn 0.000000 1.000000 0.000000
vn 0.000000 1.000000 0.000000
vn 0.000000 1.000000 0.000000
vn 0.000000 1.000000 0.000000
vn 0.000000 0.000000 -1.000000
vn 0.000000 0.000000 -1.000000
vn 0.000000 0.000000 -1.000000
vn 0.000000 0.000000 -1.000000
s off
g CoffeeTable_LP
f 1/1/1 2/5/2 4/8/3 3/2/4
f 5/3/5 6/7/6 8/6/7 7/4/8
f 2/5/9 8/6/10 6/7/11 4/8/12
f 7/4/13 1/9/14 3/10/15 5/3/16
f 9/11/17 10/12/18 12/13/19 11/14/20
f 11/14/21 12/13/22 14/15/23 13/16/24
f 13/16/25 14/15/26 16/17/27 15/18/28
f 17/19/29 18/20/30 20/21/31 19/22/32
f 19/22/33 20/21/34 22/23/35 21/24/36
f 21/24/37 22/23/38 24/25/39 23/26/40
f 25/27/41 26/28/42 28/29/43 27/30/44
f 27/30/45 28/29/46 30/31/47 29/32/48
f 29/32/49 30/31/50 32/33/51 31/34/52
f 33/35/53 34/36/54 36/37/55 35/38/56
f 35/38/57 36/37/58 38/39/59 37/40/60
f 37/40/61 38/39/62 40/41/63 39/42/64
f 41/43/65 42/44/66 44/45/67 43/46/68
f 45/47/69 46/48/70 48/49/71 47/50/72
f 42/44/73 48/49/74 46/48/75 44/45/76
f 47/50/77 41/51/78 43/52/79 45/47/80
f 58/53/81 53/54/82 54/55/83 57/56/84
f 59/57/85 55/58/86 56/59/87 60/60/88
f 60/60/89 56/59/90 50/61/91 52/62/92
f 51/63/93 49/64/94 53/54/95 58/53/96
f 58/65/97 60/66/98 52/67/99 51/68/100
f 59/57/101 60/66/102 58/65/103 57/56/104
f 57/56/105 54/55/106 55/58/107 59/57/108
f 53/69/109 56/70/110 55/58/111 54/55/112
f 50/71/113 56/70/114 53/69/115 49/72/116
f 61/73/117 62/74/118 64/75/119 63/76/120
f 63/76/121 64/75/122 66/77/123 65/78/124
f 65/78/125 66/77/126 68/79/127 67/80/128
f 69/81/129 70/82/130 72/83/131 71/84/132
f 71/84/133 72/83/134 74/85/135 73/86/136
f 73/86/137 74/85/138 76/87/139 75/88/140
f 77/89/141 78/90/142 80/91/143 79/92/144
f 79/92/145 80/91/146 82/93/147 81/94/148
f 81/94/149 82/93/150 84/95/151 83/96/152
f 85/97/153 86/98/154 88/99/155 87/100/156
f 89/101/157 90/102/158 92/103/159 91/104/160
f 93/105/161 94/106/162 96/107/163 95/108/164
f 97/109/165 99/112/166 100/111/167 98/110/168
f 101/113/169 102/114/170 104/115/171 103/116/172
f 103/116/173 104/115/174 106/117/175 105/118/176
f 105/118/177 106/117/178 108/119/179 107/120/180
f 109/121/181 110/122/182 112/123/183 111/124/184
f 111/124/185 112/123/186 114/125/187 113/126/188
f 113/126/189 114/125/190 116/127/191 115/128/192
f 117/129/193 118/130/194 120/131/195 119/132/196
f 119/132/197 120/131/198 122/133/199 121/134/200
f 121/134/201 122/133/202 124/135/203 123/136/204
f 125/137/205 126/138/206 128/139/207 127/140/208
f 127/140/209 128/139/210 130/141/211 129/142/212
f 129/142/213 130/141/214 132/143/215 131/144/216
f 133/145/217 134/146/218 136/147/219 135/148/220
f 135/148/221 136/147/222 138/149/223 137/150/224
f 137/150/225 138/149/226 140/151/227 139/152/228
f 141/153/229 142/154/230 144/155/231 143/156/232
f 145/157/233 146/158/234 148/159/235 147/160/236
f 142/154/237 148/159/238 146/158/239 144/155/240
f 147/160/241 141/161/242 143/162/243 145/157/244
f 149/163/245 150/164/246 152/165/247 151/166/248
f 153/167/249 154/168/250 156/169/251 155/170/252
f 150/164/253 156/169/254 154/168/255 152/165/256
f 155/170/257 149/171/258 151/172/259 153/167/260
f 157/173/261 158/174/262 160/175/263 159/176/264
f 159/176/265 160/175/266 162/177/267 161/178/268
f 161/178/269 162/177/270 164/179/271 163/180/272
f 165/181/273 166/182/274 168/183/275 167/184/276
f 167/184/277 168/183/278 170/185/279 169/186/280
f 169/186/281 170/185/282 172/187/283 171/188/284
f 173/189/285 174/190/286 176/191/287 175/192/288
f 175/192/289 176/191/290 178/193/291 177/194/292
f 177/194/293 178/193/294 180/195/295 179/196/296
