# This file uses centimeters as units for non-parametric coordinates.

g default
v -0.500000 -0.138207 0.603779
v 0.500000 -0.138207 0.603779
v -0.500000 0.138207 0.273286
v 0.500000 0.138207 0.273286
v -0.500000 0.138207 -0.590977
v 0.500000 0.138207 -0.590977
v -0.500000 -0.138207 -0.260483
v 0.500000 -0.138207 -0.260483
v -0.500000 -0.006602 0.440331
v -0.500000 0.006910 0.424190
v -0.500000 0.006910 -0.440073
v -0.500000 -0.006602 -0.423932
v 0.500000 -0.006602 0.440331
v 0.500000 0.006910 0.424190
v 0.500000 0.006910 -0.440073
v 0.500000 -0.006602 -0.423932
v -0.146466 -0.138207 0.603779
v -0.128338 -0.138207 0.603779
v -0.128338 -0.138207 -0.260483
v -0.146466 -0.138207 -0.260483
v -0.146466 0.138207 -0.590977
v -0.128338 0.138207 -0.590977
v -0.128338 0.138207 0.273286
v -0.146466 0.138207 0.273286
v -0.146466 0.005403 0.425923
v -0.128338 0.005403 0.425922
v -0.128338 -0.005161 0.438543
v -0.146466 -0.005161 0.438543
v -0.146466 -0.005161 -0.425720
v -0.128338 -0.005161 -0.425720
v -0.128338 0.005403 -0.438340
v -0.146466 0.005403 -0.438340
v -0.488034 -0.006440 0.429795
v -0.488034 0.006748 0.414041
v -0.488034 0.006748 -0.429538
v -0.488034 -0.006440 -0.413784
v 0.488034 -0.006440 0.429795
v 0.488034 0.006748 0.414041
v 0.488034 -0.006440 -0.413784
v 0.488034 0.006748 -0.429538
v -0.142961 0.005278 0.415733
v -0.125267 0.005277 0.415732
v -0.142961 -0.005034 0.428051
v -0.125267 -0.005034 0.428050
v -0.142961 -0.005034 -0.415528
v -0.125267 -0.005034 -0.415529
v -0.142961 0.005278 -0.427846
v -0.125267 0.005277 -0.427847
v -0.146689 -0.141605 0.618467
v -0.128115 -0.141605 0.618467
v -0.128115 -0.005288 0.449167
v -0.146689 -0.005288 0.449168
v -0.146689 -0.141605 -0.267045
v -0.128115 -0.141605 -0.267045
v -0.146689 -0.005288 -0.436344
v -0.128115 -0.005288 -0.436344
v -0.146689 0.141605 -0.605664
v -0.128115 0.141605 -0.605664
v -0.128115 0.005536 -0.449275
v -0.146689 0.005536 -0.449275
v -0.146689 0.141605 0.279848
v -0.128115 0.141605 0.279848
v -0.146689 0.005536 0.436237
v -0.128115 0.005536 0.436237
vt 0.882468 0.919435
vt 0.877852 0.935938
vt 0.630649 0.935938
vt 0.635266 0.919435
vt 0.726281 0.974629
vt 0.723579 0.964970
vt 0.868257 0.964970
vt 0.870959 0.974629
vt 0.004793 0.874152
vt 0.630649 0.983559
vt 0.153017 0.874152
vt 0.656228 0.861615
vt 0.856335 0.090294
vt 0.860758 0.090294
vt 0.181049 0.970541
vt 0.032825 0.970541
vt 0.446684 0.898887
vt 0.709290 0.913688
vt 0.705878 0.913639
vt 0.594909 0.898887
vt 0.388963 0.312056
vt 0.620790 0.995049
vt 0.472565 0.995049
vt 0.860758 0.204930
vt 0.740089 0.983559
vt 0.494581 0.614196
vt 0.651511 0.860285
vt 0.747845 0.614196
vt 0.699948 0.778889
vt 0.856335 0.204930
vt 0.446684 0.778889
vt 0.839266 0.050466
vt 0.845849 0.050466
vt 0.845849 0.221057
vt 0.839266 0.221056
vt 0.785161 0.217126
vt 0.049013 0.700971
vt 0.778578 0.300870
vt 0.302277 0.700971
vt 0.948235 0.134373
vt 0.258056 0.865279
vt 0.004793 0.865279
vt 0.830112 0.119201
vt 0.781691 0.285698
vt 0.778578 0.285539
vt 0.828189 0.114949
vt 0.478824 0.890074
vt 0.450477 0.792603
vt 0.778578 0.217126
vt 0.778578 0.046846
vt 0.785161 0.046847
vt 0.799971 0.165683
vt 0.795646 0.165683
vt 0.795646 0.053833
vt 0.799971 0.053833
vt 0.716050 0.955828
vt 0.711885 0.955829
vt 0.711885 0.947257
vt 0.716050 0.947257
vt 0.222156 0.979986
vt 0.630649 0.983559
vt 0.740089 0.983559
vt 0.963316 0.130121
vt 0.789487 0.300711
vt 0.451603 0.790114
vt 0.480647 0.889982
vt 0.639775 0.887112
vt 0.613576 0.789768
vt 0.615453 0.789865
vt 0.642296 0.889603
vt 0.274100 0.480283
vt 0.430820 0.314090
vt 0.441410 0.314256
vt 0.280837 0.484536
vt 0.382202 0.312056
vt 0.382202 0.006483
vt 0.388963 0.006483
vt 0.401167 0.303195
vt 0.401167 0.004954
vt 0.629884 0.004954
vt 0.629884 0.303195
vt 0.640132 0.004954
vt 0.768819 0.004954
vt 0.768819 0.303195
vt 0.640132 0.303195
vt 0.912996 0.314891
vt 0.912996 0.605276
vt 0.908755 0.601737
vt 0.908755 0.318301
vt 0.004793 0.306254
vt 0.004793 0.008000
vt 0.009148 0.011636
vt 0.009148 0.302752
vt 0.368811 0.008000
vt 0.368811 0.306254
vt 0.364456 0.302752
vt 0.364456 0.011636
vt 0.558580 0.605276
vt 0.558580 0.314891
vt 0.562821 0.318301
vt 0.562821 0.601737
vt 0.781273 0.314309
vt 0.787698 0.314309
vt 0.786456 0.317732
vt 0.780185 0.317732
vt 0.133486 0.008617
vt 0.140085 0.008617
vt 0.141203 0.012238
vt 0.134762 0.012238
vt 0.140085 0.306871
vt 0.133486 0.306871
vt 0.134762 0.303354
vt 0.141203 0.303354
vt 0.787698 0.604694
vt 0.781273 0.604694
vt 0.780185 0.601169
vt 0.786456 0.601169
vt 0.133404 0.004950
vt 0.140166 0.004951
vt 0.140166 0.310538
vt 0.133404 0.310538
vt 0.787777 0.608368
vt 0.781194 0.608368
vt 0.781194 0.310843
vt 0.787777 0.310843
vt 0.228427 0.979986
vt 0.228427 0.992891
vt 0.222156 0.992890
vt 0.630649 0.957051
vt 0.630649 0.946088
vt 0.860431 0.946088
vt 0.860431 0.957051
vt 0.350726 0.978227
vt 0.350726 0.994731
vt 0.004793 0.994731
vt 0.004793 0.978227
vt 0.289272 0.897269
vt 0.289272 0.785384
vt 0.438921 0.785384
vt 0.438921 0.896058
vt 0.708407 0.894950
vt 0.708407 0.785784
vt 0.854685 0.787022
vt 0.854685 0.894950
vt 0.462655 0.524604
vt 0.462655 0.690798
vt 0.239962 0.690798
vt 0.239962 0.526490
vt 0.227485 0.492818
vt 0.227485 0.659315
vt 0.004793 0.657512
vt 0.004793 0.492818
vt 0.547327 0.513374
vt 0.422029 0.515177
vt 0.422029 0.348681
vt 0.547327 0.348681
vt 0.922841 0.778039
vt 0.797543 0.778039
vt 0.797543 0.611846
vt 0.922841 0.613731
vt 0.867714 0.788919
vt 0.950017 0.787681
vt 0.950017 0.896846
vt 0.867714 0.896846
vt 0.871507 0.011600
vt 0.955707 0.011600
vt 0.955707 0.123486
vt 0.871507 0.122274
vt 0.053825 0.314091
vt 0.009097 0.480285
vt 0.004793 0.484537
vt 0.050621 0.314258
vt 0.262360 0.480285
vt 0.264283 0.484537
vt 0.491431 0.887112
vt 0.490305 0.889603
vt 0.195862 0.876098
vt 0.244876 0.928075
vt 0.242769 0.929405
vt 0.192549 0.876150
vn -1.000000 0.000000 0.000000
vn -1.000000 0.000000 0.000000
vn -1.000000 0.000000 0.000000
vn -1.000000 0.000000 0.000000
vn 1.000000 0.000000 0.000000
vn 1.000000 0.000000 0.000000
vn 1.000000 0.000000 0.000000
vn 1.000000 0.000000 0.000000
vn 1.000000 0.000000 0.000000
vn 1.000000 0.000000 0.000000
vn 1.000000 0.000000 0.000000
vn 1.000000 0.000000 0.000000
vn 1.000000 0.000000 0.000000
vn 1.000000 0.000000 0.000000
vn 1.000000 0.000000 0.000000
vn 1.000000 0.000000 0.000000
vn -1.000000 -0.000000 0.000000
vn -1.000000 -0.000000 0.000000
vn -1.000000 -0.000000 0.000000
vn -1.000000 -0.000000 0.000000
vn -1.000000 0.000000 0.000000
vn -1.000000 0.000000 0.000000
vn -1.000000 0.000000 0.000000
vn -1.000000 0.000000 0.000000
vn 0.000016 0.778895 0.627154
vn 0.000016 0.778895 0.627154
vn 0.000016 0.778895 0.627154
vn 0.000016 0.778895 0.627154
vn -0.000012 -0.778895 -0.627154
vn -0.000012 -0.778895 -0.627154
vn -0.000012 -0.778895 -0.627154
vn -0.000012 -0.778895 -0.627154
vn -0.000017 -0.754418 -0.656394
vn -0.000017 -0.754418 -0.656394
vn -0.000017 -0.754418 -0.656394
vn -0.000017 -0.754418 -0.656394
vn 0.000000 1.000000 0.000000
vn 0.000000 1.000000 0.000000
vn 0.000000 1.000000 0.000000
vn 0.000000 1.000000 0.000000
vn 0.000012 0.754417 0.656395
vn 0.000012 0.754417 0.656395
vn 0.000012 0.754417 0.656395
vn 0.000012 0.754417 0.656395
vn -0.000066 0.766794 0.641894
vn 0.000117 0.766794 0.641893
vn 0.000117 0.766794 0.641893
vn -0.000066 0.766794 0.641894
vn 0.000066 -0.766794 -0.641894
vn -0.000117 -0.766792 -0.641895
vn -0.000117 -0.766792 -0.641895
vn 0.000066 -0.766794 -0.641894
vn 0.000000 1.000000 0.000000
vn 0.000000 1.000000 0.000000
vn 0.000000 1.000000 0.000000
vn 0.000000 1.000000 0.000000
vn 0.000000 1.000000 0.000000
vn 0.000000 1.000000 0.000000
vn 0.000000 1.000000 0.000000
vn 0.000000 1.000000 0.000000
vn 0.000121 0.766794 0.641893
vn 0.000121 0.766794 0.641893
vn -0.000069 0.766794 0.641894
vn -0.000069 0.766794 0.641894
vn -0.000121 -0.766792 -0.641896
vn -0.000121 -0.766792 -0.641895
vn 0.000069 -0.766794 -0.641894
vn 0.000069 -0.766794 -0.641894
vn 0.000000 0.778897 0.627152
vn 0.000000 0.778897 0.627152
vn 0.000000 0.778897 0.627152
vn 0.000000 0.778897 0.627152
vn 0.000000 0.754416 0.656397
vn 0.000000 0.754416 0.656397
vn 0.000000 0.754416 0.656397
vn 0.000000 0.754416 0.656397
vn -0.000000 -0.754416 -0.656396
vn -0.000000 -0.754416 -0.656396
vn -0.000000 -0.754416 -0.656396
vn -0.000000 -0.754416 -0.656396
vn -0.000000 -0.778896 -0.627153
vn -0.000000 -0.778896 -0.627153
vn -0.000000 -0.778896 -0.627153
vn -0.000000 -0.778896 -0.627153
vn 0.000001 -0.778896 -0.627153
vn 0.000001 -0.778896 -0.627153
vn 0.000001 -0.778896 -0.627153
vn 0.000001 -0.778896 -0.627153
vn 0.000002 -0.754417 -0.656395
vn 0.000002 -0.754417 -0.656395
vn 0.000002 -0.754417 -0.656395
vn 0.000002 -0.754417 -0.656395
vn -0.000002 0.754417 0.656396
vn -0.000002 0.754417 0.656396
vn -0.000002 0.754417 0.656396
vn -0.000002 0.754417 0.656396
vn -0.000002 0.778896 0.627153
vn -0.000002 0.778896 0.627153
vn -0.000002 0.778896 0.627153
vn -0.000002 0.778896 0.627153
vn -0.013510 -0.999909 0.000000
vn -0.013510 -0.999909 0.000000
vn -0.013510 -0.999909 0.000000
vn -0.013510 -0.999909 0.000000
vn -0.013510 0.999909 0.000000
vn -0.013510 0.999909 0.000000
vn -0.013510 0.999909 0.000000
vn -0.013510 0.999909 0.000000
vn 0.013510 0.999909 0.000000
vn 0.013510 0.999909 0.000000
vn 0.013510 0.999909 0.000000
vn 0.013510 0.999909 0.000000
vn 0.013510 -0.999909 0.000000
vn 0.013510 -0.999909 0.000000
vn 0.013510 -0.999909 0.000000
vn 0.013510 -0.999909 0.000000
vn -0.000020 -0.999924 0.012321
vn -0.000020 -0.999924 0.012321
vn -0.000020 -0.999924 0.012321
vn -0.000020 -0.999924 0.012321
vn 0.000020 0.999926 0.012129
vn 0.000020 0.999926 0.012129
vn 0.000020 0.999927 0.012129
vn 0.000020 0.999926 0.012129
vn 0.000020 0.999922 -0.012487
vn 0.000020 0.999922 -0.012487
vn 0.000020 0.999922 -0.012487
vn 0.000020 0.999922 -0.012487
vn -0.000020 -0.999928 -0.011965
vn -0.000020 -0.999928 -0.011965
vn -0.000020 -0.999928 -0.011965
vn -0.000020 -0.999928 -0.011965
vn -0.004020 0.999934 0.010779
vn -0.004020 0.999934 0.010779
vn -0.004020 0.999934 0.010779
vn -0.004020 0.999934 0.010779
vn -0.004313 -0.999932 0.010844
vn -0.004313 -0.999932 0.010844
vn -0.004313 -0.999932 0.010844
vn -0.004313 -0.999932 0.010844
vn 0.002256 0.999916 0.012783
vn 0.002256 0.999916 0.012783
vn 0.002256 0.999916 0.012783
vn 0.002256 0.999916 0.012783
vn 0.002434 -0.999912 0.013060
vn 0.002434 -0.999912 0.013060
vn 0.002434 -0.999912 0.013060
vn 0.002434 -0.999912 0.013060
vn -0.004208 -0.999935 -0.010566
vn -0.004208 -0.999935 -0.010566
vn -0.004208 -0.999935 -0.010566
vn -0.004208 -0.999935 -0.010566
vn -0.004131 0.999930 -0.011059
vn -0.004131 0.999930 -0.011059
vn -0.004131 0.999930 -0.011059
vn -0.004131 0.999930 -0.011059
vn 0.002363 -0.999917 -0.012662
vn 0.002363 -0.999917 -0.012662
vn 0.002363 -0.999917 -0.012662
vn 0.002363 -0.999917 -0.012662
vn 0.002330 0.999910 -0.013183
vn 0.002330 0.999910 -0.013183
vn 0.002330 0.999910 -0.013183
vn 0.002330 0.999910 -0.013183
vn 0.000000 -0.974266 -0.225403
vn 0.000000 -0.974266 -0.225403
vn 0.000000 -0.974266 -0.225403
vn 0.000000 -0.974266 -0.225403
vn 0.999424 -0.026427 -0.021279
vn 0.999424 -0.026427 -0.021279
vn 0.999424 -0.026427 -0.021279
vn 0.999424 -0.026427 -0.021279
vn 0.000020 0.999929 0.011943
vn 0.000020 0.999929 0.011943
vn 0.000020 0.999929 0.011943
vn 0.000020 0.999929 0.011943
vn -0.999424 -0.026428 -0.021279
vn -0.999424 -0.026428 -0.021279
vn -0.999424 -0.026428 -0.021279
vn -0.999424 -0.026428 -0.021279
vn -0.999457 0.025657 0.020659
vn -0.999457 0.025657 0.020659
vn -0.999457 0.025657 0.020659
vn -0.999457 0.025657 0.020659
vn 0.000020 0.999929 -0.011943
vn 0.000020 0.999929 -0.011943
vn 0.000020 0.999929 -0.011943
vn 0.000020 0.999929 -0.011943
vn 0.999457 0.025657 0.020658
vn 0.999457 0.025657 0.020658
vn 0.999457 0.025657 0.020658
vn 0.999457 0.025657 0.020658
vn 0.999505 0.023745 0.020659
vn 0.999505 0.023745 0.020659
vn 0.999505 0.023745 0.020659
vn 0.999505 0.023745 0.020659
vn -0.000020 -0.999926 -0.012148
vn -0.000020 -0.999926 -0.012148
vn -0.000020 -0.999926 -0.012148
vn -0.000020 -0.999926 -0.012148
vn -0.999505 0.023745 0.020660
vn -0.999505 0.023745 0.020660
vn -0.999505 0.023745 0.020660
vn -0.999505 0.023745 0.020660
vn -0.997856 -0.065445 0.000000
vn -0.997856 -0.065445 0.000000
vn -0.997856 -0.065445 0.000000
vn -0.997856 -0.065445 0.000000
vn 0.997856 -0.065441 0.000000
vn 0.997856 -0.065441 0.000000
vn 0.997856 -0.065441 0.000000
vn 0.997856 -0.065441 0.000000
vn -0.999474 -0.024457 -0.021280
vn -0.999474 -0.024457 -0.021280
vn -0.999474 -0.024457 -0.021280
vn -0.999474 -0.024457 -0.021280
vn -0.000020 -0.999917 0.012879
vn -0.000020 -0.999917 0.012879
vn -0.000020 -0.999917 0.012879
vn -0.000020 -0.999917 0.012879
vn 0.999474 -0.024457 -0.021280
vn 0.999474 -0.024457 -0.021280
vn 0.999474 -0.024457 -0.021280
vn 0.999474 -0.024457 -0.021280
s off
g pCube1
f 33/1/1 34/2/2 35/3/3 36/4/4
f 38/5/5 37/6/6 39/7/7 40/8/8
f 2/9/9 8/11/10 16/15/11 13/16/12
f 14/17/13 15/20/14 6/22/15 4/23/16
f 7/26/17 1/28/18 9/29/19 12/31/20
f 11/37/21 10/39/22 3/41/23 5/42/24
f 49/13/25 50/14/26 51/24/27 52/30/28
f 54/32/29 53/33/30 55/34/31 56/35/32
f 57/36/33 58/49/34 59/50/35 60/51/36
f 58/21/37 57/75/38 61/76/39 62/77/40
f 62/52/41 61/53/42 63/54/43 64/55/44
s 1
f 42/56/45 41/57/46 43/58/47 44/59/48
s 2
f 46/60/49 45/126/50 47/127/51 48/128/52
s off
f 22/78/53 23/79/54 4/80/55 6/81/56
f 3/82/57 24/83/58 21/84/59 5/85/60
s 1
f 34/129/61 33/130/62 43/58/47 41/57/46
f 42/56/45 44/59/48 37/131/63 38/132/64
s 2
f 36/133/65 35/134/66 47/127/51 45/126/50
f 46/60/49 48/128/52 40/135/67 39/136/68
s off
f 27/137/69 18/138/70 2/139/71 13/140/72
f 23/141/73 26/142/74 14/143/75 4/144/76
f 31/145/77 22/146/78 6/147/79 15/148/80
f 19/149/81 30/150/82 16/151/83 8/152/84
f 12/153/85 29/154/86 20/155/87 7/156/88
f 5/157/89 21/158/90 32/159/91 11/160/92
f 10/161/93 25/162/94 24/163/95 3/164/96
f 1/165/97 17/166/98 28/167/99 9/168/100
f 10/86/101 11/87/102 35/88/103 34/89/104
f 12/90/105 9/91/106 33/92/107 36/93/108
f 13/94/109 16/95/110 39/96/111 37/97/112
f 15/98/113 14/99/114 38/100/115 40/101/116
f 26/102/117 25/103/118 41/104/119 42/105/120
f 28/106/121 27/107/122 44/108/123 43/109/124
f 30/110/125 29/111/126 45/112/127 46/113/128
f 32/114/129 31/115/130 48/116/131 47/117/132
f 9/91/133 28/106/134 43/109/135 33/92/136
f 25/103/137 10/86/138 34/89/139 41/104/140
f 27/107/141 13/94/142 37/97/143 44/108/144
f 14/99/145 26/102/146 42/105/147 38/100/148
f 11/87/149 32/114/150 47/117/151 35/88/152
f 29/111/153 12/90/154 36/93/155 45/112/156
f 31/115/157 15/98/158 40/101/159 48/116/160
f 16/95/161 30/110/162 46/113/163 39/96/164
f 17/10/165 18/25/166 50/62/167 49/61/168
f 18/12/169 27/18/170 51/19/171 50/27/172
f 27/107/173 28/106/174 52/118/175 51/119/176
f 28/38/177 17/40/178 49/63/179 52/64/180
f 20/43/181 29/44/182 55/45/183 53/46/184
f 29/111/185 30/110/186 56/120/187 55/121/188
f 30/47/189 19/48/190 54/65/191 56/66/192
f 22/67/193 31/68/194 59/69/195 58/70/196
f 31/115/197 32/114/198 60/122/199 59/123/200
f 32/169/201 21/170/202 57/171/203 60/172/204
f 21/170/205 24/173/206 61/174/207 57/171/208
f 23/175/209 22/67/210 58/70/211 62/176/212
f 24/71/213 25/72/214 63/73/215 61/74/216
f 25/103/217 26/102/218 64/124/219 63/125/220
f 26/177/221 23/178/222 62/179/223 64/180/224
