# This file uses centimeters as units for non-parametric coordinates.

g default
v -23.622000 0.000000 10.236200
v -23.622000 0.000000 -11.811000
v 23.622000 0.000000 -11.811000
v 23.622000 0.000000 10.236200
v -23.622000 3.937000 10.236200
v -23.622000 33.858299 10.236200
v -23.622000 33.858299 -11.811000
v 23.622000 33.858299 -11.811000
v 23.622000 3.937000 10.236200
v 23.622000 33.858299 10.236200
v -23.622000 3.937000 11.105475
v -23.622000 33.858299 11.105475
v 23.622000 3.937000 11.105475
v 23.622000 33.858299 11.105475
v -23.622000 3.937009 -11.811000
v 23.622000 3.937009 -11.811000
v -23.622000 33.858299 11.732267
v 23.622000 33.858299 11.732267
v 23.622000 33.858299 -11.811000
v -23.622000 33.858299 -11.811000
v -23.622000 35.433102 -11.417300
v -23.622000 37.405869 -11.811000
v 23.622000 35.433102 -11.417300
v 23.622000 37.405869 -11.811000
v -23.622000 33.937031 11.811000
v 23.622000 33.937031 11.811000
v 23.622000 35.433102 11.732267
v 23.622000 35.354370 11.811000
v -23.622000 35.433102 11.732267
v -23.622000 35.354370 11.811000
v -23.622000 37.405869 -11.417300
v 23.622000 37.405869 -11.417300
v 0.000000 33.858299 11.732267
v 0.000000 33.937031 11.811000
v 0.000000 35.354370 11.811000
v 0.000000 35.433102 11.732267
v 0.000000 35.433102 -11.417300
v 0.000000 37.405869 -11.417300
v 0.000000 37.405869 -11.811000
v 11.811000 33.858299 11.732267
v 11.811000 33.937031 11.811000
v 11.811000 35.354370 11.811000
v 11.811000 35.433102 11.732267
v 11.811000 35.433102 -11.417300
v 11.811000 37.405869 -11.417300
v 11.811000 37.405869 -11.811000
v -11.811000 37.405869 -11.811000
v -11.811000 37.405869 -11.417300
v -11.811000 35.433102 -11.417300
v -11.811000 35.433102 11.732267
v -11.811000 35.354370 11.811000
v -11.811000 33.937031 11.811000
v -11.811000 33.858299 11.732267
v -17.716499 37.405869 -11.811000
v -17.716499 37.405869 -11.417300
v -17.716499 35.433102 -11.417300
v -17.716499 35.433102 11.732267
v -17.716499 35.354370 11.811000
v -17.716499 33.937031 11.811000
v -17.716499 33.858299 11.732267
v 17.716499 33.858299 11.732267
v 17.716499 33.937031 11.811000
v 17.716499 35.354370 11.811000
v 17.716499 35.433102 11.732267
v 17.716499 35.433102 -11.417300
v 17.716499 37.405869 -11.417300
v 17.716499 37.405869 -11.811000
v -23.622000 33.858299 -9.671894
v -23.622000 35.433102 -9.313954
v -21.854469 35.433102 -4.587565
v -11.811000 35.433102 -4.587565
v 0.000000 35.433102 -4.587555
v 11.810999 35.433102 -4.587555
v 17.716501 35.433102 -4.587555
v 23.622000 35.433102 -9.313954
v 23.622000 33.858299 -9.671883
v 23.622002 33.858299 9.261629
v 23.622002 35.433102 9.302944
v 17.716501 35.433102 10.335417
v 11.811001 35.433102 10.335417
v 0.000000 35.433102 10.335417
v -11.811000 35.433102 10.335416
v -21.854469 35.433102 10.335416
v -23.622002 35.433102 9.302944
v -23.622000 33.858299 9.261628
v 17.716501 14.667511 10.335415
v 11.811001 14.667511 10.335416
v 17.716501 14.667511 -4.587557
v 11.810999 14.667511 -4.587556
v -0.000000 14.667511 10.335417
v -0.000000 14.667511 -4.587555
v -11.811000 14.667510 10.335416
v -11.811000 14.667510 -4.587565
v -21.854469 14.667508 10.335416
v -21.854469 14.667508 -4.587565
vt 0.993486 0.533907
vt 0.993486 0.586183
vt 0.993486 0.983482
vt 0.700740 0.983482
vt 0.700741 0.533907
vt 0.021584 0.510876
vt 0.674148 0.510876
vt 0.674148 0.565256
vt 0.021584 0.565256
vt 0.700923 0.463226
vt 0.700923 0.065927
vt 0.700923 0.013651
vt 0.993669 0.013651
vt 0.993669 0.463226
vt 0.021584 0.990555
vt 0.021584 0.577263
vt 0.674148 0.577263
vt 0.674148 0.990555
vt 0.009577 0.990555
vt 0.009577 0.577263
vt 0.686155 0.577263
vt 0.686155 0.990555
vt 0.700741 0.586183
vt 0.993669 0.065927
vt 0.005977 0.011932
vt 0.677457 0.011932
vt 0.677457 0.032076
vt 0.005977 0.032076
vt 0.011245 0.487906
vt 0.011245 0.515466
vt 0.005745 0.515466
vt 0.005745 0.465906
vt 0.334647 0.487906
vt 0.334647 0.465906
vt 0.335747 0.467006
vt 0.335747 0.486806
vt 0.677457 0.362684
vt 0.005977 0.362684
vt 0.005977 0.033659
vt 0.677457 0.033659
vt 0.665058 0.450712
vt 0.332631 0.450712
vt 0.332631 0.428098
vt 0.670711 0.428098
vt 0.677457 0.390723
vt 0.677457 0.396319
vt 0.005977 0.396319
vt 0.005977 0.390723
vt 0.005977 0.010365
vt 0.677457 0.010360
vt 0.665058 0.479041
vt 0.670711 0.479041
vt 0.331501 0.449582
vt 0.331501 0.429229
vt 0.341717 0.010363
vt 0.341717 0.011932
vt 0.341717 0.032076
vt 0.341717 0.033659
vt 0.341717 0.362684
vt 0.341717 0.390723
vt 0.341717 0.396319
vt 0.509587 0.010361
vt 0.509587 0.011932
vt 0.509587 0.032076
vt 0.509587 0.033659
vt 0.509587 0.362684
vt 0.509587 0.390723
vt 0.509587 0.396319
vt 0.173847 0.396319
vt 0.173847 0.390723
vt 0.173847 0.362684
vt 0.173847 0.033659
vt 0.173847 0.032076
vt 0.173847 0.011932
vt 0.173847 0.010364
vt 0.089912 0.396319
vt 0.089912 0.390723
vt 0.089912 0.362684
vt 0.089912 0.033659
vt 0.089912 0.032076
vt 0.089912 0.011932
vt 0.089912 0.010364
vt 0.593522 0.010361
vt 0.593522 0.011932
vt 0.593522 0.032076
vt 0.593522 0.033659
vt 0.593522 0.362684
vt 0.593522 0.390723
vt 0.593522 0.396319
vt 0.035628 0.465906
vt 0.040629 0.487906
vt 0.005977 0.332789
vt 0.089912 0.332789
vt 0.173847 0.332789
vt 0.341717 0.332789
vt 0.509587 0.332789
vt 0.593522 0.332789
vt 0.677457 0.332789
vt 0.634854 0.450712
vt 0.639993 0.428098
vt 0.368110 0.428098
vt 0.677457 0.068187
vt 0.367516 0.450712
vt 0.593522 0.068187
vt 0.509587 0.068187
vt 0.341717 0.068187
vt 0.173847 0.068187
vt 0.089912 0.068187
vt 0.300709 0.487906
vt 0.005977 0.068187
vt 0.300131 0.465906
vt 0.509587 0.068187
vt 0.593522 0.068187
vt 0.593522 0.332789
vt 0.509587 0.332789
vt 0.341717 0.068187
vt 0.341717 0.332789
vt 0.173847 0.068187
vt 0.173847 0.332789
vt 0.089912 0.068187
vt 0.089912 0.332789
vn -1.000000 0.000000 0.000000
vn -1.000000 0.000000 0.000000
vn -1.000000 0.000000 0.000000
vn -1.000000 0.000000 0.000000
vn 0.000000 0.000000 1.000000
vn 0.000000 0.000000 1.000000
vn 0.000000 0.000000 1.000000
vn 0.000000 0.000000 1.000000
vn 1.000000 0.000000 0.000000
vn 1.000000 0.000000 0.000000
vn 1.000000 0.000000 0.000000
vn 1.000000 0.000000 0.000000
vn 0.000000 0.000000 1.000000
vn 0.000000 0.000000 1.000000
vn 0.000000 0.000000 1.000000
vn 0.000000 0.000000 1.000000
vn -1.000000 0.000000 0.000000
vn -1.000000 0.000000 0.000000
vn -1.000000 0.000000 0.000000
vn -1.000000 0.000000 0.000000
vn 0.000000 -1.000000 0.000000
vn 0.000000 -1.000000 0.000000
vn 0.000000 -1.000000 0.000000
vn 0.000000 -1.000000 0.000000
vn 1.000000 0.000000 0.000000
vn 1.000000 0.000000 0.000000
vn 1.000000 0.000000 0.000000
vn 1.000000 0.000000 0.000000
vn -1.000000 0.000000 0.000000
vn -1.000000 0.000000 0.000000
vn 1.000000 0.000000 0.000000
vn 1.000000 0.000000 0.000000
vn 0.000000 0.000000 1.000000
vn 0.000000 0.000000 1.000000
vn 0.000000 0.000000 1.000000
vn 0.000000 0.000000 1.000000
vn -1.000000 0.000000 0.000000
vn -1.000000 0.000000 0.000000
vn -1.000000 0.000000 0.000000
vn -1.000000 0.000000 0.000000
vn -1.000000 -0.000001 0.000000
vn -1.000000 -0.000001 0.000000
vn -1.000000 0.000000 0.000000
vn -1.000000 0.000000 0.000000
vn 0.000000 1.000000 0.000000
vn 0.000000 1.000000 0.000000
vn 0.000000 1.000000 0.000000
vn 0.000000 1.000000 0.000000
vn 1.000000 0.000000 0.000000
vn 1.000000 0.000001 -0.000000
vn 1.000000 0.000001 -0.000000
vn 1.000000 0.000000 0.000000
vn 0.000000 1.000000 0.000000
vn 0.000000 1.000000 0.000000
vn 0.000000 1.000000 0.000000
vn 0.000000 1.000000 0.000000
vn 0.000000 0.000000 1.000000
vn 0.000000 0.000000 1.000000
vn 0.000000 0.000000 1.000000
vn 0.000000 0.000000 1.000000
vn 0.000000 -0.707110 0.707104
vn 0.000000 -0.707110 0.707104
vn 0.000000 -0.707110 0.707104
vn 0.000000 -0.707110 0.707104
vn 0.000000 0.707110 0.707104
vn 0.000000 0.707110 0.707104
vn 0.000000 0.707110 0.707104
vn 0.000000 0.707110 0.707104
vn 1.000000 0.000000 0.000000
vn 1.000000 0.000000 0.000000
vn 1.000000 0.000000 0.000000
vn 1.000000 0.000000 0.000000
vn -1.000000 0.000000 0.000000
vn -1.000000 0.000000 0.000000
vn -1.000000 -0.000002 -0.000000
vn -1.000000 -0.000002 -0.000000
vn 1.000000 0.000000 0.000000
vn 1.000000 0.000000 0.000001
vn 1.000000 0.000000 0.000000
vn 1.000000 0.000000 0.000000
vn 0.000000 -0.707110 0.707104
vn 0.000000 -0.707110 0.707104
vn 0.000000 0.000000 1.000000
vn 0.000000 0.000000 1.000000
vn 0.000000 0.707110 0.707104
vn 0.000000 0.707110 0.707104
vn 0.000000 1.000000 0.000000
vn 0.000000 1.000000 0.000000
vn 0.000000 0.000000 1.000000
vn 0.000000 0.000000 1.000000
vn 0.000000 1.000000 0.000000
vn 0.000000 1.000000 0.000000
vn 0.000000 -0.707110 0.707104
vn 0.000000 -0.707110 0.707104
vn 0.000000 0.000000 1.000000
vn 0.000000 0.000000 1.000000
vn 0.000000 0.707110 0.707104
vn 0.000000 0.707110 0.707104
vn 0.000000 1.000000 -0.000000
vn 0.000000 1.000000 0.000000
vn 0.000000 0.000000 1.000000
vn 0.000000 0.000000 1.000000
vn 0.000000 1.000000 0.000000
vn 0.000000 1.000000 0.000000
vn 0.000000 1.000000 0.000000
vn 0.000000 1.000000 0.000000
vn 0.000000 0.000000 1.000000
vn 0.000000 0.000000 1.000000
vn 0.000000 1.000000 -0.000000
vn 0.000000 1.000000 0.000000
vn 0.000000 0.707110 0.707104
vn 0.000000 0.707110 0.707104
vn 0.000000 0.000000 1.000000
vn 0.000000 0.000000 1.000000
vn 0.000000 -0.707110 0.707104
vn 0.000000 -0.707110 0.707104
vn 0.000000 1.000000 0.000000
vn 0.000000 1.000000 0.000000
vn 0.000000 0.000000 1.000000
vn 0.000000 0.000000 1.000000
vn 0.000000 1.000000 -0.000000
vn 0.000000 1.000000 0.000000
vn 0.000000 0.707110 0.707104
vn 0.000000 0.707110 0.707104
vn 0.000000 0.000000 1.000000
vn 0.000000 0.000000 1.000000
vn 0.000000 -0.707110 0.707104
vn 0.000000 -0.707110 0.707104
vn 0.000000 -0.707110 0.707104
vn 0.000000 -0.707110 0.707104
vn 0.000000 0.000000 1.000000
vn 0.000000 0.000000 1.000000
vn 0.000000 0.707110 0.707104
vn 0.000000 0.707110 0.707104
vn 0.000000 1.000000 0.000000
vn 0.000000 1.000000 0.000000
vn 0.000000 0.000000 1.000000
vn 0.000000 0.000000 1.000000
vn 0.000000 1.000000 0.000000
vn 0.000000 1.000000 0.000000
vn -1.000000 -0.000002 0.000000
vn -1.000000 -0.000002 -0.000000
vn 0.000000 1.000000 0.000000
vn 0.000000 1.000000 -0.000000
vn 0.000000 1.000000 -0.000000
vn 0.000000 1.000000 0.000000
vn 0.000000 1.000000 0.000000
vn 0.000000 1.000000 0.000000
vn 0.000000 1.000000 0.000000
vn 0.000000 1.000000 0.000000
vn 0.000000 1.000000 0.000000
vn 0.000000 1.000000 0.000000
vn 0.000000 1.000000 -0.000000
vn 0.000000 1.000000 -0.000000
vn 0.000000 1.000000 -0.000000
vn 0.000000 1.000000 -0.000001
vn 1.000000 0.000001 -0.000000
vn 1.000000 0.000001 0.000000
vn 0.000000 1.000000 -0.000000
vn 0.000000 1.000000 -0.000000
vn 0.000000 1.000000 -0.000000
vn 0.000000 1.000000 -0.000000
vn -0.000000 1.000000 0.000000
vn -0.000000 1.000000 0.000000
vn -0.000000 1.000000 0.000000
vn -0.000000 1.000000 0.000000
vn -0.000000 1.000000 0.000000
vn -0.000000 1.000000 0.000000
vn -0.000000 0.000000 -1.000000
vn -0.000000 0.000000 -1.000000
vn -0.000000 0.000000 -1.000000
vn -0.000000 0.000000 -1.000000
vn -1.000000 -0.000000 0.000000
vn -1.000000 -0.000000 0.000000
vn -1.000000 -0.000000 0.000000
vn -1.000000 -0.000000 0.000000
vn 0.000000 -0.000000 1.000000
vn 0.000000 -0.000000 1.000000
vn 0.000000 -0.000000 1.000000
vn 0.000000 -0.000000 1.000000
vn 0.000000 0.000000 -1.000000
vn 0.000000 0.000000 -1.000000
vn -0.000000 -0.000000 1.000000
vn -0.000000 -0.000000 1.000000
vn 0.000000 0.000000 -1.000000
vn 0.000000 0.000000 -1.000000
vn -0.000000 0.000000 1.000000
vn -0.000000 0.000000 1.000000
vn -0.000000 0.000000 -1.000000
vn -0.000000 0.000000 -1.000000
vn -0.000000 0.000000 1.000000
vn -0.000000 0.000000 1.000000
vn 1.000000 0.000000 0.000000
vn 1.000000 0.000000 0.000000
vn 1.000000 0.000000 0.000000
vn 1.000000 0.000000 0.000000
s 1
g d_model2:Counter_LP
f 1/1/1 5/2/2 15/23/3 2/5/4
s off
f 1/6/5 4/7/6 9/8/7 5/9/8
s 2
f 10/10/9 9/11/10 16/24/11 8/14/12
s off
f 12/15/13 11/16/14 13/17/15 14/18/16
f 6/19/17 5/20/18 11/16/19 12/15/20
f 5/9/21 9/8/22 13/17/23 11/16/24
f 9/21/25 10/22/26 14/18/27 13/17/28
s 1
f 15/23/3 5/2/2 6/3/29 7/4/30
s 2
f 16/24/11 9/11/10 4/12/31 3/13/32
s 3
f 51/73/33 52/74/34 34/56/35 35/57/36
s off
f 21/29/37 31/30/38 22/31/39 20/32/40
s 4
f 29/33/41 17/34/42 25/35/43 30/36/44
s 5
f 71/94/45 72/95/46 37/59/47 49/71/48
s 6
f 23/41/49 75/99/50 76/100/51 19/44/52
s 7
f 38/60/53 39/61/54 47/69/55 48/70/56
s 8
f 48/70/57 49/71/58 37/59/59 38/60/60
s 9
f 52/74/61 53/75/62 33/55/63 34/56/64
s 10
f 35/57/65 36/58/66 50/72/67 51/73/68
s off
f 32/51/69 23/41/70 19/44/71 24/52/72
s 4
f 21/29/73 20/32/74 68/90/75 69/91/76
s 6
f 18/43/77 27/42/78 28/53/79 26/54/80
s 9
f 34/56/64 33/55/63 40/62/81 41/63/82
s 3
f 35/57/36 34/56/35 41/63/83 42/64/84
s 10
f 42/64/85 43/65/86 36/58/66 35/57/65
s 5
f 72/95/46 73/96/87 44/66/88 37/59/47
s 8
f 38/60/60 37/59/59 44/66/89 45/67/90
s 7
f 45/67/91 46/68/92 39/61/54 38/60/53
s 9
f 41/63/82 40/62/81 61/83/93 62/84/94
s 3
f 42/64/84 41/63/83 62/84/95 63/85/96
s 10
f 63/85/97 64/86/98 43/65/86 42/64/85
s 5
f 73/96/87 74/97/99 65/87/100 44/66/88
s 8
f 45/67/90 44/66/89 65/87/101 66/88/102
s 7
f 66/88/103 67/89/104 46/68/92 45/67/91
f 48/70/56 47/69/55 54/76/105 55/77/106
s 8
f 55/77/107 56/78/108 49/71/58 48/70/57
s 5
f 70/93/109 71/94/45 49/71/48 56/78/110
s 10
f 51/73/68 50/72/67 57/79/111 58/80/112
s 3
f 58/80/113 59/81/114 52/74/34 51/73/33
s 9
f 59/81/115 60/82/116 53/75/62 52/74/61
s 7
f 55/77/106 54/76/105 22/47/117 31/48/118
s 8
f 21/38/119 56/78/108 55/77/107 31/48/120
s 5
f 69/92/121 70/93/109 56/78/110 21/38/122
s 10
f 58/80/112 57/79/111 29/39/123 30/28/124
s 3
f 25/25/125 59/81/114 58/80/113 30/28/126
s 9
f 25/25/127 17/49/128 60/82/116 59/81/115
f 62/84/94 61/83/93 18/50/129 26/26/130
s 3
f 63/85/96 62/84/95 26/26/131 28/27/132
s 10
f 28/27/133 27/40/134 64/86/98 63/85/97
s 5
f 23/37/135 65/87/100 74/97/99 75/98/136
s 8
f 66/88/102 65/87/101 23/37/137 32/45/138
s 7
f 32/45/139 24/46/140 67/89/104 66/88/103
s 4
f 84/109/141 85/111/142 17/34/42 29/33/41
s 5
f 57/79/143 83/108/144 84/110/145 29/39/146
f 50/72/147 82/107/148 83/108/144 57/79/143
f 36/58/149 81/106/150 82/107/148 50/72/147
f 43/65/151 80/105/152 81/106/150 36/58/149
f 64/86/153 79/104/154 80/105/152 43/65/151
f 78/102/155 79/104/154 64/86/153 27/40/156
s 6
f 77/101/157 78/103/158 27/42/78 18/43/77
f 76/100/51 75/99/50 78/103/158 77/101/157
s 5
f 75/98/136 74/97/99 79/104/154 78/102/155
s 14
f 87/112/159 86/113/160 88/114/161 89/115/162
f 90/116/163 87/112/159 89/115/162 91/117/164
f 92/118/165 90/116/163 91/117/164 93/119/166
f 94/120/167 92/118/165 93/119/166 95/121/168
s 5
f 84/110/145 83/108/144 70/93/109 69/92/121
s 4
f 69/91/76 68/90/75 85/111/142 84/109/141
s 15
f 80/105/169 79/104/170 86/113/171 87/112/172
s off
f 79/104/173 74/97/174 88/114/175 86/113/176
s 16
f 74/97/177 73/96/178 89/115/179 88/114/180
s 15
f 81/106/181 80/105/169 87/112/172 90/116/182
s 16
f 73/96/178 72/95/183 91/117/184 89/115/179
s 15
f 82/107/185 81/106/181 90/116/182 92/118/186
s 16
f 72/95/183 71/94/187 93/119/188 91/117/184
s 15
f 83/108/189 82/107/185 92/118/186 94/120/190
s 16
f 71/94/187 70/93/191 95/121/192 93/119/188
s off
f 70/93/193 83/108/194 94/120/195 95/121/196
