# This file uses centimeters as units for non-parametric coordinates.

g default
v 3.658691 1.610224 0.283073
v 3.658691 1.717538 -0.256430
v 3.658691 1.717538 -2.411556
v 3.658691 -1.763668 2.348480
v 3.658691 -0.887373 2.348480
v 3.658691 -0.347869 2.241166
v 3.658691 0.170392 2.026496
v 3.658691 0.627761 1.720891
v 3.658691 1.089949 1.258703
v 3.658691 1.395553 0.801334
v -3.658691 -1.763668 2.348480
v -3.658691 1.717538 -2.411556
v -3.658691 1.717538 -0.256430
v -3.658691 1.610224 0.283073
v -3.658691 1.395553 0.801334
v -3.658691 1.089949 1.258703
v -3.658691 0.627761 1.720891
v -3.658691 0.170392 2.026496
v -3.658691 -0.347869 2.241166
v -3.658691 -0.887373 2.348480
v 4.259244 -1.763669 -2.411558
v 4.259244 -1.763669 2.474634
v 4.259244 1.809799 -2.411558
v 4.259244 1.809799 -0.270205
v 4.259244 1.696720 0.298279
v 4.259244 1.470518 0.844379
v 4.259244 1.148498 1.326317
v 4.259244 0.661482 1.813333
v 4.259244 0.179545 2.135353
v 4.259244 -0.366556 2.361555
v 4.259244 -0.935040 2.474634
v 3.726839 1.696720 0.298279
v 3.726839 1.809799 -0.270205
v 3.726839 1.809799 -2.411558
v 3.726839 -1.763669 2.474634
v 3.726839 -0.935040 2.474634
v 3.726839 -0.366556 2.361555
v 3.726839 0.179545 2.135353
v 3.726839 0.661482 1.813333
v 3.726839 1.148498 1.326317
v 3.726839 1.470518 0.844379
v -4.259244 -1.763669 -2.411558
v -4.259244 -1.763669 2.474634
v -4.259244 -0.935040 2.474634
v -4.259244 -0.366556 2.361555
v -4.259244 0.179545 2.135353
v -4.259244 0.661482 1.813333
v -4.259244 1.148498 1.326317
v -4.259244 1.470518 0.844379
v -4.259244 1.696720 0.298279
v -4.259244 1.809799 -0.270205
v -4.259244 1.809799 -2.411558
v -3.726839 1.809799 -0.270205
v -3.726839 1.809799 -2.411558
v -3.726839 1.696720 0.298279
v -3.726839 1.470518 0.844379
v -3.726839 1.148498 1.326317
v -3.726839 0.661482 1.813333
v -3.726839 0.179545 2.135353
v -3.726839 -0.366556 2.361555
v -3.726839 -0.935040 2.474634
v -3.726839 -1.763669 2.474634
vt 0.481828 0.395335
vt 0.804952 0.395335
vt 0.804952 0.718459
vt 0.663345 0.718459
vt 0.625751 0.708234
vt 0.589637 0.687780
vt 0.557767 0.658662
vt 0.525560 0.614624
vt 0.504265 0.571046
vt 0.489306 0.521666
vt 0.481828 0.470262
vt 0.038176 0.012269
vt 0.115504 0.012269
vt 0.115504 0.030200
vt 0.113714 0.042502
vt 0.110135 0.054320
vt 0.105038 0.064749
vt 0.817711 0.725632
vt 0.885924 0.004661
vt 0.538192 0.004661
vt 0.817711 0.936905
vt 0.414643 0.031813
vt 0.414643 0.363140
vt 0.097331 0.075287
vt 0.982901 0.395335
vt 0.908724 0.234811
vt 0.927549 0.305018
vt 0.496568 0.305018
vt 0.515393 0.234811
vt 0.947633 0.351439
vt 0.971604 0.384048
vt 0.452512 0.384048
vt 0.476483 0.351439
vt 0.889590 0.086612
vt 0.897211 0.165336
vt 0.526905 0.165336
vt 0.534527 0.086612
vt 0.234548 0.843479
vt 0.181672 0.808951
vt 0.184765 0.808951
vt 0.231053 0.843479
vt 0.130033 0.363140
vt 0.130033 0.031813
vt 0.004951 0.005351
vt 0.636227 0.936905
vt 0.636227 0.725632
vt 0.025609 0.005351
vt 0.012424 0.178936
vt 0.032627 0.178936
vt 0.047141 0.345686
vt 0.027995 0.345686
vt 0.051592 0.492844
vt 0.068875 0.492844
vt 0.103988 0.641553
vt 0.089704 0.082256
vt 0.081061 0.087151
vt 0.072064 0.089598
vt 0.090352 0.641553
vt 0.038176 0.089598
vt 0.131904 0.739881
vt 0.140992 0.739881
vt 0.246884 0.843479
vt 0.243389 0.843479
vt 0.974342 0.369003
vt 0.974342 0.039794
vt 0.293172 0.808951
vt 0.296266 0.808951
vt 0.346034 0.739881
vt 0.336945 0.739881
vt 0.373950 0.641553
vt 0.387585 0.641553
vt 0.426346 0.492844
vt 0.409063 0.492844
vt 0.430797 0.345686
vt 0.449942 0.345686
vt 0.465513 0.178936
vt 0.445310 0.178936
vt 0.452328 0.005351
vt 0.472987 0.005351
vt 0.106580 0.329315
vt 0.106580 0.129534
vt 0.951770 0.634838
vt 0.960308 0.632516
vt 0.960549 0.634387
vt 0.951552 0.636834
vt 0.917663 0.634838
vt 0.917663 0.636834
vt 0.992995 0.578469
vt 0.992995 0.559506
vt 0.994992 0.559506
vt 0.994992 0.577437
vt 0.991297 0.590143
vt 0.993202 0.589739
vt 0.987900 0.601358
vt 0.989622 0.601556
vt 0.983063 0.611256
vt 0.984526 0.611985
vt 0.975749 0.621257
vt 0.976819 0.622524
vt 0.968510 0.627870
vt 0.969192 0.629492
vt 0.243645 0.448116
vt 0.401157 0.448116
vt 0.401157 0.457336
vt 0.244651 0.457336
vt 0.204214 0.437391
vt 0.203102 0.446035
vt 0.166336 0.415938
vt 0.163190 0.423430
vt 0.132908 0.385397
vt 0.127966 0.391248
vt 0.099128 0.339208
vt 0.092371 0.342578
vt 0.076792 0.293500
vt 0.068836 0.294415
vt 0.061102 0.241707
vt 0.052303 0.239840
vt 0.053259 0.187791
vt 0.044039 0.183028
vt 0.053259 0.100218
vt 0.044039 0.100218
vt 0.982901 0.550476
vt 0.827760 0.550476
vt 0.827760 0.395335
vt 0.995049 0.039794
vt 0.995049 0.369003
vt 0.450558 0.395498
vt 0.471266 0.395498
vt 0.471266 0.724707
vt 0.450558 0.724707
vt 0.119785 0.129534
vt 0.119785 0.329315
vt 0.950889 0.129534
vt 0.964093 0.129534
vt 0.964093 0.329315
vt 0.950889 0.329315
vn 0.000000 0.000000 1.000000
vn 0.000000 0.075581 0.997140
vn 0.000000 0.075581 0.997140
vn 0.000000 0.000000 1.000000
vn 0.000000 0.999208 0.039794
vn 0.000000 1.000000 0.000000
vn 0.000000 1.000000 0.000000
vn 0.000000 0.999208 0.039794
vn 1.000000 0.000000 0.000000
vn 1.000000 0.000000 0.000000
vn 1.000000 0.000000 0.000000
vn 1.000000 0.000000 0.000000
vn 1.000000 0.000000 0.000000
vn 1.000000 0.000001 0.000000
vn 1.000000 -0.000001 0.000000
vn 1.000000 0.000003 0.000000
vn 1.000000 0.000002 0.000000
vn 1.000000 -0.000006 0.000000
vn 1.000000 -0.000009 0.000000
vn -1.000000 0.000000 -0.000000
vn -1.000000 0.000000 -0.000000
vn -1.000000 -0.000000 -0.000000
vn -1.000000 0.000000 -0.000000
vn -1.000000 -0.000000 -0.000000
vn -1.000000 0.000001 0.000001
vn -1.000000 -0.000002 0.000000
vn -1.000000 0.000003 -0.000001
vn -1.000000 -0.000002 0.000001
vn -1.000000 0.000000 0.000001
vn -1.000000 0.000000 -0.000001
vn 0.000000 0.640921 0.767607
vn 0.000000 0.767607 0.640921
vn 0.000000 0.767607 0.640921
vn 0.000000 0.640921 0.767607
vn 0.000000 0.882376 0.470545
vn 0.000000 0.956660 0.291208
vn 0.000000 0.956660 0.291208
vn 0.000000 0.882376 0.470545
vn 0.000000 0.291208 0.956660
vn 0.000000 0.470545 0.882376
vn 0.000000 0.470545 0.882376
vn 0.000000 0.291208 0.956660
vn 0.000000 0.999130 0.041693
vn 0.000000 0.956660 0.291208
vn 0.000000 0.956660 0.291208
vn 0.000000 0.999130 0.041693
vn 0.000000 1.000000 0.000000
vn 0.000000 1.000000 0.000000
vn 0.000000 0.080673 0.996741
vn 0.000000 0.000000 1.000000
vn 0.000000 0.000000 1.000000
vn 0.000000 0.080673 0.996741
vn 0.000000 0.291208 0.956660
vn 0.000000 0.291208 0.956660
vn 0.000000 0.470545 0.882376
vn 0.000000 0.470545 0.882376
vn 0.000000 0.640921 0.767607
vn 0.000000 0.640921 0.767607
vn 0.000000 0.767607 0.640920
vn 0.000000 0.767607 0.640920
vn 0.000000 0.882376 0.470545
vn 0.000000 0.882376 0.470545
vn 0.000000 0.999130 0.041693
vn 0.000000 0.999130 0.041693
vn 0.000000 1.000000 0.000000
vn 0.000000 1.000000 0.000000
vn 0.000000 0.956660 0.291208
vn 0.000000 0.956660 0.291208
vn 0.000000 0.882376 0.470545
vn 0.000000 0.882376 0.470545
vn 0.000000 0.767607 0.640920
vn 0.000000 0.767607 0.640920
vn 0.000000 0.640921 0.767607
vn 0.000000 0.640921 0.767607
vn 0.000000 0.470545 0.882376
vn 0.000000 0.470545 0.882376
vn 0.000000 0.291208 0.956660
vn 0.000000 0.291208 0.956660
vn 0.000000 0.080673 0.996741
vn 0.000000 0.080673 0.996741
vn 0.000000 0.000000 1.000000
vn 0.000000 0.000000 1.000000
vn -0.789971 0.601363 0.119619
vn -0.789971 0.601363 0.119619
vn -0.789971 0.601363 0.119619
vn -0.789971 0.601363 0.119619
vn -0.804365 0.594136 0.000000
vn -0.804365 0.594136 0.000000
vn -0.804365 0.594136 0.000000
vn -0.804365 0.594136 0.000000
vn -0.879834 0.000000 0.475281
vn -0.879834 0.000000 0.475281
vn -0.879834 0.000000 0.475281
vn -0.879834 0.000000 0.475281
vn -0.859180 0.099823 0.501842
vn -0.859180 0.099823 0.501842
vn -0.859180 0.099823 0.501842
vn -0.859180 0.099823 0.501842
vn -0.836605 0.209637 0.506107
vn -0.836605 0.209637 0.506107
vn -0.836605 0.209637 0.506107
vn -0.836605 0.209637 0.506107
vn -0.814281 0.322493 0.482644
vn -0.814281 0.322493 0.482644
vn -0.814281 0.322493 0.482644
vn -0.814281 0.322493 0.482644
vn -0.794668 0.429246 0.429245
vn -0.794668 0.429246 0.429245
vn -0.794668 0.429246 0.429245
vn -0.794668 0.429246 0.429245
vn -0.784622 0.515491 0.344439
vn -0.784622 0.515491 0.344438
vn -0.784622 0.515491 0.344438
vn -0.784622 0.515491 0.344438
vn -0.782814 0.574889 0.238126
vn -0.782814 0.574889 0.238126
vn -0.782814 0.574889 0.238126
vn -0.782814 0.574889 0.238126
vn 0.804365 0.594135 0.000000
vn 0.804365 0.594135 0.000000
vn 0.804365 0.594135 0.000000
vn 0.804365 0.594135 0.000000
vn 0.789971 0.601363 0.119618
vn 0.789971 0.601363 0.119618
vn 0.789971 0.601363 0.119618
vn 0.789971 0.601363 0.119618
vn 0.782814 0.574889 0.238127
vn 0.782814 0.574889 0.238127
vn 0.782814 0.574889 0.238127
vn 0.782814 0.574889 0.238127
vn 0.784622 0.515490 0.344439
vn 0.784622 0.515490 0.344439
vn 0.784622 0.515490 0.344439
vn 0.784622 0.515490 0.344439
vn 0.794668 0.429246 0.429244
vn 0.794668 0.429246 0.429244
vn 0.794668 0.429246 0.429244
vn 0.794668 0.429246 0.429244
vn 0.814281 0.322492 0.482643
vn 0.814281 0.322492 0.482643
vn 0.814282 0.322492 0.482643
vn 0.814282 0.322492 0.482643
vn 0.836605 0.209636 0.506108
vn 0.836605 0.209636 0.506108
vn 0.836605 0.209636 0.506108
vn 0.836605 0.209636 0.506108
vn 0.859179 0.099823 0.501842
vn 0.859179 0.099823 0.501842
vn 0.859180 0.099823 0.501843
vn 0.859180 0.099823 0.501842
vn 0.879834 0.000000 0.475281
vn 0.879834 0.000000 0.475281
vn 0.879834 0.000000 0.475281
vn 0.879834 0.000000 0.475281
s 1
g pCube1
f 4/18/1 5/21/2 20/45/3 11/46/4
f 2/22/5 3/23/6 12/42/7 13/43/8
s 3
f 22/1/9 21/2/10 31/11/11
f 21/2/10 23/3/12 31/11/11
f 23/3/12 24/4/13 31/11/11
f 31/11/11 24/4/13 30/10/14
f 30/10/14 24/4/13 29/9/15
f 29/9/15 24/4/13 28/8/16
f 28/8/16 24/4/13 27/7/17
f 24/4/13 25/5/18 27/7/17
f 25/5/18 26/6/19 27/7/17
s 4
f 42/12/20 43/13/21 52/59/22
f 43/13/21 44/14/23 52/59/22
f 52/59/22 44/14/23 51/57/24
f 44/14/23 45/15/25 51/57/24
f 45/15/25 46/16/26 51/57/24
f 46/16/26 47/17/27 51/57/24
f 47/17/27 48/24/28 51/57/24
f 48/24/28 49/55/29 51/57/24
f 49/55/29 50/56/30 51/57/24
s 1
f 8/26/31 9/27/32 16/28/33 17/29/34
f 10/30/35 1/31/36 14/32/37 15/33/38
f 6/34/39 7/35/40 18/36/41 19/37/42
f 1/25/36 2/122/5 13/123/8 14/124/37
f 9/27/32 10/30/35 15/33/38 16/28/33
f 7/35/40 8/26/31 17/29/34 18/36/41
f 5/19/2 6/34/39 19/37/42 20/20/3
s 6
f 33/38/43 32/39/44 25/40/45 24/41/46
f 34/64/47 33/65/43 24/125/46 23/126/48
f 36/80/49 35/81/50 22/131/51 31/132/52
f 37/48/53 36/44/49 31/47/52 30/49/54
f 29/50/55 38/51/56 37/48/53 30/49/54
f 39/52/57 38/51/56 29/50/55 28/53/58
f 27/54/59 40/58/60 39/52/57 28/53/58
f 41/60/61 40/58/60 27/54/59 26/61/62
f 25/40/45 32/39/44 41/60/61 26/61/62
s 8
f 51/127/63 53/128/64 54/129/65 52/130/66
f 51/62/63 50/66/67 55/67/68 53/63/64
f 56/68/69 55/67/68 50/66/67 49/69/70
f 49/69/70 48/70/71 57/71/72 56/68/69
f 58/72/73 57/71/72 48/70/71 47/73/74
f 47/73/74 46/74/75 59/75/76 58/72/73
f 60/76/77 59/75/76 46/74/75 45/77/78
f 45/77/78 44/78/79 61/79/80 60/76/77
f 43/133/81 62/134/82 61/135/80 44/136/79
s off
f 2/82/83 1/83/84 32/84/85 33/85/86
f 3/86/87 2/82/88 33/85/89 34/87/90
f 5/88/91 4/89/92 35/90/93 36/91/94
f 6/92/95 5/88/96 36/91/97 37/93/98
f 7/94/99 6/92/100 37/93/101 38/95/102
f 8/96/103 7/94/104 38/95/105 39/97/106
f 9/98/107 8/96/108 39/97/109 40/99/110
f 10/100/111 9/98/112 40/99/113 41/101/114
f 1/83/115 10/100/116 41/101/117 32/84/118
f 13/102/119 12/103/120 54/104/121 53/105/122
f 14/106/123 13/102/124 53/105/125 55/107/126
f 15/108/127 14/106/128 55/107/129 56/109/130
f 16/110/131 15/108/132 56/109/133 57/111/134
f 17/112/135 16/110/136 57/111/137 58/113/138
f 18/114/139 17/112/140 58/113/141 59/115/142
f 19/116/143 18/114/144 59/115/145 60/117/146
f 20/118/147 19/116/148 60/117/149 61/119/150
f 11/120/151 20/118/152 61/119/153 62/121/154
