# This file uses centimeters as units for non-parametric coordinates.

g default
v -5.831279 -6.568454 -10.805498
v 5.831279 -6.568454 -10.805498
v -5.831279 6.568454 -10.805498
v 5.831279 6.568454 -10.805498
v -5.831279 6.568454 -14.194502
v 5.831279 6.568454 -14.194502
v -5.831279 -6.568454 -14.194502
v 5.831279 -6.568454 -14.194502
v -5.831279 -6.568454 14.194502
v 5.831279 -6.568454 14.194502
v -5.831279 6.568454 14.194502
v 5.831279 6.568454 14.194502
v -5.831279 6.568454 10.805498
v 5.831279 6.568454 10.805498
v -5.831279 -6.568454 10.805498
v 5.831279 -6.568454 10.805498
v 4.373459 6.568454 10.805498
v 4.373459 -6.568454 10.805498
v -4.373459 -6.568454 10.805498
v -4.373459 6.568454 10.805498
v 4.373459 -6.568454 -10.805498
v 4.373459 6.568454 -10.805498
v -4.373459 -6.568454 -10.805498
v -4.373459 6.568454 -10.805498
v -7.632782 6.019590 14.956880
v 7.474377 6.019590 14.956880
v -7.632782 7.019590 14.956880
v 7.474377 7.019590 14.956880
v -7.632782 7.019590 -14.895887
v 7.474377 7.019590 -14.895887
v -7.632782 6.019590 -14.895887
v 7.474377 6.019590 -14.895887
vt 0.223331 0.995050
vt 0.004509 0.995050
vt 0.004509 0.721007
vt 0.223331 0.721007
vt 0.004509 0.436318
vt 0.223344 0.436318
vt 0.223344 0.710375
vt 0.004509 0.710375
vt 0.737480 0.004950
vt 0.782717 0.004950
vt 0.782717 0.390200
vt 0.737480 0.390200
vt 0.906333 0.399839
vt 0.746551 0.401638
vt 0.791766 0.401638
vt 0.906333 0.673709
vt 0.791766 0.786702
vt 0.878996 0.673709
vt 0.878996 0.399839
vt 0.746551 0.786702
vt 0.260447 0.708317
vt 0.233110 0.708317
vt 0.233110 0.434447
vt 0.260447 0.434447
vt 0.802795 0.675857
vt 0.802795 0.401800
vt 0.830150 0.401800
vt 0.830150 0.675857
vt 0.840896 0.401822
vt 0.868250 0.401822
vt 0.868250 0.675879
vt 0.840896 0.675879
vt 0.793724 0.005632
vt 0.838961 0.005632
vt 0.838961 0.390881
vt 0.793724 0.390881
vt 0.849967 0.005145
vt 0.895190 0.005145
vt 0.895190 0.390291
vt 0.849967 0.390291
vt 0.724776 0.391553
vt 0.436309 0.391553
vt 0.436309 0.006303
vt 0.724776 0.006303
vt 0.447194 0.400357
vt 0.735637 0.400357
vt 0.735637 0.785576
vt 0.447194 0.785576
vt 0.233109 0.871086
vt 0.516577 0.871086
vt 0.516577 0.891948
vt 0.233109 0.891948
vt 0.004509 0.005631
vt 0.424673 0.005631
vt 0.424673 0.425795
vt 0.004509 0.425795
vt 0.812079 0.891096
vt 0.528836 0.891096
vt 0.528836 0.870252
vt 0.812079 0.870252
vt 0.403652 0.793288
vt 0.802131 0.793288
vt 0.802131 0.822613
vt 0.403652 0.822613
vt 0.233110 0.831654
vt 0.631271 0.831654
vt 0.631271 0.860956
vt 0.233110 0.860956
vn 0.000000 0.000000 -1.000000
vn 0.000000 0.000000 -1.000000
vn 0.000000 0.000000 -1.000000
vn 0.000000 0.000000 -1.000000
vn 1.000000 0.000000 0.000000
vn 1.000000 0.000000 0.000000
vn 1.000000 0.000000 0.000000
vn 1.000000 0.000000 0.000000
vn -1.000000 0.000000 0.000000
vn -1.000000 0.000000 0.000000
vn -1.000000 0.000000 0.000000
vn -1.000000 0.000000 0.000000
vn 0.000000 0.000000 1.000000
vn 0.000000 0.000000 1.000000
vn 0.000000 0.000000 1.000000
vn 0.000000 0.000000 1.000000
vn 1.000000 0.000000 0.000000
vn 1.000000 0.000000 0.000000
vn 1.000000 0.000000 0.000000
vn 1.000000 0.000000 0.000000
vn -1.000000 0.000000 0.000000
vn -1.000000 0.000000 0.000000
vn -1.000000 0.000000 0.000000
vn -1.000000 0.000000 0.000000
vn 0.000000 0.000000 -1.000000
vn 0.000000 0.000000 -1.000000
vn 0.000000 0.000000 -1.000000
vn 0.000000 0.000000 -1.000000
vn 0.000000 0.000000 -1.000000
vn 0.000000 0.000000 -1.000000
vn 0.000000 0.000000 -1.000000
vn 0.000000 0.000000 -1.000000
vn 0.000000 0.000000 1.000000
vn 0.000000 0.000000 1.000000
vn 0.000000 0.000000 1.000000
vn 0.000000 0.000000 1.000000
vn 0.000000 0.000000 1.000000
vn 0.000000 0.000000 1.000000
vn 0.000000 0.000000 1.000000
vn 0.000000 0.000000 1.000000
vn 1.000000 0.000000 0.000000
vn 1.000000 0.000000 0.000000
vn 1.000000 0.000000 0.000000
vn 1.000000 0.000000 0.000000
vn -1.000000 0.000000 0.000000
vn -1.000000 0.000000 0.000000
vn -1.000000 0.000000 0.000000
vn -1.000000 0.000000 0.000000
vn 0.000000 0.000000 1.000000
vn 0.000000 0.000000 1.000000
vn 0.000000 0.000000 1.000000
vn 0.000000 0.000000 1.000000
vn 0.000000 1.000000 0.000000
vn 0.000000 1.000000 0.000000
vn 0.000000 1.000000 0.000000
vn 0.000000 1.000000 0.000000
vn 0.000000 0.000000 -1.000000
vn 0.000000 0.000000 -1.000000
vn 0.000000 0.000000 -1.000000
vn 0.000000 0.000000 -1.000000
vn 1.000000 0.000000 0.000000
vn 1.000000 0.000000 0.000000
vn 1.000000 0.000000 0.000000
vn 1.000000 0.000000 0.000000
vn -1.000000 0.000000 0.000000
vn -1.000000 0.000000 0.000000
vn -1.000000 0.000000 0.000000
vn -1.000000 0.000000 0.000000
s off
g pCube5
f 5/1/1 6/2/2 8/3/3 7/4/4
f 2/9/5 8/10/6 6/11/7 4/12/8
f 7/14/9 1/15/10 3/17/11 5/20/12
f 9/5/13 10/6/14 12/7/15 11/8/16
f 10/33/17 16/34/18 14/35/19 12/36/20
f 15/37/21 9/38/22 11/39/23 13/40/24
f 18/13/25 17/16/26 14/18/27 16/19/28
f 13/21/29 20/22/30 19/23/31 15/24/32
f 22/25/33 21/26/34 2/27/35 4/28/36
f 1/29/37 23/30/38 24/31/39 3/32/40
f 22/41/41 17/42/42 18/43/43 21/44/44
f 23/45/45 19/46/46 20/47/47 24/48/48
f 25/49/49 26/50/50 28/51/51 27/52/52
f 27/53/53 28/54/54 30/55/55 29/56/56
f 29/57/57 30/58/58 32/59/59 31/60/60
f 26/61/61 32/62/62 30/63/63 28/64/64
f 31/65/65 25/66/66 27/67/67 29/68/68
