# This file uses centimeters as units for non-parametric coordinates.

g default
v -5.169869 1.588152 1.359650
v 5.169869 1.588152 1.359650
v -5.169869 1.588152 -1.268513
v 5.169869 1.588152 -1.268513
v -5.169869 1.204648 1.359650
v 5.169869 1.204648 1.359650
v 5.169869 1.204648 -1.268513
v -5.169869 1.204648 -1.268513
v -5.022530 -1.579431 -1.268511
v 5.022530 -1.579431 -1.268511
v 5.022530 -1.579431 1.177374
v -5.022530 -1.579431 1.177374
v 5.022530 1.195927 1.177374
v -5.022530 1.195927 1.177374
v 5.022530 1.195927 -1.268511
v -5.022530 1.195927 -1.268511
v 0.000000 1.588152 1.359650
v 0.000000 1.204648 1.359650
v 0.000000 -1.579431 1.177374
v 0.000000 1.588152 -1.268513
v 2.118589 -1.579431 1.177374
v 2.118589 1.195927 1.177374
v 2.180738 1.204648 1.359650
v 2.180738 1.588152 1.359650
v 2.180738 1.588152 -1.268513
v -2.180738 1.588152 1.359650
v -2.180738 1.204648 1.359650
v -2.118589 1.195927 1.177374
v -2.118589 -1.579431 1.177374
v -2.180738 1.588152 -1.268513
v 0.000000 1.195927 1.027433
v 0.000000 -1.579431 1.027433
v 2.118589 -1.579431 1.027433
v 2.118589 1.195927 1.027433
v -2.118589 1.195927 1.027433
v -2.118589 -1.579431 1.027433
v -2.118589 1.195927 0.996172
v -2.118589 -1.579431 0.996172
v 0.000000 -1.579431 0.996172
v 0.000000 1.195927 0.996172
vt 0.004950 0.837949
vt 0.279053 0.837949
vt 0.252565 0.500044
vt 0.252565 0.004815
vt 0.357013 0.004815
vt 0.357013 0.500044
vt 0.279053 0.871135
vt 0.004950 0.871135
vt 0.292209 0.836326
vt 0.566306 0.836326
vt 0.148117 0.500044
vt 0.148117 0.004815
vt 0.500179 0.004815
vt 0.500179 0.500044
vt 0.004951 0.004815
vt 0.004951 0.500044
vt 0.663350 0.742404
vt 0.764821 0.742404
vt 0.764821 0.770657
vt 0.663350 0.770657
vt 0.561880 0.742404
vt 0.561880 0.770657
vt 0.663350 0.776547
vt 0.561880 0.776547
vt 0.276791 0.826757
vt 0.276791 0.760933
vt 0.391458 0.760933
vt 0.391458 0.826757
vt 0.798331 0.967754
vt 0.798331 0.491395
vt 0.909730 0.491395
vt 0.909730 0.967754
vt 0.162124 0.826757
vt 0.162124 0.760933
vt 0.513027 0.481174
vt 0.513027 0.004815
vt 0.624426 0.004815
vt 0.624426 0.481174
vt 0.638091 0.481174
vt 0.638091 0.004815
vt 0.790786 0.004815
vt 0.790786 0.481174
vt 0.548631 0.760933
vt 0.548631 0.826757
vt 0.004951 0.760933
vt 0.004951 0.826757
vt 0.804193 0.005689
vt 0.956887 0.005689
vt 0.956887 0.482049
vt 0.804193 0.482049
vt 0.566306 0.869512
vt 0.292209 0.869512
vt 0.513027 0.490317
vt 0.768120 0.490317
vt 0.768120 0.730480
vt 0.513027 0.730480
vt 0.004951 0.511310
vt 0.260043 0.511310
vt 0.260043 0.751472
vt 0.004951 0.751472
vt 0.982024 0.255707
vt 0.982024 0.495856
vt 0.966387 0.495856
vt 0.966387 0.255707
vt 0.970295 0.244976
vt 0.970295 0.004815
vt 0.985933 0.004815
vt 0.985933 0.244976
vt 0.989193 0.004815
vt 0.989193 0.244976
vt 0.995050 0.264283
vt 0.995050 0.504363
vt 0.991791 0.504363
vt 0.991791 0.264283
vn 0.000000 0.000000 1.000000
vn 0.000000 0.000000 1.000000
vn 0.000000 0.000000 1.000000
vn 0.000000 0.000000 1.000000
vn 0.000000 1.000000 0.000000
vn 0.000000 1.000000 0.000000
vn 0.000000 1.000000 0.000000
vn 0.000000 1.000000 0.000000
vn 1.000000 0.000000 0.000000
vn 1.000000 0.000000 0.000000
vn 1.000000 0.000000 0.000000
vn 1.000000 0.000000 0.000000
vn -1.000000 0.000000 0.000000
vn -1.000000 0.000000 0.000000
vn -1.000000 0.000000 0.000000
vn -1.000000 0.000000 0.000000
vn 0.000000 0.000000 1.000000
vn 0.000000 0.000000 1.000000
vn 0.000000 0.000000 1.000000
vn 0.000000 0.000000 1.000000
vn 1.000000 0.000000 0.000000
vn 1.000000 0.000000 0.000000
vn 1.000000 0.000000 0.000000
vn 1.000000 0.000000 0.000000
vn -1.000000 0.000000 0.000000
vn -1.000000 0.000000 0.000000
vn -1.000000 0.000000 0.000000
vn -1.000000 0.000000 0.000000
vn 0.000000 0.000000 1.000000
vn 0.000000 0.000000 1.000000
vn 0.000000 0.000000 1.000000
vn 0.000000 0.000000 1.000000
vn 0.000000 0.000000 1.000000
vn 0.000000 0.000000 1.000000
vn 0.000000 1.000000 0.000000
vn 0.000000 1.000000 0.000000
vn 0.000000 0.000000 1.000000
vn 0.000000 0.000000 1.000000
vn 0.000000 0.000000 1.000000
vn 0.000000 0.000000 1.000000
vn 0.000000 0.000000 1.000000
vn 0.000000 0.000000 1.000000
vn 0.000000 1.000000 0.000000
vn 0.000000 1.000000 0.000000
vn 0.000000 0.000000 1.000000
vn 0.000000 0.000000 1.000000
vn 0.000000 0.000000 1.000000
vn 0.000000 0.000000 1.000000
vn 0.000000 0.000000 1.000000
vn 0.000000 0.000000 1.000000
vn 0.000000 1.000000 0.000000
vn 0.000000 1.000000 0.000000
vn 0.000000 1.000000 0.000000
vn 0.000000 1.000000 0.000000
vn 0.000000 1.000000 0.000000
vn 0.000000 1.000000 0.000000
vn -1.000000 0.000000 0.000000
vn -1.000000 0.000000 0.000000
vn -1.000000 0.000000 0.000000
vn -1.000000 0.000000 0.000000
vn 1.000000 0.000000 0.000000
vn 1.000000 0.000000 0.000000
vn 1.000000 0.000000 0.000000
vn 1.000000 0.000000 0.000000
vn 0.000000 1.000000 0.000000
vn 0.000000 1.000000 0.000000
vn 1.000000 0.000000 0.000000
vn 1.000000 0.000000 0.000000
vn 0.000000 1.000000 0.000000
vn 0.000000 1.000000 0.000000
vn -1.000000 0.000000 0.000000
vn -1.000000 0.000000 0.000000
vn -1.000000 0.000000 0.000000
vn -1.000000 0.000000 0.000000
s 1
g pCube1
f 17/25/1 18/26/2 23/27/3 24/28/4
s 2
f 20/3/5 17/4/6 24/5/7 25/6/8
s off
f 6/1/9 7/2/10 4/7/11 2/8/12
f 8/9/13 5/10/14 1/51/15 3/52/16
f 31/29/17 32/30/18 33/31/19 34/32/20
f 11/53/21 10/54/22 15/55/23 13/56/24
f 9/57/25 12/58/26 14/59/27 16/60/28
s 1
f 26/33/29 27/34/30 18/26/2 17/25/1
s off
f 37/35/31 38/36/32 39/37/33 40/38/34
s 2
f 30/11/35 26/12/36 17/4/6 20/3/5
s off
f 22/39/37 21/40/38 11/41/39 13/42/40
s 1
f 24/28/4 23/27/3 6/43/41 2/44/42
s 2
f 25/6/8 24/5/7 2/13/43 4/14/44
s 1
f 5/45/45 27/34/30 26/33/29 1/46/46
s off
f 12/47/47 29/48/48 28/49/49 14/50/50
s 2
f 1/15/51 26/12/36 30/11/35 3/16/52
s 3
f 19/17/53 21/18/54 33/19/55 32/20/56
s off
f 21/61/57 22/62/58 34/63/59 33/64/60
s 4
f 28/65/61 29/66/62 36/67/63 35/68/64
s 3
f 29/21/65 19/17/53 32/20/56 36/22/66
s 4
f 35/68/64 36/67/63 38/69/67 37/70/68
s 3
f 36/22/66 32/20/56 39/23/69 38/24/70
s off
f 32/71/71 31/72/72 40/73/73 39/74/74
