# This file uses centimeters as units for non-parametric coordinates.

g default
v -1.457366 -1.638898 2.493251
v 1.457366 -1.638898 2.493251
v -1.457366 1.638898 2.493251
v 1.457366 1.638898 2.493251
v -1.457366 1.638898 -2.493251
v 1.457366 1.638898 -2.493251
v -1.457366 -1.638898 -2.493251
v 1.457366 -1.638898 -2.493251
v 1.457366 -1.638898 -1.246626
v 1.457366 1.638898 -1.246626
v -1.457366 1.638898 -1.246626
v -1.457366 1.638898 2.181595
v 1.457366 1.638898 2.181595
v 1.457366 -1.638898 2.181595
v -1.457366 1.229174 -2.493251
v 1.457366 1.229174 -2.493251
v 1.457366 1.229174 -1.246626
v 1.457366 1.229174 2.181595
v 1.457366 1.229174 2.493251
v -1.457366 1.229174 2.493251
v -1.457366 -1.229174 2.493251
v 1.457366 -1.229174 2.493251
v 1.457366 -1.229174 2.181595
v 1.457366 -1.229174 -1.246626
v 1.457366 -1.229174 -2.493251
v -1.457366 -1.229174 -2.493251
v 1.457366 1.638898 -1.402454
v 1.457366 1.229174 -1.402454
v 1.457366 -1.229174 -1.402454
v 1.457366 -1.638898 -1.402454
v -1.457366 1.638898 -1.402454
v 1.457366 -1.638898 -2.337423
v 1.457366 -1.229174 -2.337423
v 1.457366 1.229174 -2.337423
v 1.457366 1.638898 -2.337423
v -1.457366 1.638898 -2.337423
v 1.358489 -1.135765 -1.116365
v 1.358489 1.135765 -1.116365
v 1.358489 1.135765 2.051334
v 1.358489 -1.135765 2.051334
v 1.378195 -1.070764 -2.277176
v 1.378195 1.070764 -2.277176
v 1.378195 1.070764 -1.462701
v 1.378195 -1.070764 -1.462701
v 1.383208 -1.159117 -1.148930
v 1.383208 -1.159117 2.083899
v 1.383208 1.159117 2.083899
v 1.383208 1.159117 -1.148930
v 1.432647 -1.205821 -1.214060
v 1.432647 1.205821 -1.214060
v 1.432647 1.205821 2.149030
v 1.432647 -1.205821 2.149030
v -1.457366 0.614587 -2.493251
v 1.457366 0.614587 -2.493251
v 1.457366 0.614587 -2.337423
v 1.378195 0.535382 -2.277176
v 1.378195 0.535382 -1.462701
v 1.457366 0.614587 -1.402454
v 1.457366 0.614587 -1.246626
v 1.432647 0.602911 -1.214060
v 1.383208 0.579559 -1.148930
v 1.358489 0.567882 -1.116365
v 1.358489 0.567882 2.051334
v 1.383208 0.579559 2.083899
v 1.432647 0.602911 2.149030
v 1.457366 0.614587 2.181595
v 1.457366 0.614587 2.493251
v -1.457366 0.614587 2.493251
v 1.457366 -0.614587 2.493251
v 1.457366 -0.614587 2.181595
v 1.432647 -0.602911 2.149030
v 1.383208 -0.579559 2.083899
v 1.358489 -0.567882 2.051334
v 1.358489 -0.567882 -1.116365
v 1.383208 -0.579559 -1.148930
v 1.432647 -0.602911 -1.214060
v 1.457366 -0.614587 -1.246626
v 1.457366 -0.614587 -1.402454
v 1.378195 -0.535382 -1.462701
v 1.378195 -0.535382 -2.277176
v 1.457366 -0.614587 -2.337423
v 1.457366 -0.614587 -2.493251
v -1.457366 -0.614587 -2.493251
v -1.457366 -0.614587 2.493251
v 1.383208 -0.579559 -1.192678
v 1.432647 -0.602911 -1.257809
v 1.432647 0.602911 -1.257809
v 1.383208 0.579559 -1.192678
v 1.547653 -0.614587 2.181595
v 1.547653 0.614587 2.181595
v 1.547653 -1.229174 -1.246626
v 1.547653 -1.229174 2.181595
v 1.547653 1.229174 2.181595
v 1.547653 1.229174 -1.246626
v 1.547653 -0.614587 -1.246626
v 1.547653 0.614587 -1.246626
v 1.547653 -0.614587 2.448112
v 1.502514 -0.614587 2.493251
v 1.502514 0.614587 2.493251
v 1.547653 0.614587 2.448112
v 1.502514 -1.638898 2.181595
v 1.547653 -1.593759 2.181595
v 1.547653 -1.593759 -1.246626
v 1.502514 -1.638898 -1.246626
v 1.502514 1.638898 2.181595
v 1.547653 1.593759 2.181595
v 1.547653 1.593759 2.448112
v 1.502514 1.638898 2.493251
v 1.547653 1.229174 2.448112
v 1.502514 1.229174 2.493251
v 1.502514 -1.638898 2.493251
v 1.547653 -1.593759 2.448112
v 1.502514 -1.229174 2.493251
v 1.547653 -1.229174 2.448112
v 1.502514 1.229174 -1.402454
v 1.547653 1.229174 -1.357315
v 1.547653 1.593759 -1.357315
v 1.502514 1.638898 -1.402454
v 1.547653 1.593759 -1.246626
v 1.502514 1.638898 -1.246626
v 1.502514 -0.614587 -1.402454
v 1.547653 -0.614587 -1.357315
v 1.547653 0.614587 -1.357315
v 1.502514 0.614587 -1.402454
v 1.547653 -1.229174 -1.357315
v 1.502514 -1.229174 -1.402454
v 1.502514 -1.638898 -1.402454
v 1.547653 -1.593759 -1.357315
vt 0.029879 0.456737
vt 0.429255 0.306400
vt 0.800487 0.306400
vt 0.800487 0.378163
vt 0.029879 0.418059
vt 0.330008 0.418059
vt 0.853928 0.674262
vt 0.919046 0.674262
vt 0.429255 0.378163
vt 0.800487 0.031313
vt 0.800487 0.294440
vt 0.429255 0.294440
vt 0.330008 0.456737
vt 0.029879 0.514754
vt 0.919046 0.804498
vt 0.429255 0.031313
vt 0.800487 0.007392
vt 0.330008 0.514754
vt 0.330008 0.630789
vt 0.429255 0.007392
vt 0.800487 0.390123
vt 0.029879 0.630789
vt 0.853928 0.804498
vt 0.029879 0.727486
vt 0.429255 0.390123
vt 0.892782 0.308006
vt 0.406414 0.354370
vt 0.892782 0.575625
vt 0.885993 0.581016
vt 0.885993 0.302615
vt 0.406414 0.404200
vt 0.873621 0.283303
vt 0.873621 0.013115
vt 0.880477 0.007672
vt 0.880477 0.288746
vt 0.906336 0.182909
vt 0.906336 0.084662
vt 0.920140 0.090993
vt 0.920140 0.176578
vt 0.760504 0.399547
vt 0.760504 0.506320
vt 0.745501 0.499440
vt 0.745501 0.406427
vt 0.870192 0.280581
vt 0.870192 0.015837
vt 0.896178 0.310703
vt 0.896178 0.572931
vt 0.882595 0.583713
vt 0.029879 0.688807
vt 0.330008 0.688807
vt 0.331670 0.404200
vt 0.330008 0.727486
vt 0.729505 0.672204
vt 0.729505 0.710897
vt 0.429255 0.710897
vt 0.882595 0.299919
vt 0.883905 0.004950
vt 0.429255 0.672204
vt 0.429255 0.498081
vt 0.729505 0.498081
vt 0.729505 0.614163
vt 0.429255 0.614163
vt 0.429255 0.401347
vt 0.729505 0.401347
vt 0.729505 0.440040
vt 0.429255 0.440040
vt 0.851230 0.403413
vt 0.857061 0.405938
vt 0.883905 0.291468
vt 0.913563 0.070184
vt 0.857061 0.531272
vt 0.851230 0.533797
vt 0.908142 0.415806
vt 0.917267 0.407437
vt 0.917267 0.537325
vt 0.331670 0.354370
vt 0.908142 0.528956
vt 0.828114 0.109018
vt 0.745501 0.516612
vt 0.776473 0.516012
vt 0.776473 0.546984
vt 0.745501 0.546385
vt 0.406414 0.005564
vt 0.406414 0.055393
vt 0.836717 0.116909
vt 0.331670 0.055393
vt 0.331670 0.005564
vt 0.919221 0.074676
vt 0.418871 0.055393
vt 0.418871 0.005564
vt 0.919221 0.077693
vt 0.406414 0.130137
vt 0.913563 0.073201
vt 0.418871 0.130137
vt 0.836717 0.223586
vt 0.418871 0.279626
vt 0.406414 0.279626
vt 0.418871 0.354370
vt 0.418871 0.404200
vt 0.828114 0.231475
vt 0.340705 0.787798
vt 0.594012 0.787798
vt 0.594012 0.925966
vt 0.859976 0.407200
vt 0.906334 0.060312
vt 0.340705 0.925966
vt 0.859976 0.530009
vt 0.805136 0.462745
vt 0.908826 0.058334
vt 0.908826 0.059663
vt 0.906334 0.061641
vt 0.896427 0.004950
vt 0.808024 0.461494
vt 0.896427 0.291468
vt 0.870193 0.583713
vt 0.870193 0.299919
vt 0.854691 0.031653
vt 0.808024 0.585661
vt 0.848508 0.031653
vt 0.805136 0.584410
vt 0.848508 0.009648
vt 0.854691 0.005921
vt 0.813801 0.458993
vt 0.816689 0.457742
vt 0.854691 0.314705
vt 0.848508 0.314705
vt 0.854691 0.327569
vt 0.848508 0.323842
vt 0.806237 0.031313
vt 0.811986 0.031313
vt 0.811986 0.294440
vt 0.816689 0.589413
vt 0.813801 0.588163
vt 0.848313 0.402150
vt 0.848313 0.535059
vt 0.917267 0.602270
vt 0.908142 0.585530
vt 0.828114 0.292704
vt 0.919046 0.869616
vt 0.853928 0.869616
vt 0.594012 0.995049
vt 0.340705 0.995049
vt 0.594012 0.718714
vt 0.340705 0.718714
vt 0.919046 0.609144
vt 0.853928 0.609144
vt 0.908142 0.332440
vt 0.908142 0.192607
vt 0.911610 0.192607
vt 0.911610 0.332440
vt 0.008241 0.133862
vt 0.004578 0.133862
vt 0.004578 0.057977
vt 0.008241 0.057977
vt 0.008241 0.285632
vt 0.004578 0.285632
vt 0.008241 0.361517
vt 0.004578 0.361517
vt 0.806237 0.294440
vt 0.029873 0.012960
vt 0.008241 0.012960
vt 0.004578 0.007387
vt 0.806237 0.007392
vt 0.308118 0.012960
vt 0.320765 0.007387
vt 0.317102 0.012960
vt 0.811986 0.010857
vt 0.029873 0.406534
vt 0.308118 0.406534
vt 0.811986 0.302936
vt 0.004578 0.412107
vt 0.008241 0.406534
vt 0.320765 0.361517
vt 0.317102 0.361517
vt 0.317102 0.285632
vt 0.320765 0.285632
vt 0.320765 0.412107
vt 0.317102 0.406534
vt 0.320765 0.133862
vt 0.317102 0.133862
vt 0.317102 0.057977
vt 0.320765 0.057977
vt 0.029873 0.133862
vt 0.029873 0.285632
vt 0.308118 0.057977
vt 0.029873 0.057977
vt 0.029873 0.361517
vt 0.308118 0.361517
vt 0.308118 0.133862
vt 0.308118 0.285632
vt 0.836717 0.276922
vt 0.816689 0.655249
vt 0.813801 0.652748
vt 0.808024 0.647744
vt 0.805136 0.645243
vt 0.857061 0.593939
vt 0.859976 0.591414
vt 0.851230 0.598989
vt 0.848313 0.601514
vt 0.848313 0.335695
vt 0.851230 0.338220
vt 0.857061 0.343270
vt 0.859976 0.345795
vt 0.808024 0.399411
vt 0.805136 0.401912
vt 0.813801 0.394408
vt 0.816689 0.391906
vt 0.828114 0.047790
vt 0.836717 0.063572
vt 0.917267 0.342492
vt 0.908142 0.359232
vt 0.837664 0.535059
vt 0.837664 0.402150
vt 0.827239 0.457742
vt 0.827239 0.589413
vt 0.827239 0.655249
vt 0.837664 0.601514
vt 0.837664 0.335695
vt 0.827239 0.391906
vt 0.734156 0.498081
vt 0.734156 0.614163
vt 0.734156 0.672204
vt 0.734156 0.710897
vt 0.734156 0.401347
vt 0.734156 0.440040
vt 0.828114 0.333524
vt 0.823207 0.333524
vt 0.823207 0.292704
vt 0.823207 0.231475
vt 0.823207 0.109018
vt 0.828114 0.006971
vt 0.823207 0.047790
vt 0.823207 0.006971
vt 0.806237 0.306400
vt 0.860876 0.031653
vt 0.860876 0.314705
vt 0.860876 0.005921
vt 0.860876 0.327569
vn 0.000000 1.000000 0.000000
vn 0.000000 1.000000 0.000000
vn 0.000000 1.000000 0.000000
vn 0.000000 1.000000 0.000000
vn 1.000000 0.000000 0.000000
vn 1.000000 0.000000 0.000000
vn 1.000000 0.000000 0.000000
vn 1.000000 0.000000 0.000000
vn 1.000000 0.000000 0.000000
vn 1.000000 0.000000 0.000000
vn 1.000000 0.000000 0.000000
vn 1.000000 0.000000 0.000000
vn 1.000000 0.000000 0.000000
vn 1.000000 0.000000 0.000000
vn 1.000000 0.000000 0.000000
vn 1.000000 0.000000 0.000000
vn 0.000000 0.000000 -1.000000
vn 0.000000 0.000000 -1.000000
vn 0.000000 0.000000 -1.000000
vn 0.000000 0.000000 -1.000000
vn 0.000000 0.000000 -1.000000
vn 0.000000 0.000000 -1.000000
vn 0.000000 0.000000 -1.000000
vn 0.000000 0.000000 -1.000000
vn 0.000000 0.000000 -1.000000
vn 0.000000 0.000000 -1.000000
vn 0.000000 0.000000 -1.000000
vn 0.000000 0.000000 -1.000000
vn 0.000000 1.000000 0.000000
vn 0.000000 1.000000 0.000000
vn 0.000000 1.000000 0.000000
vn 0.000000 1.000000 0.000000
vn 0.000000 1.000000 0.000000
vn 0.000000 1.000000 0.000000
vn 0.000000 0.000000 1.000000
vn 0.000000 0.000000 1.000000
vn 0.000000 0.000000 1.000000
vn 0.000000 0.000000 1.000000
vn 0.000000 0.000000 1.000000
vn 0.000000 0.000000 1.000000
vn 0.000000 0.000000 1.000000
vn 0.000000 0.000000 1.000000
vn 0.000000 0.000000 1.000000
vn 0.000000 0.000000 1.000000
vn 0.000000 0.000000 1.000000
vn 0.000000 0.000000 1.000000
vn 1.000000 0.000000 0.000000
vn 1.000000 0.000000 0.000000
vn 1.000000 0.000000 0.000000
vn 1.000000 0.000000 0.000000
vn 1.000000 0.000000 0.000000
vn 1.000000 0.000000 0.000000
vn 1.000000 0.000000 0.000000
vn 1.000000 0.000000 0.000000
vn 0.000000 1.000000 0.000000
vn 0.000000 1.000000 0.000000
vn 1.000000 0.000000 0.000000
vn 1.000000 0.000000 0.000000
vn 1.000000 0.000000 0.000000
vn 1.000000 0.000000 0.000000
vn 0.796520 0.000000 0.604613
vn 0.796520 0.000000 0.604613
vn 0.796520 0.000000 0.604613
vn 0.796520 0.000000 0.604613
vn 0.686720 -0.726922 0.000000
vn 0.686720 -0.726922 0.000000
vn 0.686722 -0.726920 0.000000
vn 0.686722 -0.726920 0.000000
vn 0.796518 0.000000 -0.604614
vn 0.796519 0.000000 -0.604614
vn 0.796519 0.000000 -0.604614
vn 0.796518 0.000000 -0.604614
vn 0.686720 0.726922 0.000000
vn 0.686720 0.726922 0.000000
vn 0.686721 0.726921 0.000000
vn 0.686721 0.726921 0.000000
vn 0.605571 0.000000 0.795792
vn 0.605571 0.000000 0.795791
vn 0.605571 0.000000 0.795792
vn 0.605570 0.000000 0.795792
vn 0.894503 -0.447062 0.000000
vn 0.894503 -0.447062 0.000000
vn 0.894503 -0.447062 0.000000
vn 0.894503 -0.447062 0.000000
vn 0.406021 0.000000 -0.913864
vn 0.605573 0.000000 -0.795790
vn 0.605573 0.000000 -0.795790
vn 0.406022 0.000000 -0.913864
vn 0.894503 0.447061 0.000000
vn 0.894503 0.447061 0.000000
vn 0.894503 0.447061 0.000000
vn 0.894503 0.447061 0.000000
vn 0.686721 0.726921 0.000000
vn 0.686721 0.726921 0.000000
vn 0.796520 0.000000 -0.604613
vn 0.796520 0.000000 -0.604613
vn 0.686720 -0.726922 0.000000
vn 0.686720 -0.726921 0.000000
vn 0.796519 0.000000 0.604614
vn 0.796519 0.000000 0.604614
vn 0.796519 0.000000 0.604614
vn 0.796519 0.000000 0.604614
vn 0.796520 0.000000 0.604612
vn 0.796520 0.000000 0.604612
vn 0.796520 0.000000 0.604612
vn 0.796520 0.000000 0.604612
vn 0.686723 -0.726919 0.000000
vn 0.686724 -0.726919 0.000000
vn 0.796519 0.000000 -0.604614
vn 0.796519 0.000000 -0.604614
vn 0.686723 0.726920 0.000000
vn 0.686723 0.726920 0.000000
vn 0.605570 0.000000 0.795792
vn 0.605570 0.000000 0.795792
vn 1.000000 0.000000 0.000000
vn 1.000000 0.000000 0.000000
vn 0.191810 0.000000 -0.981432
vn 0.605573 0.000000 -0.795790
vn 0.796520 0.000000 0.604612
vn 0.796520 0.000000 0.604613
vn 0.796519 0.000000 0.604614
vn 0.796519 0.000000 0.604614
vn 1.000000 0.000000 0.000000
vn 1.000000 0.000000 0.000000
vn 0.796518 0.000000 -0.604615
vn 0.796520 0.000000 -0.604613
vn 0.796518 0.000000 -0.604614
vn 0.796519 0.000000 -0.604614
vn 0.796519 0.000000 -0.604614
vn 0.796518 0.000000 -0.604614
vn 0.796518 0.000000 -0.604614
vn 0.796520 0.000000 -0.604613
vn 1.000000 0.000000 0.000000
vn 1.000000 0.000000 0.000000
vn 0.796519 0.000000 0.604613
vn 0.796519 0.000000 0.604614
vn 0.796520 0.000000 0.604613
vn 0.796520 0.000000 0.604612
vn 0.191810 0.000000 -0.981432
vn 0.605572 0.000000 -0.795790
vn 1.000000 0.000000 0.000000
vn 1.000000 0.000000 0.000000
vn 0.605571 0.000000 0.795791
vn 0.605571 0.000000 0.795791
vn 0.427099 0.904205 0.000000
vn 0.427099 0.904205 0.000000
vn 0.427099 0.904205 0.000000
vn 0.427099 0.904205 0.000000
vn 0.427099 -0.904205 0.000000
vn 0.427099 -0.904205 0.000000
vn 0.427099 -0.904205 0.000000
vn 0.427099 -0.904205 0.000000
vn 1.000000 0.000000 0.000000
vn 1.000000 0.000000 0.000000
vn 1.000000 0.000000 0.000000
vn 1.000000 0.000000 0.000000
vn 0.000000 0.000000 -1.000000
vn 0.000000 0.000000 -1.000000
vn 0.000000 0.000000 -1.000000
vn 0.000000 0.000000 -1.000000
vn 0.000000 1.000000 0.000000
vn 0.000000 1.000000 0.000000
vn 0.000000 1.000000 0.000000
vn 0.000000 1.000000 0.000000
vn 0.000000 0.000000 1.000000
vn 0.000000 0.000000 1.000000
vn 0.000000 0.000000 1.000000
vn 0.000000 0.000000 1.000000
vn 0.000000 -1.000000 0.000000
vn 0.000000 -1.000000 0.000000
vn 0.000000 -1.000000 0.000000
vn 0.000000 -1.000000 0.000000
vn 0.000000 0.000000 1.000000
vn 0.000000 0.000000 1.000000
vn 0.000000 0.000000 -1.000000
vn 0.000000 0.000000 -1.000000
vn 0.000000 0.000000 -1.000000
vn 0.000000 0.000000 -1.000000
vn 0.000000 0.000000 1.000000
vn 0.000000 0.000000 1.000000
vn 0.707107 0.000000 0.707106
vn 0.707107 0.000000 0.707106
vn 0.707108 0.000000 0.707106
vn 0.707108 0.000000 0.707106
vn 0.707107 0.000000 0.707106
vn 0.707107 0.000000 0.707106
vn 0.707108 0.000000 0.707106
vn 0.707108 0.000000 0.707106
vn 0.707108 -0.707106 0.000000
vn 0.707108 -0.707106 0.000000
vn 0.707108 -0.707105 0.000000
vn 0.707108 -0.707105 0.000000
vn 0.707107 -0.707106 0.000000
vn 0.707107 -0.707106 0.000000
vn 0.707107 -0.707106 0.000000
vn 0.707107 -0.707106 0.000000
vn 0.707108 0.707106 0.000000
vn 0.707108 0.707106 0.000000
vn 0.707107 0.707106 0.000000
vn 0.707107 0.707106 0.000000
vn 0.707108 0.707105 0.000000
vn 0.707108 0.707105 0.000000
vn 0.707108 0.000000 0.707105
vn 0.707108 0.000000 0.707105
vn 0.707108 0.000000 0.707105
vn 0.707108 0.000000 0.707105
vn 0.707107 0.000000 -0.707106
vn 0.707107 0.000000 -0.707106
vn 0.707107 0.000000 -0.707106
vn 0.707107 0.000000 -0.707106
vn 0.707107 0.000000 -0.707106
vn 0.707107 0.000000 -0.707107
vn 0.707107 0.707106 0.000000
vn 0.707107 0.707106 0.000000
vn 0.707107 0.000000 -0.707106
vn 0.707107 0.000000 -0.707106
vn 0.707107 0.000000 -0.707106
vn 0.707107 0.000000 -0.707106
vn 0.707107 0.000000 -0.707107
vn 0.707107 0.000000 -0.707106
vn 1.000000 0.000000 0.000000
vn 1.000000 0.000000 0.000000
vn 1.000000 0.000000 0.000000
vn 1.000000 0.000000 0.000000
vn 1.000000 0.000000 0.000000
vn 1.000000 0.000000 0.000000
vn 1.000000 0.000000 0.000000
vn 1.000000 0.000000 0.000000
vn 1.000000 0.000000 0.000000
vn 1.000000 0.000000 0.000000
vn 1.000000 0.000000 0.000000
vn 1.000000 0.000000 0.000000
vn 1.000000 0.000000 0.000000
vn 1.000000 0.000000 0.000000
vn 1.000000 0.000000 0.000000
vn 1.000000 0.000000 0.000000
vn 1.000000 0.000000 0.000000
vn 1.000000 0.000000 0.000000
vn 1.000000 0.000000 0.000000
vn 1.000000 0.000000 0.000000
vn 1.000000 0.000000 0.000000
vn 1.000000 0.000000 0.000000
vn 1.000000 0.000000 0.000000
vn 1.000000 0.000000 0.000000
vn 0.000000 0.000000 1.000000
vn 0.000000 0.000000 1.000000
vn 0.000000 -1.000000 0.000000
vn 0.000000 -1.000000 0.000000
vn 0.000000 -1.000000 0.000000
vn 0.000000 -1.000000 0.000000
vn 0.000000 1.000000 0.000000
vn 0.000000 1.000000 0.000000
vn 0.000000 0.000000 1.000000
vn 0.000000 0.000000 1.000000
vn 0.000000 -1.000000 0.000000
vn 0.000000 -1.000000 0.000000
vn 0.000000 0.000000 1.000000
vn 0.000000 0.000000 1.000000
vn 0.000000 0.000000 -1.000000
vn 0.000000 0.000000 -1.000000
vn 0.000000 0.000000 -1.000000
vn 0.000000 1.000000 0.000000
vn 0.000000 1.000000 0.000000
vn 0.000000 0.000000 -1.000000
vn 0.000000 0.000000 -1.000000
vn 0.000000 0.000000 -1.000000
vn 0.000000 0.000000 -1.000000
vn 0.000000 0.000000 -1.000000
vn 0.000000 -1.000000 0.000000
vn 0.000000 -1.000000 0.000000
s 1
g pCube1
f 31/2/1 27/3/2 35/4/3 36/9/4
s 2
f 79/7/5 80/8/6 56/15/7 57/23/8
s 3
f 34/27/9 35/31/10 27/51/11 28/76/12
f 32/83/13 33/84/14 29/86/15 30/87/16
s 5
f 25/1/17 8/5/18 7/6/19 26/13/20
f 82/14/21 83/18/22 53/19/23 54/22/24
f 6/24/25 16/49/26 15/50/27 5/52/28
s 1
f 13/10/29 10/11/30 11/12/31 12/16/32
f 4/17/33 13/10/29 12/16/32 3/20/34
s 7
f 19/53/35 4/54/36 3/55/37 20/58/38
f 84/59/39 69/60/40 67/61/41 68/62/42
f 1/63/43 2/64/44 22/65/45 21/66/46
s 1
f 11/12/31 10/11/30 27/3/2 31/2/1
s 3
f 25/89/47 33/84/14 32/83/13 8/90/48
f 81/92/49 82/94/50 54/96/51 55/97/52
f 35/31/10 34/27/9 16/98/53 6/99/54
s 1
f 6/21/55 5/25/56 36/9/4 35/4/3
s 10
f 73/101/57 74/102/58 62/103/59 63/106/60
s off
f 85/79/61 86/80/62 87/81/63 88/82/64
s 11
f 47/26/65 48/28/66 50/29/67 51/30/68
s 12
f 71/67/69 72/68/70 64/71/71 65/72/72
s 13
f 45/32/73 46/33/74 52/34/75 49/35/76
s 14
f 80/73/77 81/74/78 55/75/79 56/77/80
s off
f 34/36/81 28/37/82 43/38/83 42/39/84
s 15
f 78/78/85 79/85/86 57/95/87 58/100/88
s off
f 29/40/89 33/41/90 41/42/91 44/43/92
s 13
f 46/33/74 45/32/73 37/44/93 40/45/94
s 12
f 72/68/70 73/104/95 63/107/96 64/71/71
s 11
f 48/28/66 47/26/65 39/46/97 38/47/98
s 16
f 74/108/99 75/113/100 61/118/101 62/120/102
f 76/123/103 77/124/104 59/132/105 60/133/106
s 11
f 17/48/107 18/56/108 51/30/68 50/29/67
s 12
f 70/134/109 71/67/69 65/72/72 66/135/110
s 13
f 23/57/111 24/69/112 49/35/76 52/34/75
s 5
f 16/49/26 54/22/24 53/19/23 15/50/27
s 3
f 34/27/9 55/97/52 54/96/51 16/98/53
s 14
f 56/77/80 55/75/79 34/136/113 42/137/114
s 2
f 57/23/8 56/15/7 42/139/115 43/140/116
s 15
f 28/138/117 58/100/88 57/95/87 43/191/118
s 16
f 60/133/106 59/132/105 17/192/119 50/193/120
f 48/194/121 61/118/101 60/133/106 50/193/120
f 62/120/102 61/118/101 48/194/121 38/195/122
s 10
f 63/106/60 62/103/59 38/141/123 39/142/124
s 12
f 47/196/125 64/71/71 63/107/96 39/197/126
f 65/72/72 64/71/71 47/196/125 51/198/127
f 18/199/128 66/135/110 65/72/72 51/198/127
s 7
f 68/62/42 67/61/41 19/53/35 20/58/38
s 12
f 71/67/69 70/134/109 23/200/129 52/201/130
f 46/202/131 72/68/70 71/67/69 52/201/130
f 73/104/95 72/68/70 46/202/131 40/203/132
s 10
f 37/143/133 74/102/58 73/101/57 40/144/134
s 16
f 45/204/135 75/113/100 74/108/99 37/205/136
f 76/123/103 75/113/100 45/204/135 49/206/137
f 24/207/138 77/124/104 76/123/103 49/206/137
s 15
f 79/85/86 78/78/85 29/208/139 44/209/140
s 2
f 41/145/141 80/8/6 79/7/5 44/146/142
s 14
f 33/210/143 81/74/78 80/73/77 41/211/144
s 3
f 82/94/50 81/92/49 33/84/14 25/89/47
s 5
f 83/18/22 82/14/21 25/1/17 26/13/20
s 7
f 22/65/45 69/60/40 84/59/39 21/66/46
s off
f 75/70/145 76/88/146 86/91/147 85/93/148
f 60/105/149 61/109/150 88/110/151 87/111/152
f 61/147/153 75/148/154 85/149/155 88/150/156
s 18
f 70/134/157 66/135/158 90/212/159 89/213/160
s off
f 24/69/161 23/57/162 92/112/163 91/114/164
s 19
f 59/132/165 77/124/166 95/214/167 96/215/168
s off
f 18/56/169 17/48/170 94/115/171 93/116/172
s 19
f 17/192/173 59/132/165 96/215/168 94/216/174
s 18
f 66/135/158 18/199/175 93/217/176 90/212/159
f 23/200/177 70/134/157 89/213/160 92/218/178
s 19
f 77/124/166 24/207/179 91/219/180 95/214/167
s 20
f 97/151/181 98/152/182 113/153/183 114/154/184
f 98/152/182 97/151/181 100/155/185 99/156/186
f 99/156/186 100/155/185 109/157/187 110/158/188
s 21
f 101/117/189 102/119/190 112/121/191 111/122/192
f 102/119/190 101/117/189 104/125/193 103/126/194
f 103/126/194 104/125/193 127/127/195 128/128/196
s 22
f 105/129/197 106/130/198 119/131/199 120/159/200
f 106/130/198 105/129/197 108/163/201 107/167/202
s 20
f 107/172/203 108/171/204 110/158/188 109/157/187
f 111/162/205 112/161/206 114/154/184 113/153/183
s 23
f 115/173/207 116/174/208 123/175/209 124/176/210
f 116/174/208 115/173/207 118/177/211 117/178/212
s 22
f 117/170/213 118/234/214 120/159/200 119/131/199
s 23
f 121/179/215 122/180/216 125/181/217 126/182/218
f 122/180/216 121/179/215 124/176/210 123/175/209
f 126/182/218 125/181/217 128/166/219 127/165/220
s 24
f 97/151/221 89/183/222 90/184/223 100/155/224
f 91/185/225 92/186/226 102/160/227 103/164/228
f 109/157/229 93/187/230 106/168/231 107/172/232
f 112/161/233 102/160/227 92/186/226 114/154/234
f 119/169/235 94/188/236 116/174/237 117/178/238
f 95/189/239 122/180/240 123/175/241 96/190/242
f 128/166/243 125/181/244 91/185/225 103/164/228
f 93/187/230 94/188/236 119/169/235 106/168/231
f 96/190/242 123/175/241 116/174/237 94/188/236
f 100/155/224 90/184/223 93/187/230 109/157/229
f 114/154/234 92/186/226 89/183/222 97/151/221
f 91/185/225 125/181/244 122/180/240 95/189/239
s 7
f 67/61/41 69/60/40 98/220/245 99/221/246
s 27
f 14/235/247 9/236/248 104/125/249 101/117/250
s 1
f 13/10/29 4/17/33 108/163/251 105/129/252
s 7
f 4/54/36 19/53/35 110/222/253 108/223/254
s 27
f 2/237/255 14/235/247 101/117/250 111/122/256
s 7
f 22/65/45 2/64/44 111/224/257 113/225/258
s 15
f 28/138/117 27/226/259 118/227/260 115/228/261
s 1
f 27/3/2 10/11/30 120/159/262 118/234/263
s 15
f 78/78/85 58/100/88 124/229/264 121/230/265
f 30/231/266 29/208/139 126/232/267 127/233/268
s 27
f 9/236/248 30/238/269 127/127/270 104/125/249
s 1
f 10/11/30 13/10/29 105/129/252 120/159/262
s 15
f 58/100/88 28/138/117 115/228/261 124/229/264
s 7
f 19/53/35 67/61/41 99/221/246 110/222/253
f 69/60/40 22/65/45 113/225/258 98/220/245
s 15
f 29/208/139 78/78/85 121/230/265 126/232/267
