# This file uses centimeters as units for non-parametric coordinates.

g default
v -3.666777 -1.351244 2.515320
v 3.666777 -1.351244 2.515320
v -3.666777 -1.351244 -2.515320
v 3.666777 -1.351244 -2.515320
v 2.979256 -1.351244 2.515320
v 2.979256 -1.351244 -2.515320
v -2.979256 -1.351244 -2.515320
v -2.979256 -1.351244 2.515320
v -3.666777 0.844527 -2.515320
v -3.666777 0.844527 2.515320
v -2.979256 0.844527 2.515320
v 2.979256 0.844527 2.515320
v 3.666777 0.844527 2.515320
v 3.666777 0.844527 -2.515320
v -2.979256 -0.844527 2.515320
v -3.666777 -0.844527 2.515320
v -3.666777 -0.844527 -2.515320
v 3.666777 -0.844527 -2.515320
v 3.666777 -0.844527 2.515320
v 2.979256 -0.844527 2.515320
v 2.979256 0.844527 2.601052
v 2.979256 -0.844527 2.601052
v -2.979256 0.844527 2.601052
v -2.979256 -0.844527 2.601052
v 3.053371 0.865536 2.558186
v -3.053371 0.865536 2.558186
v -3.053371 -0.865536 2.558186
v 3.053371 -0.865536 2.558186
v 3.666777 -6.078161 -2.515320
v 3.666777 -6.078161 2.515320
v 2.979256 -6.078161 2.515320
v -3.666777 -6.078161 -2.515320
v -3.666777 -6.078161 2.515320
v -2.979256 -6.078161 2.515320
v -3.666777 -5.487296 -2.515320
v -3.666777 -5.487296 2.515320
v -2.979256 -5.487296 2.515320
v -2.979256 -5.487296 -2.515320
v 3.666777 -5.487296 -2.515320
v 2.979256 -5.487296 -2.515320
v 2.979256 -5.487296 2.515320
v 3.666777 -5.487296 2.515320
v -0.375423 -0.149778 2.671126
v 0.375423 -0.149778 2.671126
v -0.375423 0.340802 2.671126
v 0.375423 0.340802 2.671126
v -0.375423 0.340802 2.595869
v 0.375423 0.340802 2.595869
v -0.375423 -0.149778 2.595869
v 0.375423 -0.149778 2.595869
v -0.375423 0.281567 2.595869
v 0.375423 0.281567 2.595869
v 0.375423 0.281567 2.671126
v -0.375423 0.281567 2.671126
v 0.375423 0.281567 2.979834
v -0.375423 0.281567 2.979834
v 0.375423 0.340802 2.979834
v -0.375423 0.340802 2.979834
v 0.375423 0.281567 2.902657
v -0.375423 0.281567 2.902657
v -0.375423 0.340802 2.902657
v 0.375423 0.340802 2.902657
v 0.375423 0.077733 2.902657
v -0.375423 0.077733 2.902657
v 0.375423 0.077733 2.979834
v -0.375423 0.077733 2.979834
v -3.666777 -6.078161 2.281108
v -3.666777 -5.487296 2.281108
v -3.666777 -1.351244 2.281108
v -3.666777 -0.844527 2.281110
v -3.666777 0.844527 2.281108
v -2.979256 1.351244 2.281110
v 2.979256 1.351244 2.281108
v 3.666777 0.844527 2.281110
v 3.666777 -0.844527 2.281108
v 3.666777 -1.351244 2.281108
v 3.666777 -5.487296 2.281110
v 3.666777 -6.078161 2.281108
v 3.666777 -6.078161 -2.350072
v 3.666777 -5.487296 -2.350073
v 3.666777 -1.351243 -2.350072
v 3.666777 -0.844527 -2.350072
v 3.666777 0.844527 -2.350073
v 2.979256 1.351243 -2.350072
v -2.979256 1.351244 -2.350073
v -3.666777 0.844527 -2.350072
v -3.666777 -0.844527 -2.350073
v -3.666777 -1.351243 -2.350072
v -3.666777 -5.487296 -2.350072
v -3.666777 -6.078161 -2.350072
v 3.472373 1.351244 -2.350073
v 3.472373 1.351244 2.281109
v 3.472373 0.844527 2.515320
v 3.472373 -0.844527 2.515320
v 3.472373 -1.351244 2.515320
v 3.472373 -5.487296 2.515320
v 3.472373 -6.078161 2.515320
v -3.495561 -6.078161 2.515320
v -3.495561 -5.487296 2.515320
v -3.495561 -1.351244 2.515320
v -3.495561 -0.844527 2.515320
v -3.495561 0.844527 2.515320
v -3.495561 1.351244 2.281110
v -3.495561 1.351244 -2.350073
v -2.946413 1.389395 2.255483
v 2.946157 1.389395 2.255481
v 2.946157 1.389395 -2.324445
v -2.946413 1.389395 -2.324446
v 3.433815 1.389395 2.255482
v 3.433816 1.389395 -2.324446
v -3.457004 1.389395 -2.324446
v -3.457004 1.389395 2.255483
v -3.617208 1.351244 2.465751
v -3.666777 1.301675 2.515320
v -3.666777 1.301675 2.281110
v -3.617208 1.351244 2.281110
v 3.666777 1.301675 2.515320
v 3.617208 1.351244 2.465751
v 3.666777 1.301675 2.281110
v 3.617208 1.351244 2.281110
v 2.979256 1.301675 2.515320
v 2.979256 1.351244 2.465751
v 3.472373 1.351244 2.465751
v 3.472373 1.301675 2.515320
v -2.979256 1.301675 2.515320
v -2.979256 1.351244 2.465751
v 2.979256 1.301675 -2.515320
v 2.979256 1.351244 -2.465751
v -2.979256 1.351244 -2.465751
v -2.979256 1.301675 -2.515320
v 3.472373 1.301675 -2.515320
v 3.472373 1.351244 -2.465751
v -3.495561 1.301675 2.515320
v -3.495561 1.351244 2.465751
v -3.617208 1.351244 -2.465751
v -3.666777 1.301675 -2.515320
v -3.495561 1.351244 -2.465751
v -3.495561 1.301675 -2.515320
v -3.666777 1.301675 -2.350073
v -3.617208 1.351244 -2.350073
v 3.666777 1.301675 -2.350073
v 3.617208 1.351244 -2.350073
v 3.617208 1.351244 -2.465751
v 3.666777 1.301675 -2.515320
vt 0.327806 0.644446
vt 0.004950 0.717846
vt 0.004950 0.644446
vt 0.420038 0.639226
vt 0.420038 0.565826
vt 0.742893 0.565826
vt 0.406086 0.288672
vt 0.004950 0.622426
vt 0.327806 0.622426
vt 0.368479 0.288672
vt 0.420038 0.543806
vt 0.742893 0.543806
vt 0.368479 0.288672
vt 0.368479 0.379869
vt 0.042557 0.379869
vt 0.327806 0.442688
vt 0.004950 0.442688
vt 0.042557 0.288672
vt 0.004950 0.379869
vt 0.004950 0.288672
vt 0.042557 0.288672
vt 0.990768 0.850178
vt 0.667913 0.850178
vt 0.667913 0.670441
vt 0.990768 0.670441
vt 0.420038 0.364068
vt 0.680660 0.005700
vt 0.680660 0.326466
vt 0.742893 0.364068
vt 0.420038 0.326466
vt 0.420038 0.005700
vt 0.004950 0.261313
vt 0.042557 0.261313
vt 0.368479 0.261313
vt 0.406086 0.261313
vt 0.372533 0.287537
vt 0.372533 0.381003
vt 0.038503 0.381003
vt 0.038503 0.287537
vt 0.368479 0.037995
vt 0.406086 0.037995
vt 0.004950 0.037995
vt 0.042557 0.037995
vt 0.004950 0.006092
vt 0.042557 0.006092
vt 0.368479 0.006092
vt 0.406086 0.006092
vt 0.327806 0.928765
vt 0.004951 0.928765
vt 0.004951 0.749027
vt 0.327806 0.749027
vt 0.420038 0.338391
vt 0.742893 0.338391
vt 0.004950 0.417011
vt 0.327806 0.417011
vt 0.876236 0.342322
vt 0.992974 0.342322
vt 0.992974 0.444964
vt 0.876236 0.444964
vt 0.759369 0.427217
vt 0.862644 0.427217
vt 0.862644 0.447459
vt 0.759369 0.447459
vt 0.938234 0.904006
vt 0.909885 0.904006
vt 0.909885 0.898450
vt 0.938234 0.898450
vt 0.824340 0.572451
vt 0.840473 0.572451
vt 0.840473 0.646884
vt 0.824340 0.646884
vt 0.862980 0.574726
vt 0.879340 0.574726
vt 0.879340 0.648118
vt 0.862980 0.648118
vt 0.840473 0.657105
vt 0.824340 0.657105
vt 0.788610 0.536965
vt 0.905344 0.536965
vt 0.905344 0.551060
vt 0.788610 0.551060
vt 0.879340 0.658197
vt 0.862980 0.658197
vt 0.787916 0.916199
vt 0.787916 0.899101
vt 0.816271 0.899101
vt 0.816271 0.916199
vt 0.774710 0.657105
vt 0.774710 0.646884
vt 0.759369 0.364943
vt 0.862644 0.364943
vt 0.929672 0.648118
vt 0.929672 0.658197
vt 0.898889 0.904193
vt 0.870541 0.904193
vt 0.870541 0.898495
vt 0.898889 0.898495
vt 0.946450 0.648118
vt 0.946450 0.658197
vt 0.759369 0.344184
vt 0.862644 0.344184
vt 0.758167 0.657105
vt 0.758167 0.646884
vt 0.859312 0.913663
vt 0.827262 0.913663
vt 0.827262 0.900346
vt 0.859312 0.900346
vt 0.758167 0.611710
vt 0.774710 0.611710
vt 0.788610 0.488462
vt 0.905344 0.488462
vt 0.929672 0.613436
vt 0.946450 0.613436
vt 0.727862 0.338391
vt 0.727862 0.364068
vt 0.727862 0.543806
vt 0.727862 0.565826
vt 0.019982 0.644446
vt 0.019982 0.622426
vt 0.019982 0.442688
vt 0.019982 0.417011
vt 0.317201 0.417011
vt 0.317201 0.442688
vt 0.317201 0.622426
vt 0.317201 0.644446
vt 0.430643 0.565826
vt 0.430643 0.543806
vt 0.430643 0.364068
vt 0.430643 0.338391
vt 0.395452 0.288672
vt 0.395452 0.261313
vt 0.395452 0.037995
vt 0.395452 0.006092
vt 0.014316 0.006092
vt 0.014316 0.037995
vt 0.014316 0.261313
vt 0.014316 0.288672
vt 0.877748 0.007555
vt 0.915521 0.007555
vt 0.915312 0.027775
vt 0.877957 0.027775
vt 0.758024 0.005225
vt 0.800932 0.005225
vt 0.800696 0.028194
vt 0.758262 0.028194
vt 0.918647 0.007555
vt 0.918403 0.027775
vt 0.742893 0.659092
vt 0.929557 0.004923
vt 0.968066 0.004923
vt 0.967853 0.023116
vt 0.929771 0.023115
vt 0.406086 0.404551
vt 0.754473 0.005225
vt 0.754751 0.028194
vt 0.815458 0.005225
vt 0.864075 0.005225
vt 0.863806 0.028194
vt 0.804650 0.005225
vt 0.804373 0.028194
vt 0.874475 0.007555
vt 0.874720 0.027775
vt 0.792191 0.889108
vt 0.791851 0.860645
vt 0.793027 0.860645
vt 0.793027 0.889108
vt 0.842222 0.860645
vt 0.841882 0.889108
vt 0.815727 0.028194
vt 0.718756 0.860645
vt 0.840887 0.889108
vt 0.840887 0.860645
vt 0.837500 0.860645
vt 0.718236 0.890486
vt 0.327806 0.737712
vt 0.716298 0.890486
vt 0.716298 0.860645
vt 0.667681 0.890487
vt 0.837500 0.889108
vt 0.796573 0.889108
vt 0.796573 0.860645
vt 0.317201 0.717846
vt 0.019982 0.737712
vt 0.395452 0.404551
vt 0.406086 0.379869
vt 0.042557 0.404551
vt 0.368479 0.379869
vt 0.004951 0.404551
vt 0.014316 0.379869
vt 0.727862 0.639226
vt 0.430643 0.659092
vt 0.742893 0.639226
vt 0.727862 0.659092
vt 0.713783 0.036047
vt 0.970712 0.036047
vt 0.733849 0.860645
vt 0.733849 0.890486
vt 0.667681 0.860645
vt 0.701768 0.028467
vt 0.730298 0.890486
vt 0.019982 0.717846
vt 0.004950 0.737712
vt 0.317201 0.737712
vt 0.327806 0.717846
vt 0.970712 0.328994
vt 0.713783 0.328994
vt 0.730298 0.860645
vt 0.776758 0.860645
vt 0.701357 0.004892
vt 0.776758 0.890486
vt 0.430643 0.639226
vt 0.420038 0.659092
vt 0.780476 0.860645
vt 0.780476 0.890487
vt 0.991974 0.036047
vt 0.729255 0.890486
vt 0.728899 0.860645
vt 0.395452 0.379869
vt 0.368479 0.404551
vt 0.014316 0.404551
vt 0.042557 0.379869
vt 0.781709 0.860645
vt 0.991974 0.328994
vt 0.781352 0.890487
vt 0.742665 0.028467
vt 0.743076 0.004892
vt 0.691521 0.328994
vt 0.691521 0.036047
vt 0.650469 0.975889
vt 0.650469 0.679663
vt 0.656784 0.679663
vt 0.656784 0.975889
vt 0.346653 0.679663
vt 0.346653 0.975889
vt 0.341349 0.975889
vt 0.341349 0.679663
vt 0.346653 0.667853
vt 0.341349 0.667853
vt 0.628968 0.667853
vt 0.628968 0.679663
vt 0.369165 0.679663
vt 0.369165 0.667853
vt 0.656784 0.667853
vt 0.650469 0.667853
vt 0.650469 0.983288
vt 0.656784 0.983288
vt 0.369165 0.975889
vt 0.628968 0.975889
vt 0.628968 0.983288
vt 0.369165 0.983288
vt 0.341349 0.983288
vt 0.346653 0.983288
vt 0.703299 0.004892
vt 0.703299 0.028467
vt 0.741706 0.004892
vt 0.741706 0.028467
vt 0.666466 0.890487
vt 0.665946 0.860645
vn 1.000000 0.000000 0.000000
vn 1.000000 0.000000 0.000000
vn 1.000000 0.000000 -0.000000
vn 1.000000 0.000000 -0.000000
vn -1.000000 -0.000000 -0.000000
vn -1.000000 0.000000 -0.000000
vn -1.000000 0.000000 0.000000
vn -1.000000 -0.000000 0.000000
vn 0.000000 1.000000 0.000000
vn -0.000000 1.000000 0.000000
vn -0.000000 1.000000 0.000000
vn 0.000000 1.000000 0.000000
vn -0.000001 0.000000 1.000000
vn -0.000000 0.000000 1.000000
vn 0.000000 0.000000 1.000000
vn 0.000000 0.000000 1.000000
vn 0.000000 0.000000 1.000000
vn 0.000000 0.000000 1.000000
vn 0.000000 0.000000 1.000000
vn 0.000000 0.000000 1.000000
vn 0.000000 0.000000 1.000000
vn 0.000000 0.000000 1.000000
vn -0.000000 0.000000 1.000000
vn 0.000000 0.000000 1.000000
vn 0.000000 0.000000 1.000000
vn 0.000000 0.000000 1.000000
vn -0.000000 0.000000 1.000000
vn 0.000000 0.000000 1.000000
vn 0.000000 0.000000 1.000000
vn -0.000000 0.000000 1.000000
vn 0.000000 0.000000 1.000000
vn -0.000000 0.000000 1.000000
vn 1.000000 -0.000000 -0.000000
vn 1.000000 -0.000000 0.000000
vn -1.000000 0.000000 0.000000
vn -1.000000 0.000000 -0.000000
vn 1.000000 0.000000 0.000000
vn 1.000000 0.000000 0.000000
vn 0.500664 0.000000 0.865642
vn 0.500664 0.000000 0.865642
vn 0.000000 1.000000 0.000000
vn 0.000000 1.000000 0.000000
vn 0.000000 0.897951 0.440095
vn 0.000000 0.897951 0.440095
vn -1.000000 0.000000 0.000000
vn -1.000000 0.000000 0.000000
vn -0.500664 0.000000 0.865642
vn -0.500664 0.000000 0.865642
vn 0.000000 -1.000000 0.000000
vn 0.000000 -1.000000 0.000000
vn 0.000000 -0.897951 0.440095
vn 0.000000 -0.897951 0.440095
vn 0.000000 0.897951 -0.440095
vn 0.000000 0.897951 -0.440095
vn -0.500664 0.000000 -0.865642
vn -0.500664 0.000000 -0.865642
vn 0.000000 -0.897951 -0.440095
vn 0.000000 -0.897951 -0.440095
vn 0.500664 0.000000 -0.865642
vn 0.500664 0.000000 -0.865642
vn 1.000000 -0.000000 0.000000
vn 1.000000 -0.000000 -0.000000
vn 0.000000 0.000000 1.000000
vn 0.000000 0.000000 1.000000
vn -1.000000 0.000000 0.000000
vn -1.000000 0.000000 0.000000
vn -1.000000 0.000000 0.000000
vn -1.000000 0.000000 0.000000
vn -1.000000 0.000000 0.000000
vn -1.000000 0.000000 0.000000
vn 1.000000 0.000000 0.000000
vn 1.000000 0.000000 0.000000
vn 1.000000 0.000000 0.000000
vn 1.000000 0.000000 0.000000
vn 0.000000 0.000000 1.000000
vn 0.000000 0.000000 1.000000
vn -1.000000 0.000000 0.000000
vn -1.000000 0.000000 0.000000
vn 0.000000 0.000000 1.000000
vn 0.000000 0.000000 1.000000
vn 0.000000 0.000000 1.000000
vn 0.000000 0.000000 1.000000
vn 1.000000 0.000001 0.000000
vn 1.000000 0.000001 -0.000000
vn 0.000000 1.000000 0.000000
vn 0.000000 1.000000 0.000000
vn 0.000000 1.000000 0.000000
vn 0.000000 1.000000 0.000000
vn 0.000000 0.000000 1.000000
vn 0.000000 0.000000 1.000000
vn 0.000000 0.000000 1.000000
vn 0.000000 0.000000 1.000000
vn 0.000000 0.000000 1.000000
vn 0.000000 0.000000 1.000000
vn 0.000000 0.000000 1.000000
vn 0.000000 0.000000 1.000000
vn 0.000000 1.000000 0.000000
vn 0.000000 1.000000 0.000000
vn 0.000000 1.000000 0.000000
vn 0.000000 1.000000 0.000000
vn 0.000000 -1.000000 0.000000
vn 0.000000 -1.000000 0.000000
vn 0.000000 -1.000000 0.000000
vn 0.000000 -1.000000 0.000000
vn 1.000000 0.000000 0.000000
vn 1.000000 0.000000 0.000000
vn 1.000000 0.000000 0.000000
vn 1.000000 0.000000 0.000000
vn -1.000000 0.000000 0.000000
vn -1.000000 0.000000 0.000000
vn -1.000000 0.000000 0.000000
vn -1.000000 0.000000 0.000000
vn 1.000000 0.000000 0.000000
vn 1.000000 0.000000 0.000000
vn 0.000000 0.000000 1.000000
vn 0.000000 0.000000 1.000000
vn 0.000000 0.000000 1.000000
vn 0.000000 0.000000 1.000000
vn -1.000000 0.000000 0.000000
vn -1.000000 0.000000 0.000000
vn 0.000000 -1.000000 0.000000
vn 0.000000 -1.000000 0.000000
vn 0.000000 -1.000000 0.000000
vn 0.000000 -1.000000 0.000000
vn 1.000000 0.000000 0.000000
vn 1.000000 0.000000 0.000000
vn 0.000000 1.000000 0.000000
vn 0.000000 1.000000 0.000000
vn -1.000000 0.000000 0.000000
vn -1.000000 0.000000 0.000000
vn 0.000000 -1.000000 0.000000
vn 0.000000 -1.000000 0.000000
vn 0.000000 -1.000000 0.000000
vn 0.000000 -1.000000 0.000000
vn -1.000000 0.000000 0.000000
vn -1.000000 0.000000 0.000000
vn 0.000000 1.000000 0.000000
vn 0.000000 1.000000 0.000000
vn 1.000000 0.000000 0.000000
vn 1.000000 0.000000 0.000000
vn 0.000000 0.000000 -1.000000
vn 0.000000 0.000000 -1.000000
vn 0.000000 0.000000 -1.000000
vn 0.000000 0.000000 -1.000000
vn 1.000000 0.000000 0.000000
vn 1.000000 0.000000 0.000000
vn 0.000000 0.000000 1.000000
vn 0.000000 0.000000 1.000000
vn -1.000000 0.000000 0.000000
vn -1.000000 0.000000 0.000000
vn -1.000000 0.000000 0.000000
vn -1.000000 0.000000 0.000000
vn -1.000000 0.000000 -0.000000
vn -1.000000 -0.000000 -0.000001
vn -1.000000 0.000000 -0.000001
vn 1.000000 0.000000 -0.000001
vn 1.000000 0.000000 -0.000000
vn 1.000000 -0.000000 -0.000000
vn 1.000000 0.000000 -0.000001
vn 1.000000 0.000000 -0.000001
vn 1.000000 0.000000 0.000001
vn 1.000000 0.000000 0.000001
vn 1.000000 0.000000 0.000001
vn 1.000000 0.000000 0.000001
vn 1.000000 0.000000 0.000001
vn -1.000000 0.000000 0.000001
vn -1.000000 0.000000 0.000001
vn -1.000000 0.000000 0.000000
vn -1.000000 0.000000 0.000000
vn -1.000000 0.000000 0.000000
vn -0.000000 1.000000 0.000000
vn -0.000000 1.000000 0.000000
vn 0.000000 0.000000 1.000000
vn 0.000000 0.000000 1.000000
vn 0.000000 0.000000 1.000000
vn -0.000000 0.000000 1.000000
vn 0.000000 1.000000 0.000000
vn 0.000000 1.000000 0.000000
vn 0.000000 0.557593 0.830114
vn 0.000000 0.557593 0.830114
vn 0.000000 0.557593 0.830114
vn 0.000000 0.557593 0.830114
vn 0.000000 0.557593 -0.830115
vn 0.000000 0.557593 -0.830115
vn 0.000000 0.557593 -0.830115
vn 0.000000 0.557593 -0.830115
vn -0.000002 0.557593 0.830115
vn -0.000002 0.557593 0.830115
vn -0.000002 0.557593 0.830115
vn -0.000002 0.557593 0.830115
vn 0.703360 0.710833 0.000000
vn 0.703360 0.710833 0.000000
vn 0.703360 0.710833 0.000000
vn 0.703360 0.710833 0.000000
vn -0.000001 0.557592 -0.830115
vn -0.000001 0.557592 -0.830115
vn -0.000001 0.557592 -0.830115
vn -0.000001 0.557592 -0.830115
vn 0.000000 0.557594 -0.830114
vn 0.000000 0.557594 -0.830114
vn 0.000000 0.557594 -0.830114
vn 0.000000 0.557594 -0.830114
vn -0.703359 0.710835 0.000000
vn -0.703359 0.710835 0.000000
vn -0.703359 0.710835 0.000000
vn -0.703359 0.710835 0.000000
vn 0.000000 0.557594 0.830114
vn 0.000000 0.557594 0.830114
vn 0.000000 0.557594 0.830114
vn 0.000000 0.557594 0.830114
vn -0.000000 0.707107 0.707107
vn 0.000001 0.053312 0.998578
vn 0.000000 0.094210 0.995552
vn 0.000000 0.707107 0.707106
vn -0.998453 0.055597 -0.000001
vn -0.707109 0.707104 -0.000001
vn -0.707107 0.707107 -0.000000
vn -0.995292 0.096917 -0.000000
vn -0.707107 0.707107 0.000000
vn -0.995293 0.096910 0.000000
vn 0.000000 0.054327 0.998523
vn 0.000000 0.707107 0.707107
vn 0.000000 0.707107 0.707106
vn 0.000000 0.094210 0.995552
vn 0.707109 0.707104 -0.000001
vn 0.998453 0.055596 -0.000001
vn 0.995293 0.096916 -0.000000
vn 0.707107 0.707107 -0.000000
vn 0.995293 0.096909 0.000000
vn 0.707107 0.707107 0.000000
vn 0.000000 0.097359 0.995249
vn 0.000000 0.707106 0.707107
vn 0.000000 0.707106 0.707107
vn -0.000000 0.097359 0.995249
vn 0.000000 0.707106 -0.707107
vn 0.000000 0.707106 -0.707107
vn 0.000000 0.707107 -0.707106
vn 0.000000 0.707107 -0.707106
vn 0.000000 0.707106 -0.707107
vn 0.000000 0.707106 -0.707107
vn 0.000000 0.707107 -0.707106
vn 0.000000 0.707107 -0.707106
vn 0.000000 0.707107 -0.707107
vn 0.000000 0.707107 -0.707107
vn -0.707108 0.707106 0.000001
vn -0.998594 0.053004 0.000001
vn -0.000000 0.707107 -0.707106
vn -0.000000 0.707107 -0.707106
vn 0.998594 0.053004 0.000001
vn 0.707107 0.707106 0.000001
vn -0.000000 1.000000 0.000000
vn -0.000000 1.000000 0.000000
vn -0.000000 1.000000 0.000000
vn -0.000000 1.000000 0.000000
vn -0.000000 1.000000 0.000000
vn -0.000000 1.000000 -0.000000
vn -0.000000 1.000000 0.000000
vn -0.000001 1.000000 0.000000
vn -0.000000 1.000000 0.000001
vn -0.000001 1.000000 0.000000
vn 0.000000 1.000000 0.000000
vn 0.000000 1.000000 0.000000
vn 0.000000 1.000000 0.000000
vn 0.000000 1.000000 0.000000
vn 0.000000 1.000000 0.000000
vn 0.000000 1.000000 0.000001
vn -0.000000 1.000000 -0.000000
vn 0.000000 1.000000 -0.000001
vn 0.000000 1.000000 -0.000000
vn -0.000000 1.000000 0.000000
vn -0.000000 1.000000 0.000000
vn 0.000000 1.000000 -0.000000
vn 0.000000 1.000000 0.000000
vn 0.000000 1.000000 -0.000001
s 1
g pCube4
f 82/125/1 83/182/2 74/201/3 75/118/4
s 2
f 70/117/5 71/190/6 86/211/7 87/126/8
s 3
f 105/194/9 106/195/10 107/205/11 108/206/12
s 4
f 19/7/13 13/185/14 93/218/15 94/130/16
s off
f 22/13/17 21/14/18 23/15/19 24/18/20
s 4
f 10/19/21 16/20/22 101/137/23 102/189/24
f 16/20/22 1/32/25 100/136/26 101/137/23
f 8/33/27 5/34/28 20/10/29 15/21/30
f 94/130/16 95/131/31 2/35/32 19/7/13
s 1
f 75/118/4 76/119/33 81/124/34 82/125/1
s 2
f 87/126/8 88/127/35 69/116/36 70/117/5
s 7
f 28/36/37 25/37/38 21/14/39 22/13/40
s 8
f 25/37/41 26/38/42 23/15/43 21/14/44
s 9
f 26/38/45 27/39/46 24/18/47 23/15/48
s 10
f 27/39/49 28/36/50 22/13/51 24/18/52
s 8
f 12/187/53 11/221/54 26/38/42 25/37/41
s 9
f 11/221/55 15/21/56 27/39/46 26/38/45
s 10
f 15/21/57 20/10/58 28/36/50 27/39/49
s 7
f 20/10/59 12/187/60 25/37/38 28/36/37
s 1
f 80/123/61 81/124/34 76/119/33 77/120/62
s 4
f 2/35/32 95/131/31 96/132/63 42/41/64
s off
f 5/22/65 6/23/66 40/24/67 41/25/68
s 2
f 68/115/69 69/116/36 88/127/35 89/128/70
s off
f 7/48/71 8/49/72 37/50/73 38/51/74
s 4
f 99/135/75 100/136/26 1/32/25 36/42/76
s 2
f 67/114/77 68/115/69 89/128/70 90/129/78
s 4
f 98/134/79 99/135/75 36/42/76 33/44/80
f 42/41/64 96/132/63 97/133/81 30/47/82
s 1
f 79/122/83 80/123/61 77/120/62 78/121/84
s off
f 41/27/85 40/28/86 38/30/87 37/31/88
s 4
f 31/46/89 41/40/90 37/43/91 34/45/92
s off
f 43/56/93 44/57/94 53/58/95 54/59/96
s 11
f 45/60/97 46/61/98 48/62/99 47/63/100
s off
f 49/64/101 50/65/102 44/66/103 43/67/104
s 12
f 44/68/105 50/69/106 52/70/107 53/71/108
s 13
f 49/72/109 43/73/110 54/74/111 51/75/112
s 12
f 53/71/108 52/70/107 48/76/113 46/77/114
s 14
f 56/78/115 55/79/116 57/80/117 58/81/118
s 13
f 51/75/112 54/74/111 45/82/119 47/83/120
s off
f 53/84/121 59/85/122 60/86/123 54/87/124
s 12
f 62/88/125 59/89/126 53/71/108 46/77/114
s 11
f 61/90/127 62/91/128 46/61/98 45/60/97
s 13
f 60/92/129 61/93/130 45/82/119 54/74/111
s off
f 64/94/131 63/95/132 65/96/133 66/97/134
s 13
f 61/93/130 60/92/129 56/98/135 58/99/136
s 11
f 62/91/128 61/90/127 58/100/137 57/101/138
s 12
f 59/89/126 62/88/125 57/102/139 55/103/140
s off
f 60/104/141 59/105/142 63/106/143 64/107/144
s 12
f 59/89/126 55/103/140 65/108/145 63/109/146
s 14
f 55/79/116 56/78/115 66/110/147 65/111/148
s 13
f 56/98/135 60/92/129 64/112/149 66/113/150
s 2
f 36/29/151 68/115/69 67/114/77 33/53/152
f 1/12/153 69/116/36 68/115/69 36/29/151
f 70/117/5 69/116/36 1/12/153 16/6/154
f 10/192/155 71/190/6 70/117/5 16/6/154
s 1
f 75/118/4 74/201/3 13/2/156 19/3/157
f 2/8/158 76/119/33 75/118/4 19/3/157
f 77/120/62 76/119/33 2/8/158 42/17/159
f 78/121/84 77/120/62 42/17/159 30/54/160
f 39/16/161 80/123/61 79/122/83 29/55/162
f 39/16/161 4/9/163 81/124/34 80/123/61
f 82/125/1 81/124/34 4/9/163 18/1/164
f 18/1/164 14/204/165 83/182/2 82/125/1
s 2
f 87/126/8 86/211/7 9/4/166 17/5/167
f 17/5/167 3/11/168 88/127/35 87/126/8
f 89/128/70 88/127/35 3/11/168 35/26/169
f 90/129/78 89/128/70 35/26/169 32/52/170
s 3
f 106/195/10 109/215/171 110/223/172 107/205/11
s 4
f 94/130/16 93/218/15 12/187/173 20/10/29
f 5/34/28 95/131/31 94/130/16 20/10/29
f 96/132/63 95/131/31 5/34/28 41/40/90
f 97/133/81 96/132/63 41/40/90 31/46/89
f 37/43/174 99/135/75 98/134/79 34/45/175
f 8/33/27 100/136/26 99/135/75 37/43/174
f 101/137/23 100/136/26 8/33/27 15/21/30
f 102/189/24 101/137/23 15/21/30 11/221/176
s 3
f 108/206/12 111/227/177 112/228/178 105/194/9
s off
f 72/138/179 73/139/180 106/140/181 105/141/182
f 84/142/183 85/143/184 108/144/185 107/145/186
f 73/139/187 92/146/188 109/147/189 106/140/190
f 92/149/191 91/150/192 110/151/193 109/152/194
f 91/154/195 84/142/196 107/145/197 110/155/198
f 85/143/199 104/159/200 111/160/201 108/144/202
f 104/156/203 103/157/204 112/158/205 111/169/206
f 103/161/207 72/138/208 105/141/209 112/162/210
s 4
f 113/163/211 114/164/212 133/165/213 134/166/214
s 2
f 114/170/215 113/174/216 116/176/217 115/177/218
f 115/177/218 116/176/217 140/178/219 139/198/220
s 4
f 117/167/221 118/168/222 123/171/223 124/172/224
s 1
f 118/199/225 117/209/226 119/253/227 120/254/228
f 120/254/228 119/253/227 141/255/229 142/256/230
s 4
f 121/173/231 122/179/232 126/180/233 125/181/234
f 122/179/232 121/173/231 124/172/224 123/171/223
f 125/181/234 126/180/233 134/166/214 133/165/213
s 17
f 127/196/235 128/197/236 132/200/237 131/207/238
f 128/197/236 127/196/235 130/208/239 129/210/240
f 129/210/240 130/208/239 138/213/241 137/214/242
f 131/207/238 132/200/237 143/216/243 144/217/244
s 2
f 135/257/245 136/258/246 139/198/220 140/178/219
s 17
f 136/222/247 135/224/248 137/214/242 138/213/241
s 1
f 142/256/230 141/255/229 144/226/249 143/225/250
s 18
f 91/229/251 92/230/252 120/231/253 142/232/254
f 103/233/255 104/234/256 140/235/257 116/236/258
s 1
f 83/182/2 141/203/229 119/183/227 74/201/3
s 4
f 117/153/221 124/184/224 93/218/15 13/185/14
f 121/219/231 125/186/234 11/221/176 12/187/173
f 114/188/212 10/19/21 102/189/24 133/220/213
s 2
f 71/190/6 115/193/218 139/191/220 86/211/7
f 10/192/155 114/148/215 115/193/218 71/190/6
s 18
f 134/237/259 103/233/255 116/236/258 113/238/260
f 122/239/261 73/240/262 72/241/263 126/242/264
f 118/243/265 120/231/253 92/230/252 123/244/266
s 1
f 74/201/3 119/183/227 117/202/226 13/2/156
f 144/175/249 141/203/229 83/182/2 14/204/165
s 18
f 132/245/267 91/229/251 142/232/254 143/246/268
f 85/247/269 84/248/270 128/249/271 129/250/272
f 135/251/273 140/235/257 104/234/256 137/252/274
s 2
f 86/211/7 139/191/220 136/212/246 9/4/166
s 18
f 84/248/270 91/229/251 132/245/267 128/249/271
f 123/244/266 92/230/252 73/240/262 122/239/261
s 4
f 93/218/15 124/184/224 121/219/231 12/187/173
f 133/220/213 102/189/24 11/221/176 125/186/234
s 18
f 72/241/263 103/233/255 134/237/259 126/242/264
f 137/252/274 104/234/256 85/247/269 129/250/272
