# This file uses centimeters as units for non-parametric coordinates.

g default
v 0.147770 -0.996528 2.356213
v -0.147770 0.996528 2.356213
v -0.147770 0.996528 -2.356213
v 0.147770 -0.996528 -2.356213
v 0.147770 0.000000 2.356213
v 0.147770 0.000000 -2.356213
v 0.147770 0.435987 -2.356213
v 0.147770 0.435987 2.356213
v 0.122699 0.617542 -2.356213
v 0.147770 0.498270 -2.356213
v 0.147770 0.498270 2.356213
v 0.122699 0.617542 2.356213
v 0.098388 0.711738 -2.356213
v 0.108815 0.649109 -2.356213
v 0.108815 0.649109 2.356213
v 0.098388 0.711738 2.356213
v 0.124713 0.837025 -2.356213
v 0.103912 0.777037 -2.356213
v 0.103912 0.777037 2.356213
v 0.124713 0.837025 2.356213
v 0.037538 0.992691 2.356213
v 0.008390 0.996528 2.356213
v 0.008390 0.996528 -2.356213
v 0.037538 0.992691 -2.356213
v 0.138895 0.858522 2.356213
v 0.143599 0.887542 2.356213
v 0.143599 0.887542 -2.356213
v 0.138895 0.858522 -2.356213
v 0.096254 0.969080 2.356213
v 0.070793 0.983780 2.356213
v 0.070793 0.983780 -2.356213
v 0.096254 0.969080 -2.356213
v 0.135022 0.919552 2.356213
v 0.120322 0.945013 2.356213
v 0.120322 0.945013 -2.356213
v 0.135022 0.919552 -2.356213
vt 0.003623 0.004950
vt 0.728235 0.004950
vt 0.728235 0.372316
vt 0.003623 0.372316
vt 0.003623 0.680880
vt 0.728235 0.680880
vt 0.728235 0.688805
vt 0.003623 0.688805
vt 0.728235 0.729562
vt 0.003623 0.729562
vt 0.003623 0.720690
vt 0.728235 0.720690
vt 0.728235 0.711304
vt 0.003623 0.711304
vt 0.003623 0.699503
vt 0.728235 0.699503
vt 0.728235 0.533040
vt 0.003623 0.738880
vt 0.167555 0.738880
vt 0.167555 0.995049
vt 0.728235 0.556000
vt 0.003623 0.556000
vt 0.003623 0.995049
vt 0.198154 0.995049
vt 0.198154 0.738880
vt 0.003623 0.533040
vt 0.003623 0.599969
vt 0.728235 0.599969
vt 0.728235 0.611606
vt 0.233064 0.738880
vt 0.233064 0.995049
vt 0.003623 0.611606
vt 0.003623 0.634694
vt 0.259792 0.738880
vt 0.259792 0.995049
vt 0.728235 0.634694
vt 0.728235 0.658766
vt 0.003623 0.658766
vn 0.000000 1.000000 0.000000
vn 0.020704 0.999786 0.000000
vn 0.020704 0.999786 0.000000
vn 0.000000 1.000000 0.000000
vn 1.000000 0.000000 0.000000
vn 1.000000 0.000000 0.000000
vn 1.000000 0.000000 0.000000
vn 1.000000 0.000000 0.000000
vn 0.918896 -0.394499 0.000000
vn 0.918896 -0.394499 0.000000
vn 0.936687 -0.350168 0.000000
vn 0.936687 -0.350168 0.000000
vn 0.200153 0.979765 0.000000
vn 0.200153 0.979765 0.000000
vn 0.373080 0.927799 0.000000
vn 0.373080 0.927799 0.000000
vn 0.616368 0.787458 0.000000
vn 0.616368 0.787458 0.000000
vn 0.787458 0.616369 0.000000
vn 0.787458 0.616369 0.000000
vn 0.926863 0.375399 0.000000
vn 0.926863 0.375399 0.000000
vn 0.997992 0.063336 0.000000
vn 0.997992 0.063336 0.000000
vn 1.000000 0.000000 0.000000
vn 0.990600 0.136791 0.000000
vn 0.990600 0.136791 0.000000
vn 1.000000 0.000000 0.000000
vn 0.968233 0.250050 0.000000
vn 0.968233 0.250050 0.000000
vn 0.968270 0.249906 0.000000
vn 0.968270 0.249906 0.000000
vn 0.999266 0.038300 0.000000
vn 0.999266 0.038300 0.000000
vn 0.978629 -0.205632 0.000000
vn 0.978629 -0.205632 0.000000
s 1
g pCube1
f 2/18/1 22/19/2 23/20/3 3/23/4
f 1/1/5 4/2/6 6/3/7 5/4/8
f 20/5/9 17/6/10 28/7/11 25/8/12
f 24/24/13 21/25/14 30/30/15 31/31/16
f 32/9/17 29/10/18 34/11/19 35/12/20
f 36/13/21 33/14/22 26/15/23 27/16/24
f 7/17/25 10/21/26 11/22/27 8/26/28
f 5/4/8 6/3/7 7/17/25 8/26/28
f 12/27/29 9/28/30 14/29/31 15/32/32
f 16/33/33 13/36/34 18/37/35 19/38/36
f 10/21/26 9/28/30 12/27/29 11/22/27
f 14/29/31 13/36/34 16/33/33 15/32/32
f 18/37/35 17/6/10 20/5/9 19/38/36
f 22/19/2 21/25/14 24/24/13 23/20/3
f 26/15/23 25/8/12 28/7/11 27/16/24
f 30/30/15 29/34/18 32/35/17 31/31/16
f 34/11/19 33/14/22 36/13/21 35/12/20
