# This file uses centimeters as units for non-parametric coordinates.

g default
v -2.061054 -3.203778 2.061054
v 2.061054 -3.203778 2.061054
v -2.061054 3.203778 2.061054
v 2.061054 3.203778 2.061054
v -2.061054 3.203778 -2.061054
v 2.061054 3.203778 -2.061054
v -2.061054 -3.203778 -2.061054
v 2.061054 -3.203778 -2.061054
v -6.176826 -6.700945 -3.733729
v 6.176826 -6.700945 -3.733729
v 6.176826 -6.700945 3.733729
v -6.176826 -6.700945 3.733729
v -6.176826 -6.999440 -3.733729
v 6.176826 -6.999440 -3.733729
v 6.176826 -6.999440 3.733729
v -6.176826 -6.999440 3.733729
v -2.061054 3.203778 1.803422
v 2.061054 3.203778 1.803422
v 2.061054 -3.203778 1.803422
v 6.176826 -6.700945 3.267015
v 6.176826 -6.999440 3.267015
v -3.088413 -6.999440 3.267015
v -5.404723 -6.999440 3.267015
v -6.176826 -6.999440 3.267015
v -6.176826 -6.700945 3.267015
v -2.061054 -3.203778 1.803422
v -2.061054 -3.203778 -1.803422
v -6.176826 -6.700945 -3.267015
v -6.176826 -6.999440 -3.267015
v 4.632624 -6.999440 -3.267015
v 6.176826 -6.999440 -3.267015
v 6.176826 -6.700945 -3.267015
v 2.061054 -3.203778 -1.803422
v 2.061054 3.203778 -1.803422
v -2.061054 3.203778 -1.803422
v 1.932238 -3.203778 2.061054
v 5.790778 -6.700945 3.733729
v 5.790778 -6.999440 3.733729
v 5.790778 -6.999440 3.267015
v 5.790778 -6.999440 -3.267015
v 5.790778 -6.999440 -3.733729
v 5.790778 -6.700945 -3.733729
v 1.932238 -3.203778 -2.061054
v 1.932238 3.203778 -2.061054
v 1.932238 3.203778 2.061054
v -1.932238 -3.203778 2.061054
v -5.790778 -6.700945 3.733729
v -5.790778 -6.999440 3.733729
v -5.790778 -6.999440 3.267015
v -5.790778 -6.999440 -3.267015
v -5.790778 -6.999440 -3.733729
v -5.790778 -6.700945 -3.733729
v -1.932238 -3.203778 -2.061054
v -1.932238 3.203778 -2.061054
v -1.932238 3.203778 2.061054
v 5.462269 -6.177343 3.081675
v -2.913208 -6.177343 3.081675
v -5.098118 -6.177343 3.081675
v -5.462269 -6.177343 3.081675
v -5.462269 -6.177343 -3.081675
v 4.369812 -6.177343 -3.081675
v 5.462269 -6.177343 -3.081675
vt 0.020933 0.995050
vt 0.020933 0.695586
vt 0.025737 0.685128
vt 0.238183 0.532772
vt 0.450957 0.532772
vt 0.663404 0.685128
vt 0.251259 0.695586
vt 0.251259 0.995050
vt 0.898854 0.445849
vt 0.898854 0.480156
vt 0.458050 0.180774
vt 0.684659 0.047461
vt 0.684659 0.642618
vt 0.458050 0.509305
vt 0.450957 0.157307
vt 0.238183 0.157307
vt 0.025737 0.004950
vt 0.663404 0.004950
vt 0.872467 0.480156
vt 0.872467 0.445849
vt 0.004481 0.047461
vt 0.308726 0.844009
vt 0.231091 0.180774
vt 0.231091 0.509305
vt 0.004481 0.642618
vt 0.458050 0.532772
vt 0.684659 0.685128
vt 0.694153 0.451792
vt 0.308726 0.830058
vt 0.694153 0.403991
vt 0.725976 0.830058
vt 0.695860 0.403991
vt 0.695860 0.451792
vt 0.458050 0.157307
vt 0.684659 0.004950
vt 0.695860 0.400577
vt 0.694153 0.400577
vt 0.747076 0.400577
vt 0.725976 0.844009
vt 0.879027 0.844315
vt 0.879027 0.845913
vt 0.700549 0.390182
vt 0.747076 0.403991
vt 0.745369 0.403991
vt 0.735126 0.403991
vt 0.231091 0.157307
vt 0.004481 0.004950
vt 0.231091 0.532772
vt 0.004481 0.685128
vt 0.747076 0.455207
vt 0.700549 0.005010
vt 0.695860 0.455207
vt 0.700982 0.451792
vt 0.747076 0.451792
vt 0.694153 0.455207
vt 0.748783 0.403991
vt 0.748783 0.400577
vt 0.748783 0.451792
vt 0.748783 0.455207
vt 0.831226 0.845913
vt 0.892413 0.005010
vt 0.892413 0.390182
vt 0.831226 0.844315
vt 0.004481 0.695586
vt 0.888241 0.401296
vt 0.004481 0.995050
vt 0.888241 0.435604
vt 0.871152 0.435604
vt 0.871152 0.401296
vt 0.816579 0.844315
vt 0.816579 0.845913
vt 0.765363 0.845913
vt 0.765363 0.844315
vt 0.298090 0.819488
vt 0.298090 0.801545
vt 0.873093 0.801545
vt 0.873093 0.819488
vt 0.898808 0.005010
vt 0.898808 0.390182
vt 0.870582 0.435604
vt 0.870582 0.401296
vt 0.763655 0.845913
vt 0.763655 0.844315
vt 0.892259 0.819488
vt 0.892259 0.801545
vt 0.278923 0.819488
vt 0.278923 0.801545
vt 0.818286 0.845913
vt 0.818286 0.844315
vt 0.888811 0.435604
vt 0.888811 0.401296
vt 0.694153 0.005010
vt 0.694153 0.390182
vt 0.765438 0.830058
vt 0.804703 0.830058
vt 0.803928 0.834460
vt 0.766890 0.834460
vt 0.814946 0.830058
vt 0.813590 0.834460
vt 0.816653 0.830058
vt 0.815201 0.834460
vt 0.278923 0.694620
vt 0.802881 0.694620
vt 0.789670 0.744654
vt 0.295436 0.744654
vt 0.861098 0.694620
vt 0.844585 0.744654
vt 0.278923 0.844009
vt 0.278923 0.830058
vt 0.882442 0.845913
vt 0.882442 0.844315
vt 0.900739 0.445849
vt 0.900739 0.480156
vt 0.827812 0.845913
vt 0.827812 0.844315
vt 0.755780 0.844009
vt 0.755780 0.830058
vt 0.267711 0.695586
vt 0.267711 0.995050
vt 0.870582 0.445849
vt 0.870582 0.480156
vt 0.278923 0.753429
vt 0.711916 0.753429
vt 0.699634 0.793300
vt 0.291205 0.793300
vt 0.826030 0.830058
vt 0.873831 0.830058
vt 0.872475 0.834460
vt 0.827385 0.834460
vn 0.000000 0.000000 1.000000
vn 0.000000 0.288526 0.957472
vn 0.000000 0.288526 0.957472
vn 0.000000 0.000000 1.000000
vn 0.000000 0.288526 -0.957472
vn 0.000000 0.000000 -1.000000
vn 0.000000 0.000000 -1.000000
vn 0.000000 0.288526 -0.957472
vn 1.000000 0.000000 0.000000
vn 0.874016 0.485897 0.000000
vn 0.874016 0.485897 0.000000
vn 1.000000 0.000000 0.000000
vn -0.874016 0.485897 0.000000
vn -1.000000 0.000000 0.000000
vn -1.000000 0.000000 0.000000
vn -0.874016 0.485897 0.000000
vn 0.000000 0.347229 -0.937780
vn 0.000000 0.347229 -0.937780
vn 0.647515 0.762053 0.000000
vn 0.647515 0.762053 0.000000
vn 0.000000 0.347229 0.937780
vn 0.000000 0.347229 0.937780
vn -0.647515 0.762053 0.000000
vn -0.647515 0.762053 0.000000
vn 0.000000 0.000000 -1.000000
vn 0.000000 0.000000 -1.000000
vn 1.000000 0.000000 0.000000
vn 1.000000 0.000000 0.000000
vn 1.000000 0.000000 0.000000
vn 1.000000 0.000000 0.000000
vn 0.000000 0.000000 1.000000
vn 0.000000 0.000000 1.000000
vn -1.000000 0.000000 0.000000
vn -1.000000 0.000000 0.000000
vn -1.000000 0.000000 0.000000
vn -1.000000 0.000000 0.000000
vn 0.000000 0.292074 0.956396
vn 0.000000 0.000000 1.000000
vn 0.000000 0.000000 -1.000000
vn 0.000000 0.292074 -0.956396
vn 0.000000 0.337003 -0.941504
vn 0.000000 0.000000 -1.000000
vn 0.000000 -1.000000 0.000000
vn 0.000000 -1.000000 0.000000
vn 0.000000 -1.000000 0.000000
vn 0.000000 -1.000000 0.000000
vn 0.000000 0.337003 0.941504
vn 0.000000 0.000000 1.000000
vn 0.869322 0.494247 0.000000
vn 1.000000 0.000000 0.000000
vn 0.647515 0.762053 0.000000
vn 1.000000 0.000000 0.000000
vn 1.000000 0.000000 0.000000
vn 0.000000 -1.000000 0.000000
vn 0.000000 -1.000000 0.000000
vn 0.000000 -1.000000 0.000001
vn 0.000000 -1.000000 0.000000
vn 0.000000 -1.000000 0.000000
vn 0.000000 -1.000000 0.000003
vn -1.000000 0.000000 0.000000
vn -1.000000 0.000000 0.000000
vn -0.869322 0.494247 0.000000
vn -0.647515 0.762053 0.000000
vn -1.000000 0.000000 0.000000
vn -0.869322 0.494247 0.000000
vn -0.647515 0.762053 0.000000
vn -1.000000 0.000000 0.000000
vn -1.000000 0.000000 0.000000
vn 0.000000 -1.000000 0.000000
vn 0.000000 -1.000000 0.000001
vn 0.000000 -1.000000 0.000000
vn 0.000000 -1.000000 0.000003
vn 0.000000 -1.000000 0.000000
vn 1.000000 0.000000 0.000000
vn 1.000000 0.000000 0.000000
vn 0.869322 0.494247 0.000000
vn 0.647515 0.762053 0.000000
vn 1.000000 0.000000 0.000000
vn -1.000000 0.000000 0.000000
vn 0.000000 0.292074 0.956396
vn 0.000000 0.337003 0.941504
vn 0.000000 0.000000 1.000000
vn 0.000000 -1.000000 0.000000
vn 0.000000 -1.000000 0.000000
vn 0.000000 -1.000000 0.000000
vn 0.000000 -1.000000 0.000000
vn 0.000000 0.337003 -0.941504
vn 0.000000 0.000000 -1.000000
vn 0.000000 0.292074 -0.956396
vn 0.000000 0.000000 -1.000000
vn 0.000000 0.000000 1.000000
vn 0.000000 -0.219927 -0.975516
vn 0.000000 -0.219927 -0.975516
vn 0.000000 -0.219927 -0.975516
vn 0.000000 -0.219927 -0.975516
vn 0.000000 -0.219927 -0.975516
vn 0.000000 -0.219927 -0.975516
vn 0.000000 -0.219927 -0.975516
vn 0.000000 -0.219927 -0.975516
vn 0.928605 -0.371070 0.000000
vn 0.928605 -0.371070 0.000000
vn 0.928605 -0.371070 0.000000
vn 0.928605 -0.371070 0.000000
vn 0.000000 -0.219927 0.975516
vn 0.000000 -0.219927 0.975516
vn 0.000000 -0.219927 0.975516
vn 0.000000 -0.219927 0.975516
vn 0.000000 -0.219927 0.975516
vn 0.000000 -0.219927 0.975516
vn -0.928605 -0.371070 0.000000
vn -0.928605 -0.371070 0.000000
vn -0.928605 -0.371070 0.000000
vn -0.928605 -0.371070 0.000000
s 1
g pCube1
f 55/42/1 46/51/2 36/61/3 45/62/4
s 2
f 53/65/5 54/67/6 44/68/7 43/69/8
s 3
f 18/1/9 19/2/10 33/7/11 34/8/12
s 4
f 26/9/13 17/10/14 35/19/15 27/20/16
s 2
f 52/3/17 53/4/5 43/5/8 42/6/18
s 3
f 19/11/10 20/12/19 32/13/20 33/14/11
s 1
f 36/15/3 46/16/2 47/17/21 37/18/22
s 4
f 25/21/23 26/23/13 27/24/16 28/25/24
s 2
f 51/70/25 52/71/17 42/72/18 41/73/26
s 5
f 20/22/27 21/29/28 31/31/29 32/39/30
s 1
f 47/74/21 48/75/31 38/76/32 37/77/22
s 6
f 24/40/33 25/41/34 28/60/35 29/63/36
s 1
f 45/62/4 36/61/3 2/78/37 4/79/38
s 2
f 43/69/8 44/68/7 6/80/39 8/81/40
f 42/6/18 43/5/8 8/26/40 10/27/41
f 41/73/26 42/72/18 10/82/41 14/83/42
s 7
f 31/28/43 21/30/44 39/32/45 40/33/46
s 1
f 11/84/47 37/77/22 38/76/32 15/85/48
f 2/34/37 36/15/3 37/18/22 11/35/47
s 3
f 2/64/49 19/2/10 18/1/9 4/66/50
f 20/12/19 19/11/10 2/34/49 11/35/51
s 5
f 21/29/28 20/22/27 11/108/52 15/109/53
s 7
f 38/36/54 39/32/45 21/30/44 15/37/55
f 38/36/54 48/38/56 39/32/45
f 49/43/57 23/44/58 48/38/56
f 39/32/45 48/38/56 22/45/59
f 48/38/56 23/44/58 22/45/59
s 6
f 12/110/60 25/41/34 24/40/33 16/111/61
s 4
f 1/46/62 26/23/13 25/21/23 12/47/63
f 17/10/14 26/9/13 1/112/62 3/113/64
f 28/25/24 27/24/16 7/48/65 9/49/66
s 6
f 29/63/36 28/60/35 9/114/67 13/115/68
s 7
f 51/50/69 41/52/70 50/54/71
f 40/33/46 30/53/72 41/52/70
f 41/52/70 30/53/72 50/54/71
f 31/28/43 40/33/46 41/52/70 14/55/73
s 5
f 10/116/74 32/39/30 31/31/29 14/117/75
s 3
f 8/26/76 33/14/11 32/13/20 10/27/77
f 34/8/12 33/7/11 8/118/76 6/119/78
s 4
f 7/120/65 27/20/16 35/19/15 5/121/79
s 1
f 47/17/21 46/16/2 1/46/80 12/47/81
f 48/75/31 47/74/21 12/86/81 16/87/82
s 7
f 24/56/83 49/43/57 48/38/56 16/57/84
f 24/56/83 29/58/85 50/54/71 49/43/57
f 13/59/86 51/50/69 50/54/71 29/58/85
s 2
f 9/88/87 52/71/17 51/70/25 13/89/88
f 7/48/89 53/4/5 52/3/17 9/49/87
f 5/90/90 54/67/6 53/65/5 7/91/89
s 1
f 1/92/80 46/51/2 55/42/1 3/93/91
s 10
f 39/94/92 22/95/93 57/96/94 56/97/95
f 22/95/93 23/98/96 58/99/97 57/96/94
f 23/98/96 49/100/98 59/101/99 58/99/97
s off
f 49/122/100 50/123/101 60/124/102 59/125/103
s 11
f 50/102/104 30/103/105 61/104/106 60/105/107
f 30/103/105 40/106/108 62/107/109 61/104/106
s off
f 40/126/110 39/127/111 56/128/112 62/129/113
