# This file uses centimeters as units for non-parametric coordinates.

g default
v -0.829576 -0.047573 0.829576
v 0.829576 -0.064295 0.829576
v -0.829576 -0.020133 0.829576
v 0.829576 -0.036855 0.829576
v -0.829576 0.054291 -0.829576
v 0.829576 0.004327 -0.829576
v -0.829576 0.026851 -0.829576
v 0.829576 -0.023113 -0.829576
v -0.829576 0.013720 0.000000
v 0.829576 -0.000133 0.000000
v 0.829576 -0.027573 0.000000
v -0.829576 -0.013720 0.000000
v 0.000000 -0.071744 0.829576
v 0.000000 0.004968 0.000000
v 0.000000 0.046305 -0.829576
v 0.000000 0.073745 -0.829576
v 0.000000 0.032409 0.000000
v 0.000000 -0.044304 0.829576
v -0.829576 -0.013720 -0.414788
v 0.000000 -0.013720 -0.414788
v 0.829576 -0.027400 -0.414788
v 0.829576 0.000040 -0.414788
v 0.000000 0.013720 -0.414788
v -0.829576 0.013720 -0.414788
v -0.829576 0.006473 0.414788
v 0.000000 0.030895 0.414788
v 0.829576 0.013720 0.414788
v 0.829576 -0.013720 0.414788
v 0.000000 0.003455 0.414788
v -0.829576 -0.020967 0.414788
v 0.414788 0.046305 0.000000
v 0.414788 -0.013720 0.414788
v 0.414788 -0.013720 0.829576
v 0.414788 0.013720 0.829576
v 0.414788 0.013720 0.414788
v 0.414788 0.073745 0.000000
v 0.414788 0.013720 -0.414788
v 0.414788 0.073745 -0.829576
v 0.414788 0.046305 -0.829576
v 0.414788 -0.013720 -0.414788
v 0.622182 -0.013720 0.000000
v 0.622182 -0.013720 0.414788
v 0.622182 -0.064295 0.829576
v 0.622182 -0.036855 0.829576
v 0.622182 0.013720 0.414788
v 0.622182 0.013720 0.000000
v 0.622182 0.030845 -0.414788
v 0.622182 0.013720 -0.829576
v 0.622182 -0.013720 -0.829576
v 0.622182 0.003405 -0.414788
v 0.207394 -0.071744 0.829576
v 0.207394 -0.013720 0.414788
v 0.207394 0.004968 0.000000
v 0.207394 0.046305 -0.414788
v 0.207394 -0.013720 -0.829576
v 0.207394 0.013720 -0.829576
v 0.207394 0.073745 -0.414788
v 0.207394 0.032409 0.000000
v 0.207394 0.013720 0.414788
v 0.207394 -0.044304 0.829576
v -0.414788 0.046305 0.829576
v -0.414788 -0.013720 0.414788
v -0.414788 -0.013720 0.000000
v -0.414788 -0.013720 -0.414788
v -0.414788 -0.013720 -0.829576
v -0.414788 0.013720 -0.829576
v -0.414788 0.013720 -0.414788
v -0.414788 0.013720 0.000000
v -0.414788 0.013720 0.414788
v -0.414788 0.073745 0.829576
v -0.207394 -0.013720 0.000000
v -0.207394 0.003455 0.414788
v -0.207394 -0.013720 0.829576
v -0.207394 0.013720 0.829576
v -0.207394 0.030895 0.414788
v -0.207394 0.013720 0.000000
v -0.207394 0.013720 -0.414788
v -0.207394 0.013720 -0.829576
v -0.207394 -0.013720 -0.829576
v -0.207394 -0.013720 -0.414788
v -0.622182 -0.013720 0.829576
v -0.622182 0.046305 0.414788
v -0.622182 0.046305 0.000000
v -0.622182 0.046305 -0.414788
v -0.622182 0.046305 -0.829576
v -0.622182 0.073745 -0.829576
v -0.622182 0.073745 -0.414788
v -0.622182 0.073745 0.000000
v -0.622182 0.073745 0.414788
v -0.622182 0.013720 0.829576
v -0.829576 0.007058 -0.622182
v -0.622182 -0.013720 -0.622182
v -0.414788 -0.013720 -0.622182
v -0.207394 0.046305 -0.622182
v 0.000000 -0.013720 -0.622182
v 0.207394 -0.013720 -0.622182
v 0.414788 0.046305 -0.622182
v 0.622182 0.046305 -0.622182
v 0.829576 -0.047799 -0.622182
v 0.829576 -0.020359 -0.622182
v 0.622182 0.073745 -0.622182
v 0.414788 0.073745 -0.622182
v 0.207394 0.013720 -0.622182
v 0.000000 0.013720 -0.622182
v -0.207394 0.073745 -0.622182
v -0.414788 0.013720 -0.622182
v -0.622182 0.013720 -0.622182
v -0.829576 0.034498 -0.622182
v -0.829576 0.073745 -0.207394
v -0.622182 0.013720 -0.207394
v -0.414788 0.013720 -0.207394
v -0.207394 0.073745 -0.207394
v 0.000000 0.032409 -0.207394
v 0.207394 0.032409 -0.207394
v 0.414788 0.030845 -0.207394
v 0.622182 -0.001845 -0.207394
v 0.829576 -0.000133 -0.207394
v 0.829576 -0.027573 -0.207394
v 0.622182 -0.029285 -0.207394
v 0.414788 0.003405 -0.207394
v 0.207394 0.004968 -0.207394
v 0.000000 0.004968 -0.207394
v -0.207394 0.046305 -0.207394
v -0.414788 -0.013720 -0.207394
v -0.622182 -0.013720 -0.207394
v -0.829576 0.046305 -0.207394
v 0.829576 -0.025175 0.207394
v 0.829576 0.002265 0.207394
v 0.622182 0.073745 0.207394
v 0.414788 0.013720 0.207394
v 0.207394 0.032409 0.207394
v 0.000000 0.055700 0.207394
v -0.207394 0.073745 0.207394
v -0.414788 0.013720 0.207394
v -0.622182 0.013720 0.207394
v -0.829576 0.006473 0.207394
v -0.829576 -0.020967 0.207394
v -0.622182 -0.013720 0.207394
v -0.414788 -0.013720 0.207394
v -0.207394 0.046305 0.207394
v 0.000000 -0.013720 0.207394
v 0.207394 0.004968 0.207394
v 0.414788 -0.013720 0.207394
v 0.622182 0.046305 0.207394
v -0.829576 0.013720 0.622182
v -0.622182 0.013720 0.622182
v -0.414788 0.046482 0.622182
v -0.207394 0.046482 0.622182
v 0.000000 0.013720 0.622182
v 0.207394 0.073745 0.622182
v 0.414788 0.013720 0.622182
v 0.622182 0.013720 0.622182
v 0.829576 0.073745 0.622182
v 0.829576 0.046305 0.622182
v 0.622182 -0.013720 0.622182
v 0.414788 -0.013720 0.622182
v 0.207394 0.046305 0.622182
v 0.000000 -0.013720 0.622182
v -0.207394 0.019042 0.622182
v -0.414788 0.019042 0.622182
v -0.622182 -0.013720 0.622182
v -0.829576 -0.013720 0.622182
vt 0.375000 0.000000
vt 0.625000 0.000000
vt 0.375000 0.250000
vt 0.625000 0.250000
vt 0.375000 0.500000
vt 0.625000 0.500000
vt 0.375000 0.750000
vt 0.625000 0.750000
vt 0.375000 1.000000
vt 0.625000 1.000000
vt 0.875000 0.000000
vt 0.875000 0.250000
vt 0.125000 0.000000
vt 0.125000 0.250000
vt 0.250000 0.250000
vt 0.375000 0.375000
vt 0.625000 0.375000
vt 0.750000 0.250000
vt 0.625000 0.875000
vt 0.750000 0.000000
vt 0.250000 0.000000
vt 0.375000 0.875000
vt 0.500000 0.000000
vt 0.500000 1.000000
vt 0.500000 0.875000
vt 0.500000 0.750000
vt 0.500000 0.500000
vt 0.500000 0.375000
vt 0.500000 0.250000
vt 0.187500 0.000000
vt 0.375000 0.812500
vt 0.500000 0.812500
vt 0.625000 0.812500
vt 0.812500 0.000000
vt 0.625000 0.437500
vt 0.812500 0.250000
vt 0.500000 0.437500
vt 0.187500 0.250000
vt 0.375000 0.437500
vt 0.312500 0.250000
vt 0.375000 0.312500
vt 0.500000 0.312500
vt 0.625000 0.312500
vt 0.687500 0.250000
vt 0.625000 0.937500
vt 0.687500 0.000000
vt 0.500000 0.937500
vt 0.312500 0.000000
vt 0.375000 0.937500
vt 0.562500 0.875000
vt 0.562500 0.937500
vt 0.562500 0.000000
vt 0.562500 1.000000
vt 0.562500 0.250000
vt 0.562500 0.312500
vt 0.562500 0.375000
vt 0.562500 0.437500
vt 0.562500 0.500000
vt 0.562500 0.750000
vt 0.562500 0.812500
vt 0.593750 0.875000
vt 0.593750 0.937500
vt 0.593750 0.000000
vt 0.593750 1.000000
vt 0.593750 0.250000
vt 0.593750 0.312500
vt 0.593750 0.375000
vt 0.593750 0.437500
vt 0.593750 0.500000
vt 0.593750 0.750000
vt 0.593750 0.812500
vt 0.531250 0.000000
vt 0.531250 1.000000
vt 0.531250 0.937500
vt 0.531250 0.875000
vt 0.531250 0.812500
vt 0.531250 0.750000
vt 0.531250 0.500000
vt 0.531250 0.437500
vt 0.531250 0.375000
vt 0.531250 0.312500
vt 0.531250 0.250000
vt 0.437500 0.000000
vt 0.437500 1.000000
vt 0.437500 0.937500
vt 0.437500 0.875000
vt 0.437500 0.812500
vt 0.437500 0.750000
vt 0.437500 0.500000
vt 0.437500 0.437500
vt 0.437500 0.375000
vt 0.437500 0.312500
vt 0.437500 0.250000
vt 0.468750 0.875000
vt 0.468750 0.937500
vt 0.468750 0.000000
vt 0.468750 1.000000
vt 0.468750 0.250000
vt 0.468750 0.312500
vt 0.468750 0.375000
vt 0.468750 0.437500
vt 0.468750 0.500000
vt 0.468750 0.750000
vt 0.468750 0.812500
vt 0.406250 0.000000
vt 0.406250 1.000000
vt 0.406250 0.937500
vt 0.406250 0.875000
vt 0.406250 0.812500
vt 0.406250 0.750000
vt 0.406250 0.500000
vt 0.406250 0.437500
vt 0.406250 0.375000
vt 0.406250 0.312500
vt 0.406250 0.250000
vt 0.156250 0.000000
vt 0.375000 0.781250
vt 0.406250 0.781250
vt 0.437500 0.781250
vt 0.468750 0.781250
vt 0.500000 0.781250
vt 0.531250 0.781250
vt 0.562500 0.781250
vt 0.593750 0.781250
vt 0.625000 0.781250
vt 0.843750 0.000000
vt 0.625000 0.468750
vt 0.843750 0.250000
vt 0.593750 0.468750
vt 0.562500 0.468750
vt 0.531250 0.468750
vt 0.500000 0.468750
vt 0.468750 0.468750
vt 0.437500 0.468750
vt 0.406250 0.468750
vt 0.156250 0.250000
vt 0.375000 0.468750
vt 0.218750 0.250000
vt 0.375000 0.406250
vt 0.406250 0.406250
vt 0.437500 0.406250
vt 0.468750 0.406250
vt 0.500000 0.406250
vt 0.531250 0.406250
vt 0.562500 0.406250
vt 0.593750 0.406250
vt 0.625000 0.406250
vt 0.781250 0.250000
vt 0.625000 0.843750
vt 0.781250 0.000000
vt 0.593750 0.843750
vt 0.562500 0.843750
vt 0.531250 0.843750
vt 0.500000 0.843750
vt 0.468750 0.843750
vt 0.437500 0.843750
vt 0.406250 0.843750
vt 0.218750 0.000000
vt 0.375000 0.843750
vt 0.625000 0.906250
vt 0.718750 0.000000
vt 0.625000 0.343750
vt 0.718750 0.250000
vt 0.593750 0.343750
vt 0.562500 0.343750
vt 0.531250 0.343750
vt 0.500000 0.343750
vt 0.468750 0.343750
vt 0.437500 0.343750
vt 0.406250 0.343750
vt 0.281250 0.250000
vt 0.375000 0.343750
vt 0.281250 0.000000
vt 0.375000 0.906250
vt 0.406250 0.906250
vt 0.437500 0.906250
vt 0.468750 0.906250
vt 0.500000 0.906250
vt 0.531250 0.906250
vt 0.562500 0.906250
vt 0.593750 0.906250
vt 0.343750 0.250000
vt 0.375000 0.281250
vt 0.406250 0.281250
vt 0.437500 0.281250
vt 0.468750 0.281250
vt 0.500000 0.281250
vt 0.531250 0.281250
vt 0.562500 0.281250
vt 0.593750 0.281250
vt 0.625000 0.281250
vt 0.656250 0.250000
vt 0.625000 0.968750
vt 0.656250 0.000000
vt 0.593750 0.968750
vt 0.562500 0.968750
vt 0.531250 0.968750
vt 0.500000 0.968750
vt 0.468750 0.968750
vt 0.437500 0.968750
vt 0.406250 0.968750
vt 0.343750 0.000000
vt 0.375000 0.968750
vn 0.000000 0.000000 1.000000
vn 0.000000 0.000000 1.000000
vn 0.000000 0.000000 1.000000
vn 0.000000 0.000000 1.000000
vn -0.012134 0.999909 0.005942
vn 0.134613 0.988769 -0.064930
vn 0.041946 0.994608 0.094847
vn -0.031161 0.999514 -0.000889
vn 0.000000 0.000000 -1.000000
vn 0.000000 0.000000 -1.000000
vn 0.000000 0.000000 -1.000000
vn 0.000000 0.000000 -1.000000
vn -0.134613 -0.988769 0.064930
vn 0.012134 -0.999909 -0.005942
vn 0.031161 -0.999514 0.000889
vn -0.041946 -0.994608 -0.094847
vn 1.000000 0.000000 0.000000
vn 1.000000 0.000000 0.000000
vn 1.000000 0.000000 0.000000
vn 1.000000 0.000000 0.000000
vn -1.000000 0.000000 0.000000
vn -1.000000 0.000000 0.000000
vn -1.000000 0.000000 0.000000
vn -1.000000 0.000000 0.000000
vn -0.048637 0.994301 0.094873
vn 0.047042 0.996296 0.071986
vn 0.083469 0.995656 -0.041248
vn 0.011262 0.999873 0.011262
vn 1.000000 0.000000 0.000000
vn 1.000000 0.000000 0.000000
vn 1.000000 0.000000 0.000000
vn 1.000000 0.000000 0.000000
vn 0.039769 -0.995619 -0.084628
vn 0.048637 -0.994301 -0.094873
vn -0.011262 -0.999873 -0.011262
vn -0.076039 -0.995914 0.048710
vn -1.000000 0.000000 0.000000
vn -1.000000 0.000000 0.000000
vn -1.000000 0.000000 0.000000
vn -1.000000 0.000000 0.000000
vn 0.019068 -0.999533 0.023871
vn 0.010350 -0.999893 0.010350
vn 0.021520 -0.999720 0.009805
vn 0.034928 -0.999356 -0.008252
vn 0.021654 -0.999687 0.012492
vn -0.000000 -1.000000 -0.000000
vn -0.000000 -1.000000 -0.000000
vn 0.011262 -0.999873 0.011262
vn 0.000000 0.000000 -1.000000
vn 0.000000 0.000000 -1.000000
vn 0.000000 0.000000 -1.000000
vn 0.000000 0.000000 -1.000000
vn -0.000000 1.000000 -0.000000
vn -0.000000 1.000000 -0.000000
vn -0.021654 0.999687 -0.012492
vn -0.011262 0.999873 -0.011262
vn -0.036892 0.999231 -0.013274
vn -0.010350 0.999893 -0.010350
vn -0.019068 0.999533 -0.023871
vn -0.052681 0.998272 0.026034
vn 0.000000 0.000000 1.000000
vn 0.000000 0.000000 1.000000
vn 0.000000 0.000000 1.000000
vn 0.000000 0.000000 1.000000
vn -0.000000 -1.000000 0.000000
vn 0.036131 -0.998694 -0.036131
vn 0.094426 -0.995532 -0.000000
vn 0.060808 -0.997577 -0.033813
vn 1.000000 0.000000 0.000000
vn 1.000000 0.000000 0.000000
vn -0.060808 0.997577 0.033813
vn -0.094426 0.995532 0.000000
vn -0.036131 0.998694 0.036131
vn -0.000000 1.000000 0.000000
vn -1.000000 0.000000 0.000000
vn -1.000000 0.000000 0.000000
vn -0.078514 0.995377 -0.055325
vn 0.060346 0.997510 -0.036490
vn -0.019325 0.995989 0.087367
vn 0.067566 0.995584 0.065165
vn 1.000000 0.000000 0.000000
vn 1.000000 0.000000 0.000000
vn -0.067566 -0.995584 -0.065165
vn 0.019325 -0.995989 -0.087367
vn -0.060346 -0.997510 0.036490
vn 0.078514 -0.995377 0.055325
vn -1.000000 0.000000 0.000000
vn -1.000000 0.000000 0.000000
vn -0.053041 -0.998155 -0.029544
vn 0.029249 -0.999144 -0.029249
vn 0.060727 -0.987376 -0.146291
vn 0.000000 0.000000 1.000000
vn 0.000000 0.000000 1.000000
vn -0.060727 0.987376 0.146291
vn -0.029249 0.999144 0.029249
vn 0.053041 0.998155 0.029544
vn 0.064771 0.997878 0.006721
vn 0.124996 0.981992 0.141660
vn 0.062214 0.996868 0.048815
vn 0.000000 0.000000 -1.000000
vn 0.000000 0.000000 -1.000000
vn -0.062214 -0.996868 -0.048815
vn -0.124996 -0.981992 -0.141660
vn -0.064771 -0.997878 -0.006721
vn -0.013806 -0.999809 0.013806
vn -0.196441 -0.973689 0.115504
vn 0.142616 -0.985517 -0.091741
vn 0.000000 0.000000 1.000000
vn 0.000000 0.000000 1.000000
vn 0.013806 0.999809 -0.013806
vn -0.142616 0.985517 0.091740
vn 0.196441 0.973689 -0.115504
vn 0.213591 0.974983 0.061543
vn 0.049777 0.998535 0.021237
vn 0.267485 0.963521 -0.008963
vn 0.000000 0.000000 -1.000000
vn 0.000000 0.000000 -1.000000
vn -0.213591 -0.974983 -0.061543
vn -0.267485 -0.963521 0.008963
vn -0.049777 -0.998535 -0.021237
vn -0.031645 -0.957870 -0.285454
vn -0.086654 -0.996031 -0.020353
vn -0.039303 -0.999204 -0.006802
vn -0.019800 -0.999291 0.032019
vn -0.026262 -0.997938 0.058563
vn -0.047319 -0.997758 -0.047319
vn 0.000000 0.000000 -1.000000
vn 0.000000 0.000000 -1.000000
vn 0.047319 0.997758 0.047319
vn 0.026262 0.997938 -0.058563
vn 0.019800 0.999291 -0.032019
vn 0.024617 0.999569 -0.015970
vn 0.070253 0.993939 0.084562
vn 0.031645 0.957870 0.285454
vn 0.000000 0.000000 1.000000
vn 0.000000 0.000000 1.000000
vn 0.148540 -0.987762 -0.047564
vn 0.029127 -0.999275 0.024508
vn 0.054640 -0.998491 -0.005511
vn -0.136355 -0.990660 0.000000
vn -0.048630 -0.998537 0.023620
vn -0.124816 -0.992168 -0.004819
vn 0.000000 0.000000 -1.000000
vn 0.000000 0.000000 -1.000000
vn 0.124816 0.992168 0.004819
vn 0.048630 0.998538 -0.023620
vn 0.136355 0.990660 0.000000
vn -0.054640 0.998491 0.005511
vn -0.029127 0.999275 -0.024508
vn -0.148540 0.987762 0.047564
vn 0.000000 0.000000 1.000000
vn 0.000000 0.000000 1.000000
vn 0.172543 -0.981488 0.083128
vn 0.120358 -0.987361 -0.103109
vn 0.171847 -0.983448 0.057431
vn 0.064275 -0.995860 0.064275
vn 0.000000 -1.000000 -0.000000
vn 0.003951 -0.985636 -0.168837
vn 0.000000 0.000000 -1.000000
vn 0.000000 0.000000 -1.000000
vn -0.064275 0.995860 -0.064275
vn -0.003951 0.985636 0.168837
vn -0.000000 1.000000 0.000000
vn -0.172543 0.981488 -0.083128
vn -0.171847 0.983448 -0.057431
vn -0.120358 0.987361 0.103109
vn 0.000000 0.000000 1.000000
vn 0.000000 0.000000 1.000000
vn -0.003134 -0.981979 -0.188961
vn -0.045651 -0.983523 -0.174924
vn 0.000000 -1.000000 0.000000
vn 0.135105 -0.981577 0.135105
vn -0.071980 -0.994805 -0.071980
vn 0.071980 -0.994805 -0.071980
vn 0.071980 -0.994805 0.071980
vn -0.238550 -0.967487 0.084047
vn -0.241270 -0.966955 0.082381
vn 1.000000 0.000000 0.000000
vn 1.000000 0.000000 0.000000
vn 0.238550 0.967487 -0.084047
vn 0.241271 0.966955 -0.082381
vn -0.071980 0.994805 -0.071980
vn -0.071980 0.994805 0.071980
vn 0.071980 0.994805 0.071980
vn -0.135105 0.981577 -0.135105
vn -0.000000 1.000000 -0.000000
vn 0.045651 0.983523 0.174924
vn 0.003134 0.981979 0.188961
vn -1.000000 0.000000 0.000000
vn -1.000000 0.000000 0.000000
vn -0.153704 0.976089 0.153704
vn 0.031768 0.998675 0.040492
vn 0.000000 1.000000 0.000000
vn -0.125224 0.992124 -0.003008
vn 0.022191 0.998052 -0.058303
vn -0.023577 0.999715 -0.003716
vn 0.013724 0.999505 -0.028297
vn 0.196404 0.971296 -0.134203
vn 0.096339 0.992103 -0.080315
vn 1.000000 0.000000 0.000000
vn 1.000000 0.000000 0.000000
vn -0.196404 -0.971296 0.134203
vn -0.096339 -0.992103 0.080315
vn -0.013724 -0.999505 0.028298
vn 0.048816 -0.998575 -0.021555
vn -0.008140 -0.998465 -0.054778
vn 0.119882 -0.992785 -0.002415
vn 0.000000 -1.000000 0.000000
vn -0.031768 -0.998675 -0.040492
vn 0.153704 -0.976089 -0.153704
vn -1.000000 0.000000 0.000000
vn -1.000000 0.000000 0.000000
vn -0.081077 0.993405 0.081077
vn -0.150903 0.988517 0.007853
vn -0.039448 0.998878 -0.026205
vn 0.206836 0.957280 0.202074
vn -0.115962 0.917679 0.380023
vn -0.126897 0.914899 0.383219
vn 0.061987 0.978076 0.198808
vn -0.120345 0.930057 0.347147
vn -0.133676 0.923740 0.358937
vn 1.000000 0.000000 0.000000
vn 1.000000 0.000000 0.000000
vn 0.120345 -0.930057 -0.347147
vn 0.133676 -0.923740 -0.358937
vn -0.061987 -0.978076 -0.198808
vn 0.126897 -0.914899 -0.383219
vn 0.115962 -0.917679 -0.380023
vn -0.206836 -0.957280 -0.202074
vn 0.039448 -0.998878 0.026205
vn 0.150903 -0.988517 -0.007853
vn 0.081077 -0.993405 -0.081077
vn -1.000000 0.000000 0.000000
vn -1.000000 0.000000 0.000000
s 1
g pCube1
f 60/82/1 51/72/2 33/52/3 34/54/4
s 2
f 114/144/5 115/145/6 37/57/7 57/79/8
s 3
f 55/77/9 56/78/10 38/58/11 39/59/12
s 4
f 120/152/13 121/153/14 54/76/15 40/60/16
s 5
f 117/148/17 118/150/18 21/34/19 22/36/20
s 6
f 24/38/21 19/30/22 126/158/23 109/138/24
s 2
f 130/165/25 131/166/26 59/81/27 35/55/28
s 5
f 27/44/29 28/46/30 127/161/31 128/163/32
s 4
f 142/179/33 143/180/34 32/51/35 52/74/36
s 6
f 136/171/37 137/173/38 30/48/39 25/40/40
s 4
f 62/85/41 139/176/42 140/177/43 72/95/44
f 123/155/45 124/156/46 64/87/47 80/104/48
s 3
f 65/88/49 66/89/50 78/102/51 79/103/52
s 2
f 67/90/53 111/141/54 112/142/55 77/101/56
f 133/168/57 134/169/58 69/92/59 75/99/60
s 1
f 70/93/61 61/83/62 73/96/63 74/98/64
s 4
f 64/87/47 93/119/65 94/120/66 80/104/48
f 96/122/67 97/123/68 40/60/16 54/76/15
s 5
f 22/36/20 21/34/19 99/126/69 100/128/70
s 2
f 102/130/71 103/131/72 57/79/8 37/57/7
f 105/133/73 106/134/74 67/90/53 77/101/56
s 6
f 108/136/75 91/116/76 19/30/22 24/38/21
s 2
f 69/92/59 147/185/77 148/186/78 75/99/60
f 150/188/79 151/189/80 35/55/28 59/81/27
s 5
f 153/192/81 154/194/82 28/46/30 27/44/29
s 4
f 156/196/83 157/197/84 52/74/36 32/51/35
f 159/199/85 160/200/86 62/85/41 72/95/44
s 6
f 25/40/40 30/48/39 162/202/87 145/182/88
s 4
f 143/180/34 144/181/89 42/62/90 32/51/35
f 155/195/91 156/196/83 32/51/35 42/62/90
s 1
f 34/54/4 33/52/3 43/63/92 44/65/93
s 2
f 151/189/80 152/190/94 45/66/95 35/55/28
f 129/164/96 130/165/25 35/55/28 45/66/95
f 115/145/6 116/146/97 47/68/98 37/57/7
f 101/129/99 102/130/71 37/57/7 47/68/98
s 3
f 39/59/12 38/58/11 48/69/100 49/70/101
s 4
f 97/123/68 98/124/102 50/71/103 40/60/16
f 119/151/104 120/152/13 40/60/16 50/71/103
f 28/45/105 42/62/90 144/181/89 127/160/106
f 154/193/107 155/195/91 42/62/90 28/45/105
s 1
f 44/65/93 43/63/92 2/2/108 4/4/109
s 2
f 27/43/110 45/66/95 152/190/94 153/191/111
f 128/162/112 129/164/96 45/66/95 27/43/110
f 22/35/113 47/68/98 116/146/97 117/147/114
f 100/127/115 101/129/99 47/68/98 22/35/113
s 3
f 49/70/101 48/69/100 6/6/116 8/8/117
s 4
f 21/33/118 50/71/103 98/124/102 99/125/119
f 118/149/120 119/151/104 50/71/103 21/33/118
f 157/197/84 158/198/121 29/47/122 52/74/36
f 141/178/123 142/179/33 52/74/36 29/47/122
f 121/153/14 122/154/124 20/32/125 54/76/15
f 95/121/126 96/122/67 54/76/15 20/32/125
s 3
f 15/26/127 16/27/128 56/78/10 55/77/9
s 2
f 103/131/72 104/132/129 23/37/130 57/79/8
f 113/143/131 114/144/5 57/79/8 23/37/130
f 131/166/26 132/167/132 26/42/133 59/81/27
f 149/187/134 150/188/79 59/81/27 26/42/133
s 1
f 18/29/135 13/23/136 51/72/2 60/82/1
s 4
f 160/200/86 161/201/137 82/107/138 62/85/41
f 82/107/138 138/175/139 139/176/42 62/85/41
f 124/156/46 125/157/140 84/109/141 64/87/47
f 84/109/141 92/118/142 93/119/65 64/87/47
s 3
f 85/110/143 86/111/144 66/89/50 65/88/49
s 2
f 106/134/74 107/135/145 87/112/146 67/90/53
f 87/112/146 110/140/147 111/141/54 67/90/53
f 134/169/58 135/170/148 89/114/149 69/92/59
f 89/114/149 146/184/150 147/185/77 69/92/59
s 1
f 90/115/151 81/105/152 61/83/62 70/93/61
s 4
f 72/95/44 140/177/43 141/178/123 29/47/122
f 158/198/121 159/199/85 72/95/44 29/47/122
s 1
f 74/98/64 73/96/63 13/23/136 18/29/135
s 2
f 75/99/60 148/186/78 149/187/134 26/42/133
f 132/167/132 133/168/57 75/99/60 26/42/133
f 77/101/56 112/142/55 113/143/131 23/37/130
f 104/132/129 105/133/73 77/101/56 23/37/130
s 3
f 79/103/52 78/102/51 16/27/128 15/26/127
s 4
f 80/104/48 94/120/66 95/121/126 20/32/125
f 122/154/124 123/155/45 80/104/48 20/32/125
f 30/49/153 82/107/138 161/201/137 162/203/154
f 137/174/155 138/175/139 82/107/138 30/49/153
f 19/31/156 84/109/141 125/157/140 126/159/157
f 91/117/158 92/118/142 84/109/141 19/31/156
s 3
f 5/5/159 86/111/144 85/110/143 7/7/160
s 2
f 24/39/161 87/112/146 107/135/145 108/137/162
f 109/139/163 110/140/147 87/112/146 24/39/161
f 25/41/164 89/114/149 135/170/148 136/172/165
f 145/183/166 146/184/150 89/114/149 25/41/164
s 1
f 1/1/167 81/105/152 90/115/151 3/3/168
s 4
f 7/7/169 85/110/170 92/118/142 91/117/158
f 93/119/65 92/118/142 85/110/170 65/88/171
f 94/120/66 93/119/65 65/88/171 79/103/172
f 95/121/126 94/120/66 79/103/172 15/26/173
f 55/77/174 96/122/67 95/121/126 15/26/173
f 39/59/175 97/123/68 96/122/67 55/77/174
f 49/70/176 98/124/102 97/123/68 39/59/175
f 99/125/119 98/124/102 49/70/176 8/8/177
s 5
f 100/128/70 99/126/69 8/11/178 6/12/179
s 2
f 48/69/180 101/129/99 100/127/115 6/6/181
f 38/58/182 102/130/71 101/129/99 48/69/180
f 56/78/183 103/131/72 102/130/71 38/58/182
f 16/27/184 104/132/129 103/131/72 56/78/183
f 78/102/185 105/133/73 104/132/129 16/27/184
f 66/89/186 106/134/74 105/133/73 78/102/185
f 86/111/187 107/135/145 106/134/74 66/89/186
f 108/137/162 107/135/145 86/111/187 5/5/188
s 6
f 7/13/189 91/116/76 108/136/75 5/14/190
s 2
f 9/16/191 88/113/192 110/140/147 109/139/163
f 111/141/54 110/140/147 88/113/192 68/91/193
f 112/142/55 111/141/54 68/91/193 76/100/194
f 113/143/131 112/142/55 76/100/194 17/28/195
f 58/80/196 114/144/5 113/143/131 17/28/195
f 36/56/197 115/145/6 114/144/5 58/80/196
f 46/67/198 116/146/97 115/145/6 36/56/197
f 117/147/114 116/146/97 46/67/198 10/17/199
s 5
f 10/18/200 11/20/201 118/150/18 117/148/17
s 4
f 41/61/202 119/151/104 118/149/120 11/19/203
f 31/50/204 120/152/13 119/151/104 41/61/202
f 53/75/205 121/153/14 120/152/13 31/50/204
f 14/25/206 122/154/124 121/153/14 53/75/205
f 71/94/207 123/155/45 122/154/124 14/25/206
f 63/86/208 124/156/46 123/155/45 71/94/207
f 83/108/209 125/157/140 124/156/46 63/86/208
f 126/159/157 125/157/140 83/108/209 12/22/210
s 6
f 109/138/24 126/158/23 12/21/211 9/15/212
s 5
f 128/163/32 127/161/31 11/20/201 10/18/200
s 2
f 46/67/198 129/164/96 128/162/112 10/17/199
f 36/56/197 130/165/25 129/164/96 46/67/198
f 58/80/196 131/166/26 130/165/25 36/56/197
f 17/28/195 132/167/132 131/166/26 58/80/196
f 76/100/194 133/168/57 132/167/132 17/28/195
f 68/91/193 134/169/58 133/168/57 76/100/194
f 88/113/192 135/170/148 134/169/58 68/91/193
f 136/172/165 135/170/148 88/113/192 9/16/191
s 6
f 9/15/212 12/21/211 137/173/38 136/171/37
s 4
f 12/22/210 83/108/209 138/175/139 137/174/155
f 139/176/42 138/175/139 83/108/209 63/86/208
f 140/177/43 139/176/42 63/86/208 71/94/207
f 141/178/123 140/177/43 71/94/207 14/25/206
f 53/75/205 142/179/33 141/178/123 14/25/206
f 31/50/204 143/180/34 142/179/33 53/75/205
f 41/61/202 144/181/89 143/180/34 31/50/204
f 127/160/106 144/181/89 41/61/202 11/19/203
s 2
f 3/3/213 90/115/214 146/184/150 145/183/166
f 147/185/77 146/184/150 90/115/214 70/93/215
f 148/186/78 147/185/77 70/93/215 74/98/216
f 149/187/134 148/186/78 74/98/216 18/29/217
f 60/82/218 150/188/79 149/187/134 18/29/217
f 34/54/219 151/189/80 150/188/79 60/82/218
f 44/65/220 152/190/94 151/189/80 34/54/219
f 153/191/111 152/190/94 44/65/220 4/4/221
s 5
f 2/2/222 154/194/82 153/192/81 4/4/223
s 4
f 43/64/224 155/195/91 154/193/107 2/10/225
f 33/53/226 156/196/83 155/195/91 43/64/224
f 51/73/227 157/197/84 156/196/83 33/53/226
f 13/24/228 158/198/121 157/197/84 51/73/227
f 73/97/229 159/199/85 158/198/121 13/24/228
f 61/84/230 160/200/86 159/199/85 73/97/229
f 81/106/231 161/201/137 160/200/86 61/84/230
f 162/203/154 161/201/137 81/106/231 1/9/232
s 6
f 145/182/88 162/202/87 1/1/233 3/3/234
